G04 #@! TF.GenerationSoftware,KiCad,Pcbnew,7.0.5*
G04 #@! TF.CreationDate,2023-08-10T16:57:38+02:00*
G04 #@! TF.ProjectId,proto_pico,70726f74-6f5f-4706-9963-6f2e6b696361,rev?*
G04 #@! TF.SameCoordinates,Original*
G04 #@! TF.FileFunction,Copper,L1,Top*
G04 #@! TF.FilePolarity,Positive*
%FSLAX46Y46*%
G04 Gerber Fmt 4.6, Leading zero omitted, Abs format (unit mm)*
G04 Created by KiCad (PCBNEW 7.0.5) date 2023-08-10 16:57:38*
%MOMM*%
%LPD*%
G01*
G04 APERTURE LIST*
G04 Aperture macros list*
%AMRoundRect*
0 Rectangle with rounded corners*
0 $1 Rounding radius*
0 $2 $3 $4 $5 $6 $7 $8 $9 X,Y pos of 4 corners*
0 Add a 4 corners polygon primitive as box body*
4,1,4,$2,$3,$4,$5,$6,$7,$8,$9,$2,$3,0*
0 Add four circle primitives for the rounded corners*
1,1,$1+$1,$2,$3*
1,1,$1+$1,$4,$5*
1,1,$1+$1,$6,$7*
1,1,$1+$1,$8,$9*
0 Add four rect primitives between the rounded corners*
20,1,$1+$1,$2,$3,$4,$5,0*
20,1,$1+$1,$4,$5,$6,$7,0*
20,1,$1+$1,$6,$7,$8,$9,0*
20,1,$1+$1,$8,$9,$2,$3,0*%
G04 Aperture macros list end*
G04 #@! TA.AperFunction,SMDPad,CuDef*
%ADD10RoundRect,0.225000X0.225000X0.250000X-0.225000X0.250000X-0.225000X-0.250000X0.225000X-0.250000X0*%
G04 #@! TD*
G04 #@! TA.AperFunction,ComponentPad*
%ADD11R,1.700000X1.700000*%
G04 #@! TD*
G04 #@! TA.AperFunction,ComponentPad*
%ADD12O,1.700000X1.700000*%
G04 #@! TD*
G04 #@! TA.AperFunction,SMDPad,CuDef*
%ADD13RoundRect,0.225000X-0.225000X-0.250000X0.225000X-0.250000X0.225000X0.250000X-0.225000X0.250000X0*%
G04 #@! TD*
G04 #@! TA.AperFunction,SMDPad,CuDef*
%ADD14RoundRect,0.200000X-0.200000X-0.275000X0.200000X-0.275000X0.200000X0.275000X-0.200000X0.275000X0*%
G04 #@! TD*
G04 #@! TA.AperFunction,SMDPad,CuDef*
%ADD15RoundRect,0.218750X-0.256250X0.218750X-0.256250X-0.218750X0.256250X-0.218750X0.256250X0.218750X0*%
G04 #@! TD*
G04 #@! TA.AperFunction,SMDPad,CuDef*
%ADD16RoundRect,0.225000X-0.250000X0.225000X-0.250000X-0.225000X0.250000X-0.225000X0.250000X0.225000X0*%
G04 #@! TD*
G04 #@! TA.AperFunction,SMDPad,CuDef*
%ADD17RoundRect,0.218750X-0.218750X-0.256250X0.218750X-0.256250X0.218750X0.256250X-0.218750X0.256250X0*%
G04 #@! TD*
G04 #@! TA.AperFunction,SMDPad,CuDef*
%ADD18RoundRect,0.225000X0.250000X-0.225000X0.250000X0.225000X-0.250000X0.225000X-0.250000X-0.225000X0*%
G04 #@! TD*
G04 #@! TA.AperFunction,SMDPad,CuDef*
%ADD19RoundRect,0.150000X0.150000X-0.512500X0.150000X0.512500X-0.150000X0.512500X-0.150000X-0.512500X0*%
G04 #@! TD*
G04 #@! TA.AperFunction,SMDPad,CuDef*
%ADD20RoundRect,0.200000X0.275000X-0.200000X0.275000X0.200000X-0.275000X0.200000X-0.275000X-0.200000X0*%
G04 #@! TD*
G04 #@! TA.AperFunction,SMDPad,CuDef*
%ADD21RoundRect,0.200000X0.200000X0.275000X-0.200000X0.275000X-0.200000X-0.275000X0.200000X-0.275000X0*%
G04 #@! TD*
G04 #@! TA.AperFunction,SMDPad,CuDef*
%ADD22R,0.250000X0.500000*%
G04 #@! TD*
G04 #@! TA.AperFunction,SMDPad,CuDef*
%ADD23R,2.650000X1.000000*%
G04 #@! TD*
G04 #@! TA.AperFunction,SMDPad,CuDef*
%ADD24RoundRect,0.150000X-0.512500X-0.150000X0.512500X-0.150000X0.512500X0.150000X-0.512500X0.150000X0*%
G04 #@! TD*
G04 #@! TA.AperFunction,SMDPad,CuDef*
%ADD25RoundRect,0.150000X0.512500X0.150000X-0.512500X0.150000X-0.512500X-0.150000X0.512500X-0.150000X0*%
G04 #@! TD*
G04 #@! TA.AperFunction,SMDPad,CuDef*
%ADD26RoundRect,0.150000X-0.650000X-0.150000X0.650000X-0.150000X0.650000X0.150000X-0.650000X0.150000X0*%
G04 #@! TD*
G04 #@! TA.AperFunction,SMDPad,CuDef*
%ADD27RoundRect,0.200000X-0.275000X0.200000X-0.275000X-0.200000X0.275000X-0.200000X0.275000X0.200000X0*%
G04 #@! TD*
G04 #@! TA.AperFunction,SMDPad,CuDef*
%ADD28RoundRect,0.250000X0.475000X-0.250000X0.475000X0.250000X-0.475000X0.250000X-0.475000X-0.250000X0*%
G04 #@! TD*
G04 #@! TA.AperFunction,SMDPad,CuDef*
%ADD29R,0.700000X0.300000*%
G04 #@! TD*
G04 #@! TA.AperFunction,SMDPad,CuDef*
%ADD30R,1.000000X0.300000*%
G04 #@! TD*
G04 #@! TA.AperFunction,SMDPad,CuDef*
%ADD31RoundRect,0.250000X-0.475000X0.250000X-0.475000X-0.250000X0.475000X-0.250000X0.475000X0.250000X0*%
G04 #@! TD*
G04 #@! TA.AperFunction,ComponentPad*
%ADD32C,4.000000*%
G04 #@! TD*
G04 #@! TA.AperFunction,SMDPad,CuDef*
%ADD33R,1.550000X1.000000*%
G04 #@! TD*
G04 #@! TA.AperFunction,SMDPad,CuDef*
%ADD34RoundRect,0.250000X0.250000X0.475000X-0.250000X0.475000X-0.250000X-0.475000X0.250000X-0.475000X0*%
G04 #@! TD*
G04 #@! TA.AperFunction,SMDPad,CuDef*
%ADD35R,0.300000X1.400000*%
G04 #@! TD*
G04 #@! TA.AperFunction,SMDPad,CuDef*
%ADD36RoundRect,0.102000X-0.373000X-0.323000X0.373000X-0.323000X0.373000X0.323000X-0.373000X0.323000X0*%
G04 #@! TD*
G04 #@! TA.AperFunction,SMDPad,CuDef*
%ADD37R,1.100000X1.300000*%
G04 #@! TD*
G04 #@! TA.AperFunction,SMDPad,CuDef*
%ADD38RoundRect,0.050000X-0.387500X-0.050000X0.387500X-0.050000X0.387500X0.050000X-0.387500X0.050000X0*%
G04 #@! TD*
G04 #@! TA.AperFunction,SMDPad,CuDef*
%ADD39RoundRect,0.050000X-0.050000X-0.387500X0.050000X-0.387500X0.050000X0.387500X-0.050000X0.387500X0*%
G04 #@! TD*
G04 #@! TA.AperFunction,SMDPad,CuDef*
%ADD40R,3.200000X3.200000*%
G04 #@! TD*
G04 #@! TA.AperFunction,SMDPad,CuDef*
%ADD41RoundRect,0.062500X-0.350000X-0.062500X0.350000X-0.062500X0.350000X0.062500X-0.350000X0.062500X0*%
G04 #@! TD*
G04 #@! TA.AperFunction,SMDPad,CuDef*
%ADD42RoundRect,0.062500X-0.062500X-0.350000X0.062500X-0.350000X0.062500X0.350000X-0.062500X0.350000X0*%
G04 #@! TD*
G04 #@! TA.AperFunction,SMDPad,CuDef*
%ADD43R,2.500000X2.500000*%
G04 #@! TD*
G04 #@! TA.AperFunction,SMDPad,CuDef*
%ADD44R,0.300000X0.700000*%
G04 #@! TD*
G04 #@! TA.AperFunction,ComponentPad*
%ADD45O,0.800000X1.400000*%
G04 #@! TD*
G04 #@! TA.AperFunction,SMDPad,CuDef*
%ADD46RoundRect,0.062500X0.375000X0.062500X-0.375000X0.062500X-0.375000X-0.062500X0.375000X-0.062500X0*%
G04 #@! TD*
G04 #@! TA.AperFunction,SMDPad,CuDef*
%ADD47RoundRect,0.062500X0.062500X0.375000X-0.062500X0.375000X-0.062500X-0.375000X0.062500X-0.375000X0*%
G04 #@! TD*
G04 #@! TA.AperFunction,SMDPad,CuDef*
%ADD48R,3.300000X3.300000*%
G04 #@! TD*
G04 #@! TA.AperFunction,ViaPad*
%ADD49C,3.500000*%
G04 #@! TD*
G04 #@! TA.AperFunction,ViaPad*
%ADD50C,0.500000*%
G04 #@! TD*
G04 #@! TA.AperFunction,Conductor*
%ADD51C,0.127000*%
G04 #@! TD*
G04 #@! TA.AperFunction,Conductor*
%ADD52C,0.254000*%
G04 #@! TD*
G04 APERTURE END LIST*
D10*
X185179000Y-120396000D03*
X183629000Y-120396000D03*
D11*
X196474000Y-112649000D03*
D12*
X193934000Y-112649000D03*
D13*
X155900000Y-107442000D03*
X157450000Y-107442000D03*
D14*
X187131000Y-103000000D03*
X188781000Y-103000000D03*
D15*
X155580500Y-100111500D03*
X155580500Y-101686500D03*
D16*
X184654000Y-106543000D03*
X184654000Y-108093000D03*
D10*
X185179000Y-118872000D03*
X183629000Y-118872000D03*
D17*
X141692500Y-92057000D03*
X143267500Y-92057000D03*
D18*
X178816000Y-132601000D03*
X178816000Y-131051000D03*
D19*
X190058000Y-118358500D03*
X191958000Y-118358500D03*
X191008000Y-116083500D03*
D20*
X146558000Y-142049000D03*
X146558000Y-140399000D03*
D21*
X169608000Y-122428000D03*
X167958000Y-122428000D03*
D15*
X154172500Y-91226500D03*
X154172500Y-92801500D03*
D22*
X164627500Y-140507500D03*
X165127500Y-140507500D03*
X165627500Y-140507500D03*
X166127500Y-140507500D03*
X166627500Y-140507500D03*
X167127500Y-140507500D03*
X167127500Y-138607500D03*
X166627500Y-138607500D03*
X166127500Y-138607500D03*
X165627500Y-138607500D03*
X165127500Y-138607500D03*
X164627500Y-138607500D03*
D23*
X165877500Y-139557500D03*
D16*
X144780000Y-135242000D03*
X144780000Y-136792000D03*
D20*
X193798000Y-102746000D03*
X193798000Y-101096000D03*
D13*
X168135000Y-126873000D03*
X169685000Y-126873000D03*
D24*
X195077500Y-117160000D03*
X195077500Y-118110000D03*
X195077500Y-119060000D03*
X197352500Y-119060000D03*
X197352500Y-117160000D03*
D21*
X155722000Y-103886000D03*
X154072000Y-103886000D03*
D20*
X195830000Y-106302000D03*
X195830000Y-104652000D03*
D15*
X165094500Y-91226500D03*
X165094500Y-92801500D03*
D21*
X152082000Y-105283000D03*
X150432000Y-105283000D03*
D25*
X161919500Y-101407000D03*
X161919500Y-100457000D03*
X161919500Y-99507000D03*
X159644500Y-99507000D03*
X159644500Y-101407000D03*
D21*
X140017000Y-103117000D03*
X138367000Y-103117000D03*
X140028500Y-92105000D03*
X138378500Y-92105000D03*
D26*
X164167000Y-113411000D03*
X164167000Y-114681000D03*
X164167000Y-115951000D03*
X164167000Y-117221000D03*
X171367000Y-117221000D03*
X171367000Y-115951000D03*
X171367000Y-114681000D03*
X171367000Y-113411000D03*
D11*
X171704000Y-134874000D03*
D12*
X169164000Y-134874000D03*
X166624000Y-134874000D03*
X164084000Y-134874000D03*
X161544000Y-134874000D03*
D13*
X187181000Y-100651000D03*
X188731000Y-100651000D03*
D11*
X168021000Y-102743000D03*
D12*
X168021000Y-100203000D03*
X168021000Y-97663000D03*
D25*
X160898000Y-92710000D03*
X160898000Y-91760000D03*
X160898000Y-90810000D03*
X158623000Y-90810000D03*
X158623000Y-92710000D03*
D20*
X197862000Y-106302000D03*
X197862000Y-104652000D03*
X154172500Y-89283000D03*
X154172500Y-87633000D03*
D27*
X176276000Y-131001000D03*
X176276000Y-132651000D03*
D28*
X139700000Y-137094000D03*
X139700000Y-135194000D03*
D29*
X194538000Y-133655000D03*
X194538000Y-133155000D03*
X194538000Y-132655000D03*
X194538000Y-132155000D03*
X194538000Y-131655000D03*
X194538000Y-131155000D03*
X194538000Y-130655000D03*
X194538000Y-130155000D03*
X194538000Y-129655000D03*
X194538000Y-129155000D03*
X194538000Y-128655000D03*
X194538000Y-128155000D03*
X194538000Y-127655000D03*
X194538000Y-127155000D03*
X194538000Y-126655000D03*
X194538000Y-126155000D03*
X194538000Y-125655000D03*
X194538000Y-125155000D03*
X194538000Y-124655000D03*
X194538000Y-124155000D03*
D30*
X197188000Y-134445000D03*
X197188000Y-123365000D03*
D31*
X148590000Y-135194000D03*
X148590000Y-137094000D03*
D16*
X181102000Y-137909000D03*
X181102000Y-139459000D03*
D27*
X141605000Y-140399000D03*
X141605000Y-142049000D03*
D17*
X141706500Y-103033000D03*
X143281500Y-103033000D03*
D16*
X183130000Y-106543000D03*
X183130000Y-108093000D03*
D27*
X179750000Y-95487000D03*
X179750000Y-97137000D03*
D16*
X175895000Y-115557000D03*
X175895000Y-117107000D03*
D21*
X169608000Y-123952000D03*
X167958000Y-123952000D03*
D20*
X155580500Y-98168000D03*
X155580500Y-96518000D03*
X191766000Y-106302000D03*
X191766000Y-104652000D03*
X193798000Y-106302000D03*
X193798000Y-104652000D03*
X197862000Y-102937000D03*
X197862000Y-101287000D03*
D32*
X169418000Y-147828000D03*
X174498000Y-147828000D03*
D33*
X164118000Y-107188000D03*
X168368000Y-107188000D03*
X164118000Y-110388000D03*
X168368000Y-110388000D03*
D34*
X141539000Y-144018000D03*
X139639000Y-144018000D03*
X140269000Y-125857000D03*
X138369000Y-125857000D03*
D35*
X145145000Y-128610000D03*
X144645000Y-128610000D03*
X144145000Y-128610000D03*
X143645000Y-128610000D03*
X143145000Y-128610000D03*
X143145000Y-133010000D03*
X143645000Y-133010000D03*
X144145000Y-133010000D03*
X144645000Y-133010000D03*
X145145000Y-133010000D03*
D18*
X157612500Y-101552000D03*
X157612500Y-100002000D03*
D10*
X177559000Y-98679000D03*
X176009000Y-98679000D03*
D11*
X168021000Y-93853000D03*
D12*
X168021000Y-91313000D03*
X168021000Y-88773000D03*
D20*
X192450000Y-97137000D03*
X192450000Y-95487000D03*
D10*
X140094000Y-128524000D03*
X138544000Y-128524000D03*
D36*
X176059000Y-96714000D03*
X177509000Y-96714000D03*
X177509000Y-95564000D03*
X176059000Y-95564000D03*
D21*
X140017000Y-97566000D03*
X138367000Y-97566000D03*
D11*
X190627000Y-132324000D03*
D12*
X190627000Y-129784000D03*
X190627000Y-127244000D03*
X190627000Y-124704000D03*
D18*
X156458500Y-92789000D03*
X156458500Y-91239000D03*
D37*
X177419000Y-137615000D03*
X177419000Y-139915000D03*
X179219000Y-139915000D03*
X179219000Y-137615000D03*
D17*
X141706500Y-97536000D03*
X143281500Y-97536000D03*
D10*
X186195000Y-123444000D03*
X184645000Y-123444000D03*
D11*
X155067000Y-135372000D03*
D12*
X155067000Y-132832000D03*
X155067000Y-130292000D03*
X155067000Y-127752000D03*
D38*
X174670500Y-122486500D03*
X174670500Y-122886500D03*
X174670500Y-123286500D03*
X174670500Y-123686500D03*
X174670500Y-124086500D03*
X174670500Y-124486500D03*
X174670500Y-124886500D03*
X174670500Y-125286500D03*
X174670500Y-125686500D03*
X174670500Y-126086500D03*
X174670500Y-126486500D03*
X174670500Y-126886500D03*
X174670500Y-127286500D03*
X174670500Y-127686500D03*
D39*
X175508000Y-128524000D03*
X175908000Y-128524000D03*
X176308000Y-128524000D03*
X176708000Y-128524000D03*
X177108000Y-128524000D03*
X177508000Y-128524000D03*
X177908000Y-128524000D03*
X178308000Y-128524000D03*
X178708000Y-128524000D03*
X179108000Y-128524000D03*
X179508000Y-128524000D03*
X179908000Y-128524000D03*
X180308000Y-128524000D03*
X180708000Y-128524000D03*
D38*
X181545500Y-127686500D03*
X181545500Y-127286500D03*
X181545500Y-126886500D03*
X181545500Y-126486500D03*
X181545500Y-126086500D03*
X181545500Y-125686500D03*
X181545500Y-125286500D03*
X181545500Y-124886500D03*
X181545500Y-124486500D03*
X181545500Y-124086500D03*
X181545500Y-123686500D03*
X181545500Y-123286500D03*
X181545500Y-122886500D03*
X181545500Y-122486500D03*
D39*
X180708000Y-121649000D03*
X180308000Y-121649000D03*
X179908000Y-121649000D03*
X179508000Y-121649000D03*
X179108000Y-121649000D03*
X178708000Y-121649000D03*
X178308000Y-121649000D03*
X177908000Y-121649000D03*
X177508000Y-121649000D03*
X177108000Y-121649000D03*
X176708000Y-121649000D03*
X176308000Y-121649000D03*
X175908000Y-121649000D03*
X175508000Y-121649000D03*
D40*
X178108000Y-125086500D03*
D34*
X140269000Y-131191000D03*
X138369000Y-131191000D03*
D18*
X163062500Y-92789000D03*
X163062500Y-91239000D03*
D20*
X148590000Y-140525000D03*
X148590000Y-138875000D03*
D18*
X180340000Y-132601000D03*
X180340000Y-131051000D03*
D21*
X177736000Y-100774000D03*
X176086000Y-100774000D03*
D20*
X195830000Y-102746000D03*
X195830000Y-101096000D03*
D14*
X142896000Y-109728000D03*
X144546000Y-109728000D03*
D33*
X187486000Y-137287000D03*
X191736000Y-137287000D03*
X187486000Y-140487000D03*
X191736000Y-140487000D03*
D32*
X158242000Y-147828000D03*
X163322000Y-147828000D03*
D16*
X143256000Y-135242000D03*
X143256000Y-136792000D03*
D18*
X175514000Y-139459000D03*
X175514000Y-137909000D03*
D41*
X181334500Y-101346000D03*
X181334500Y-101846000D03*
X181334500Y-102346000D03*
X181334500Y-102846000D03*
X181334500Y-103346000D03*
X181334500Y-103846000D03*
D42*
X182047000Y-104558500D03*
X182547000Y-104558500D03*
X183047000Y-104558500D03*
X183547000Y-104558500D03*
X184047000Y-104558500D03*
X184547000Y-104558500D03*
D41*
X185259500Y-103846000D03*
X185259500Y-103346000D03*
X185259500Y-102846000D03*
X185259500Y-102346000D03*
X185259500Y-101846000D03*
X185259500Y-101346000D03*
D42*
X184547000Y-100633500D03*
X184047000Y-100633500D03*
X183547000Y-100633500D03*
X183047000Y-100633500D03*
X182547000Y-100633500D03*
X182047000Y-100633500D03*
D43*
X183297000Y-102596000D03*
D10*
X162854500Y-140639500D03*
X161304500Y-140639500D03*
D20*
X180467000Y-115633000D03*
X180467000Y-113983000D03*
D11*
X184404000Y-132583000D03*
D12*
X184404000Y-135123000D03*
D44*
X188850000Y-97014000D03*
X188350000Y-97014000D03*
X187850000Y-97014000D03*
X187350000Y-97014000D03*
X186850000Y-97014000D03*
X186350000Y-97014000D03*
X185850000Y-97014000D03*
X185350000Y-97014000D03*
X184850000Y-97014000D03*
X184350000Y-97014000D03*
X183850000Y-97014000D03*
X183350000Y-97014000D03*
X183600000Y-95314000D03*
X184100000Y-95314000D03*
X184600000Y-95314000D03*
X185100000Y-95314000D03*
X185600000Y-95314000D03*
X186100000Y-95314000D03*
X186600000Y-95314000D03*
X187100000Y-95314000D03*
X187600000Y-95314000D03*
X188100000Y-95314000D03*
X188600000Y-95314000D03*
X189100000Y-95314000D03*
D45*
X190590000Y-89154000D03*
X190230000Y-95104000D03*
X181970000Y-95104000D03*
X181610000Y-89154000D03*
D46*
X151916500Y-111224000D03*
X151916500Y-110724000D03*
X151916500Y-110224000D03*
X151916500Y-109724000D03*
X151916500Y-109224000D03*
X151916500Y-108724000D03*
X151916500Y-108224000D03*
X151916500Y-107724000D03*
D47*
X151229000Y-107036500D03*
X150729000Y-107036500D03*
X150229000Y-107036500D03*
X149729000Y-107036500D03*
X149229000Y-107036500D03*
X148729000Y-107036500D03*
X148229000Y-107036500D03*
X147729000Y-107036500D03*
D46*
X147041500Y-107724000D03*
X147041500Y-108224000D03*
X147041500Y-108724000D03*
X147041500Y-109224000D03*
X147041500Y-109724000D03*
X147041500Y-110224000D03*
X147041500Y-110724000D03*
X147041500Y-111224000D03*
D47*
X147729000Y-111911500D03*
X148229000Y-111911500D03*
X148729000Y-111911500D03*
X149229000Y-111911500D03*
X149729000Y-111911500D03*
X150229000Y-111911500D03*
X150729000Y-111911500D03*
X151229000Y-111911500D03*
D48*
X149479000Y-109474000D03*
D34*
X148524000Y-144272000D03*
X146624000Y-144272000D03*
D13*
X155900000Y-109220000D03*
X157450000Y-109220000D03*
D17*
X141692500Y-94772000D03*
X143267500Y-94772000D03*
D27*
X191766000Y-101096000D03*
X191766000Y-102746000D03*
D21*
X155722000Y-105664000D03*
X154072000Y-105664000D03*
D27*
X165094500Y-87633000D03*
X165094500Y-89283000D03*
D16*
X178943000Y-115557000D03*
X178943000Y-117107000D03*
D20*
X182118000Y-115633000D03*
X182118000Y-113983000D03*
D14*
X183579000Y-121920000D03*
X185229000Y-121920000D03*
D10*
X177686000Y-102489000D03*
X176136000Y-102489000D03*
X186068000Y-127000000D03*
X184518000Y-127000000D03*
D21*
X140017000Y-94772000D03*
X138367000Y-94772000D03*
D12*
X160655000Y-119253000D03*
X158115000Y-119253000D03*
X155575000Y-119253000D03*
X153035000Y-119253000D03*
X150495000Y-119253000D03*
X147955000Y-119253000D03*
D11*
X145415000Y-119253000D03*
D17*
X141706500Y-100323000D03*
X143281500Y-100323000D03*
D32*
X180848000Y-147828000D03*
X185928000Y-147828000D03*
D14*
X171006000Y-106934000D03*
X172656000Y-106934000D03*
D11*
X146188500Y-102519000D03*
D12*
X146188500Y-99979000D03*
X146188500Y-97439000D03*
X146188500Y-94899000D03*
X146188500Y-92359000D03*
D20*
X139700000Y-140525000D03*
X139700000Y-138875000D03*
D13*
X176009000Y-93726000D03*
X177559000Y-93726000D03*
D11*
X145566000Y-151130000D03*
D12*
X148106000Y-151130000D03*
X150646000Y-151130000D03*
D18*
X163962500Y-101552000D03*
X163962500Y-100002000D03*
D21*
X140017000Y-100346000D03*
X138367000Y-100346000D03*
D11*
X151130000Y-102616000D03*
D12*
X151130000Y-100076000D03*
X151130000Y-97536000D03*
D10*
X185179000Y-117094000D03*
X183629000Y-117094000D03*
D11*
X151124500Y-93792000D03*
D12*
X151124500Y-91252000D03*
X151124500Y-88712000D03*
D14*
X189675000Y-121920000D03*
X191325000Y-121920000D03*
D16*
X177419000Y-115557000D03*
X177419000Y-117107000D03*
D13*
X168008000Y-119507000D03*
X169558000Y-119507000D03*
D10*
X162854500Y-138607500D03*
X161304500Y-138607500D03*
D49*
X139978000Y-150495000D03*
X195858000Y-150495000D03*
X139978000Y-89027000D03*
X195858000Y-89027000D03*
D50*
X146050000Y-135255000D03*
X179705000Y-101346000D03*
X156845000Y-106426000D03*
X169926000Y-112776000D03*
X170878500Y-126555500D03*
X179959000Y-117094000D03*
X186309000Y-101346000D03*
X178816000Y-129794000D03*
X170688000Y-119507000D03*
X166624000Y-123952000D03*
X162814000Y-137414000D03*
X181991000Y-106553000D03*
X197358000Y-116078000D03*
X195834000Y-99822000D03*
X142875000Y-108331000D03*
X177927000Y-118237000D03*
X191325000Y-120015000D03*
X183515000Y-126746000D03*
X152781000Y-103886000D03*
X183388000Y-123063000D03*
X166624000Y-122428000D03*
X189992000Y-102997000D03*
X138430000Y-93345000D03*
X142113000Y-136779000D03*
X170180000Y-110363000D03*
X155702000Y-87630000D03*
X165608000Y-117348000D03*
X145161000Y-144272000D03*
X179197000Y-136144000D03*
X166751000Y-119507000D03*
X187452000Y-123444000D03*
X187198000Y-127508000D03*
X179832000Y-98044000D03*
X180467000Y-125095000D03*
X156591000Y-96520000D03*
X143002000Y-144018000D03*
X156972000Y-103886000D03*
X166751000Y-126873000D03*
X145288000Y-141986000D03*
X144145000Y-131572000D03*
X153162000Y-110617000D03*
X138303000Y-129794000D03*
X175895000Y-125095000D03*
X163195000Y-89662000D03*
X183134000Y-109347000D03*
X186436000Y-118872000D03*
X157607000Y-98806000D03*
X158750000Y-107442000D03*
X176149000Y-103886000D03*
X174117000Y-139446000D03*
X146050000Y-136779000D03*
X178562000Y-98933000D03*
X142875000Y-141986000D03*
X189738000Y-140462000D03*
X193675000Y-126873000D03*
X179578000Y-133985000D03*
X195072000Y-120396000D03*
X195707000Y-134112000D03*
X178054000Y-127381000D03*
X160782000Y-100457000D03*
X160147000Y-138557000D03*
X156464000Y-89916000D03*
X190119000Y-100584000D03*
X177419000Y-114046000D03*
X174752000Y-93726000D03*
X138430000Y-98806000D03*
X188849000Y-94488000D03*
X178181000Y-122936000D03*
X138430000Y-101600000D03*
X138303000Y-104394000D03*
X159639000Y-91694000D03*
X195707000Y-124079000D03*
X193675000Y-125603000D03*
X168148000Y-139573000D03*
X189484000Y-97409000D03*
X138430000Y-96012000D03*
X160147000Y-140589000D03*
X193802000Y-107823000D03*
X138303000Y-124206000D03*
X191770000Y-100203000D03*
X187579000Y-98044000D03*
X184785000Y-94488000D03*
X184658000Y-97917000D03*
X187706000Y-94488000D03*
X181483000Y-131445000D03*
X179070000Y-122682000D03*
X193294000Y-123190000D03*
X180340000Y-127508000D03*
X181610000Y-128397000D03*
X182372000Y-128143000D03*
X180594000Y-125730000D03*
X179578000Y-127635000D03*
D51*
X150646000Y-148082000D02*
X150646000Y-151130000D01*
X148524000Y-145960000D02*
X150646000Y-148082000D01*
X148524000Y-144272000D02*
X148524000Y-145960000D01*
X145566000Y-148336000D02*
X145566000Y-151130000D01*
X139639000Y-145203000D02*
X140740000Y-146304000D01*
X140740000Y-146304000D02*
X143534000Y-146304000D01*
X139639000Y-144018000D02*
X139639000Y-145203000D01*
X143534000Y-146304000D02*
X145566000Y-148336000D01*
X171367000Y-113411000D02*
X170561000Y-113411000D01*
D52*
X156446000Y-92801500D02*
X156458500Y-92789000D01*
D51*
X167958000Y-123952000D02*
X166624000Y-123952000D01*
X184264000Y-126746000D02*
X183007000Y-126746000D01*
X146037000Y-135242000D02*
X146050000Y-135255000D01*
X178943000Y-118237000D02*
X178943000Y-117107000D01*
X189989000Y-103000000D02*
X189992000Y-102997000D01*
X197671000Y-101096000D02*
X197862000Y-101287000D01*
D52*
X151124500Y-93792000D02*
X151124500Y-91252000D01*
D51*
X155900000Y-107442000D02*
X155900000Y-107371000D01*
X169685000Y-126873000D02*
X170561000Y-126873000D01*
D52*
X158544000Y-92789000D02*
X158623000Y-92710000D01*
D51*
X179946000Y-117107000D02*
X179959000Y-117094000D01*
D52*
X162854500Y-138607500D02*
X162854500Y-137454500D01*
D51*
X182347500Y-126086500D02*
X181545500Y-126086500D01*
D52*
X151124500Y-91252000D02*
X151124500Y-88712000D01*
D51*
X142896000Y-108352000D02*
X142875000Y-108331000D01*
X170561000Y-126873000D02*
X171347500Y-126086500D01*
X184518000Y-127000000D02*
X184264000Y-126746000D01*
X151916500Y-108224000D02*
X155118000Y-108224000D01*
X178816000Y-131051000D02*
X178816000Y-129794000D01*
X174670500Y-122486500D02*
X174670500Y-122346500D01*
X191325000Y-121920000D02*
X191325000Y-118991500D01*
X142896000Y-109728000D02*
X142896000Y-108352000D01*
D52*
X154172500Y-92801500D02*
X156446000Y-92801500D01*
D51*
X171831000Y-119507000D02*
X169558000Y-119507000D01*
X178708000Y-121649000D02*
X178708000Y-118472000D01*
X182811500Y-122486500D02*
X181545500Y-122486500D01*
X186486000Y-101346000D02*
X187181000Y-100651000D01*
X197352500Y-117160000D02*
X197352500Y-116083500D01*
X178308000Y-121649000D02*
X178308000Y-118618000D01*
X174670500Y-122346500D02*
X171831000Y-119507000D01*
X188781000Y-103000000D02*
X189989000Y-103000000D01*
D52*
X162854500Y-137454500D02*
X162814000Y-137414000D01*
D51*
X183769000Y-123444000D02*
X182811500Y-122486500D01*
X144780000Y-135242000D02*
X146037000Y-135242000D01*
X193798000Y-101096000D02*
X197671000Y-101096000D01*
X183130000Y-106543000D02*
X183047000Y-106460000D01*
X178829000Y-101346000D02*
X181334500Y-101346000D01*
X178308000Y-129286000D02*
X178308000Y-128524000D01*
X185259500Y-101346000D02*
X186309000Y-101346000D01*
X184645000Y-123444000D02*
X183769000Y-123444000D01*
X167958000Y-122555000D02*
X168034000Y-122555000D01*
X144780000Y-135242000D02*
X144645000Y-135107000D01*
X155900000Y-109220000D02*
X155404000Y-108724000D01*
X177419000Y-117729000D02*
X177419000Y-117107000D01*
X171347500Y-126086500D02*
X174670500Y-126086500D01*
X152082000Y-105283000D02*
X152082000Y-104585000D01*
X155900000Y-109220000D02*
X155900000Y-107442000D01*
X155900000Y-107371000D02*
X156845000Y-106426000D01*
X143256000Y-135242000D02*
X144780000Y-135242000D01*
D52*
X151124500Y-93792000D02*
X153182000Y-93792000D01*
D51*
X197352500Y-116083500D02*
X197358000Y-116078000D01*
X195830000Y-101096000D02*
X195830000Y-99826000D01*
X178816000Y-129794000D02*
X178308000Y-129286000D01*
X170561000Y-113411000D02*
X169926000Y-112776000D01*
X167958000Y-122428000D02*
X166624000Y-122428000D01*
X144645000Y-135107000D02*
X144645000Y-133010000D01*
D52*
X153182000Y-93792000D02*
X154172500Y-92801500D01*
X156458500Y-92789000D02*
X158544000Y-92789000D01*
D51*
X186309000Y-101346000D02*
X186486000Y-101346000D01*
D52*
X164627500Y-138607500D02*
X162854500Y-138607500D01*
D51*
X155404000Y-108724000D02*
X151916500Y-108724000D01*
X178708000Y-118472000D02*
X178943000Y-118237000D01*
X155118000Y-108224000D02*
X155900000Y-107442000D01*
X191325000Y-118991500D02*
X191958000Y-118358500D01*
X183047000Y-106460000D02*
X183047000Y-104558500D01*
X177686000Y-102489000D02*
X178829000Y-101346000D01*
X195830000Y-99826000D02*
X195834000Y-99822000D01*
X183007000Y-126746000D02*
X182347500Y-126086500D01*
X181570000Y-126111000D02*
X181545500Y-126086500D01*
X178308000Y-118618000D02*
X177419000Y-117729000D01*
X178943000Y-117107000D02*
X179946000Y-117107000D01*
X152082000Y-104585000D02*
X152781000Y-103886000D01*
X183130000Y-106543000D02*
X182001000Y-106543000D01*
X182001000Y-106543000D02*
X181991000Y-106553000D01*
X189713000Y-140487000D02*
X189738000Y-140462000D01*
D52*
X163574000Y-89283000D02*
X163195000Y-89662000D01*
D51*
X178308000Y-98679000D02*
X178562000Y-98933000D01*
X193798000Y-106302000D02*
X193798000Y-107819000D01*
X193893000Y-126655000D02*
X193675000Y-126873000D01*
X180340000Y-133223000D02*
X179578000Y-133985000D01*
X138367000Y-95949000D02*
X138430000Y-96012000D01*
X138378500Y-92105000D02*
X138378500Y-93293500D01*
X142812000Y-142049000D02*
X142875000Y-141986000D01*
D52*
X163062500Y-89794500D02*
X163195000Y-89662000D01*
D51*
X193798000Y-107819000D02*
X193802000Y-107823000D01*
D52*
X161919500Y-100457000D02*
X160782000Y-100457000D01*
X164163500Y-100203000D02*
X168021000Y-100203000D01*
D51*
X183130000Y-108093000D02*
X183130000Y-109343000D01*
X175514000Y-139459000D02*
X175970000Y-139915000D01*
X194538000Y-125655000D02*
X193727000Y-125655000D01*
X176136000Y-100824000D02*
X176086000Y-100774000D01*
D52*
X168021000Y-97663000D02*
X168021000Y-102743000D01*
D51*
X170155000Y-110388000D02*
X170180000Y-110363000D01*
X176059000Y-93776000D02*
X176009000Y-93726000D01*
X186195000Y-123444000D02*
X187452000Y-123444000D01*
X168132500Y-139557500D02*
X168148000Y-139573000D01*
X175903500Y-125086500D02*
X175895000Y-125095000D01*
X143256000Y-136792000D02*
X142126000Y-136792000D01*
X197188000Y-134445000D02*
X196040000Y-134445000D01*
X150229000Y-110224000D02*
X149479000Y-109474000D01*
X191736000Y-140487000D02*
X189763000Y-140487000D01*
X182180000Y-95314000D02*
X181970000Y-95104000D01*
X194538000Y-124155000D02*
X195631000Y-124155000D01*
X138369000Y-129860000D02*
X138303000Y-129794000D01*
X168368000Y-110388000D02*
X170155000Y-110388000D01*
X186068000Y-127000000D02*
X186690000Y-127000000D01*
X157450000Y-109220000D02*
X157450000Y-107442000D01*
X138544000Y-129553000D02*
X138303000Y-129794000D01*
X186690000Y-127000000D02*
X187198000Y-127508000D01*
X138367000Y-94772000D02*
X138367000Y-95949000D01*
D52*
X156458500Y-91239000D02*
X156458500Y-89921500D01*
D51*
X152769000Y-110224000D02*
X153162000Y-110617000D01*
X178108000Y-127327000D02*
X178108000Y-125086500D01*
D52*
X163962500Y-100002000D02*
X164163500Y-100203000D01*
D51*
X185179000Y-118872000D02*
X186436000Y-118872000D01*
X183350000Y-97014000D02*
X183350000Y-95564000D01*
X196421000Y-123365000D02*
X195707000Y-124079000D01*
X138367000Y-98743000D02*
X138430000Y-98806000D01*
X178108000Y-125086500D02*
X180458500Y-125086500D01*
X189089000Y-97014000D02*
X189484000Y-97409000D01*
D52*
X160197500Y-138607500D02*
X160147000Y-138557000D01*
D51*
X194061000Y-127655000D02*
X193675000Y-127269000D01*
X178108000Y-123009000D02*
X178181000Y-122936000D01*
X183600000Y-95314000D02*
X182180000Y-95314000D01*
X179219000Y-137615000D02*
X180808000Y-137615000D01*
X138369000Y-125857000D02*
X138369000Y-124272000D01*
X179219000Y-136166000D02*
X179197000Y-136144000D01*
X167127500Y-140305500D02*
X166379500Y-139557500D01*
X177108000Y-127692000D02*
X177108000Y-128524000D01*
X164294000Y-117348000D02*
X164167000Y-117221000D01*
X176009000Y-93726000D02*
X174752000Y-93726000D01*
X180340000Y-132601000D02*
X180340000Y-133223000D01*
X138367000Y-103117000D02*
X138367000Y-104330000D01*
D52*
X154175500Y-87630000D02*
X154172500Y-87633000D01*
D51*
X165877500Y-139557500D02*
X168132500Y-139557500D01*
X183130000Y-108093000D02*
X184654000Y-108093000D01*
X138378500Y-93293500D02*
X138430000Y-93345000D01*
D52*
X165094500Y-89283000D02*
X163574000Y-89283000D01*
D51*
X192067000Y-95104000D02*
X190230000Y-95104000D01*
X177419000Y-127381000D02*
X177108000Y-127692000D01*
X183350000Y-95564000D02*
X183600000Y-95314000D01*
X167127500Y-140507500D02*
X167127500Y-140305500D01*
X177419000Y-115557000D02*
X177419000Y-114046000D01*
X185179000Y-120396000D02*
X185179000Y-117094000D01*
X178816000Y-133223000D02*
X179578000Y-133985000D01*
X179750000Y-97962000D02*
X179832000Y-98044000D01*
X151916500Y-110224000D02*
X150229000Y-110224000D01*
X166379500Y-139557500D02*
X165877500Y-139557500D01*
D52*
X161304500Y-140639500D02*
X160197500Y-140639500D01*
D51*
X176136000Y-102489000D02*
X176136000Y-100824000D01*
X197188000Y-123365000D02*
X196421000Y-123365000D01*
X165608000Y-117348000D02*
X164294000Y-117348000D01*
X187486000Y-140487000D02*
X189713000Y-140487000D01*
X195631000Y-124155000D02*
X195707000Y-124079000D01*
X176136000Y-102489000D02*
X176136000Y-103873000D01*
X146558000Y-142049000D02*
X145351000Y-142049000D01*
X191766000Y-106302000D02*
X197862000Y-106302000D01*
X194538000Y-126655000D02*
X193893000Y-126655000D01*
X183130000Y-109343000D02*
X183134000Y-109347000D01*
X168135000Y-126873000D02*
X166751000Y-126873000D01*
X178108000Y-125086500D02*
X175903500Y-125086500D01*
X164118000Y-110388000D02*
X168368000Y-110388000D01*
X178816000Y-132601000D02*
X178816000Y-133223000D01*
X177509000Y-98629000D02*
X177559000Y-98679000D01*
X146037000Y-136792000D02*
X146050000Y-136779000D01*
X144780000Y-136792000D02*
X146037000Y-136792000D01*
D52*
X157612500Y-100002000D02*
X157612500Y-98811500D01*
D51*
X138544000Y-128524000D02*
X138544000Y-129553000D01*
X177559000Y-98679000D02*
X178308000Y-98679000D01*
X138367000Y-104330000D02*
X138303000Y-104394000D01*
D52*
X155580500Y-96518000D02*
X156589000Y-96518000D01*
X159705000Y-91760000D02*
X159639000Y-91694000D01*
D51*
X138367000Y-101537000D02*
X138430000Y-101600000D01*
X194538000Y-133655000D02*
X195250000Y-133655000D01*
X175514000Y-139459000D02*
X175501000Y-139446000D01*
X138367000Y-97566000D02*
X138367000Y-98743000D01*
X178108000Y-125086500D02*
X178108000Y-123009000D01*
X179750000Y-97137000D02*
X179750000Y-97962000D01*
D52*
X156589000Y-96518000D02*
X156591000Y-96520000D01*
X161304500Y-138607500D02*
X160197500Y-138607500D01*
D51*
X142126000Y-136792000D02*
X142113000Y-136779000D01*
X180808000Y-137615000D02*
X181102000Y-137909000D01*
X190052000Y-100651000D02*
X190119000Y-100584000D01*
X157450000Y-107442000D02*
X158750000Y-107442000D01*
X178054000Y-127381000D02*
X178108000Y-127327000D01*
X193675000Y-127269000D02*
X193675000Y-126873000D01*
X144145000Y-133010000D02*
X144145000Y-131572000D01*
X138369000Y-131191000D02*
X138369000Y-129860000D01*
X179219000Y-137615000D02*
X179219000Y-136166000D01*
X176136000Y-103873000D02*
X176149000Y-103886000D01*
X155722000Y-103886000D02*
X156972000Y-103886000D01*
X192450000Y-95487000D02*
X192067000Y-95104000D01*
X195077500Y-119060000D02*
X195077500Y-120390500D01*
X141539000Y-144018000D02*
X143002000Y-144018000D01*
X175970000Y-139915000D02*
X177419000Y-139915000D01*
X180458500Y-125086500D02*
X180467000Y-125095000D01*
D52*
X163062500Y-91239000D02*
X163062500Y-89794500D01*
D51*
X138367000Y-100346000D02*
X138367000Y-101537000D01*
X189100000Y-95314000D02*
X189100000Y-94739000D01*
X168008000Y-119507000D02*
X166751000Y-119507000D01*
X196040000Y-134445000D02*
X195707000Y-134112000D01*
D52*
X155702000Y-87630000D02*
X154175500Y-87630000D01*
X160898000Y-91760000D02*
X159705000Y-91760000D01*
D51*
X195250000Y-133655000D02*
X195707000Y-134112000D01*
D52*
X156458500Y-89921500D02*
X156464000Y-89916000D01*
D51*
X176059000Y-95564000D02*
X176059000Y-93776000D01*
X189763000Y-140487000D02*
X189738000Y-140462000D01*
X175501000Y-139446000D02*
X174117000Y-139446000D01*
X193727000Y-125655000D02*
X193675000Y-125603000D01*
X188731000Y-100651000D02*
X190052000Y-100651000D01*
X141605000Y-142049000D02*
X142812000Y-142049000D01*
X195077500Y-120390500D02*
X195072000Y-120396000D01*
X138369000Y-124272000D02*
X138303000Y-124206000D01*
X189100000Y-94739000D02*
X188722000Y-94361000D01*
X194538000Y-127655000D02*
X194061000Y-127655000D01*
D52*
X160197500Y-140639500D02*
X160147000Y-140589000D01*
D51*
X146624000Y-144272000D02*
X145161000Y-144272000D01*
D52*
X157612500Y-98811500D02*
X157607000Y-98806000D01*
D51*
X178054000Y-127381000D02*
X177419000Y-127381000D01*
X188850000Y-97014000D02*
X189089000Y-97014000D01*
X145351000Y-142049000D02*
X145288000Y-141986000D01*
X177509000Y-96714000D02*
X177509000Y-98629000D01*
X151916500Y-110224000D02*
X152769000Y-110224000D01*
X178943000Y-115557000D02*
X175895000Y-115557000D01*
D52*
X161919500Y-99507000D02*
X163002000Y-99507000D01*
X162052000Y-92789000D02*
X160977000Y-92789000D01*
X160977000Y-92789000D02*
X160898000Y-92710000D01*
X191766000Y-100207000D02*
X191770000Y-100203000D01*
X163068000Y-99441000D02*
X163068000Y-101407000D01*
X168021000Y-93853000D02*
X168021000Y-88773000D01*
X161919500Y-101407000D02*
X157662500Y-105664000D01*
X163817500Y-101407000D02*
X163962500Y-101552000D01*
X191766000Y-101096000D02*
X191766000Y-100207000D01*
X185100000Y-95314000D02*
X185100000Y-94803000D01*
X184850000Y-97725000D02*
X184658000Y-97917000D01*
X187350000Y-97815000D02*
X187579000Y-98044000D01*
X163062500Y-92789000D02*
X163062500Y-98364000D01*
X187600000Y-94594000D02*
X187706000Y-94488000D01*
X161549000Y-90810000D02*
X162052000Y-91313000D01*
X163068000Y-98369500D02*
X163068000Y-99441000D01*
X184850000Y-97014000D02*
X184850000Y-97725000D01*
X165094500Y-92801500D02*
X163075000Y-92801500D01*
X162052000Y-91313000D02*
X162052000Y-92789000D01*
X187350000Y-97014000D02*
X187350000Y-97815000D01*
X163068000Y-101407000D02*
X163817500Y-101407000D01*
X168021000Y-93853000D02*
X166146000Y-93853000D01*
X160898000Y-90810000D02*
X161549000Y-90810000D01*
X163062500Y-98364000D02*
X163068000Y-98369500D01*
X166146000Y-93853000D02*
X165094500Y-92801500D01*
X163002000Y-99507000D02*
X163068000Y-99441000D01*
X157662500Y-105664000D02*
X155722000Y-105664000D01*
X161919500Y-101407000D02*
X163068000Y-101407000D01*
X163075000Y-92801500D02*
X163062500Y-92789000D01*
X185100000Y-94803000D02*
X184785000Y-94488000D01*
X187600000Y-95314000D02*
X187600000Y-94594000D01*
X163062500Y-92789000D02*
X162052000Y-92789000D01*
D51*
X176898000Y-99568000D02*
X176009000Y-98679000D01*
X176009000Y-98679000D02*
X176009000Y-96764000D01*
X183047000Y-100633500D02*
X183047000Y-100401388D01*
X182213612Y-99568000D02*
X176898000Y-99568000D01*
X176009000Y-96764000D02*
X176059000Y-96714000D01*
X183047000Y-100401388D02*
X182213612Y-99568000D01*
X179070000Y-98679000D02*
X178689000Y-98298000D01*
X178689000Y-96647000D02*
X178592000Y-96647000D01*
X177559000Y-95514000D02*
X177559000Y-93726000D01*
X183547000Y-100633500D02*
X183547000Y-100401388D01*
X178689000Y-98298000D02*
X178689000Y-96647000D01*
X178592000Y-96647000D02*
X177509000Y-95564000D01*
X177509000Y-95564000D02*
X177559000Y-95514000D01*
X181824612Y-98679000D02*
X179070000Y-98679000D01*
X183547000Y-100401388D02*
X181824612Y-98679000D01*
X180340000Y-131051000D02*
X181089000Y-131051000D01*
X178708000Y-128924000D02*
X178708000Y-128524000D01*
X179908000Y-121988435D02*
X179908000Y-121649000D01*
X179908000Y-121649000D02*
X179908000Y-120815000D01*
X178601565Y-122682000D02*
X179070000Y-122682000D01*
X179070000Y-122682000D02*
X179214435Y-122682000D01*
X180308000Y-121649000D02*
X180308000Y-121309565D01*
X179908000Y-121649000D02*
X180308000Y-121649000D01*
X182745565Y-118872000D02*
X183629000Y-118872000D01*
X180308000Y-121309565D02*
X182745565Y-118872000D01*
X177908000Y-119361000D02*
X175895000Y-117348000D01*
X177908000Y-121649000D02*
X177908000Y-121988435D01*
X180340000Y-131051000D02*
X180340000Y-130556000D01*
X179908000Y-120815000D02*
X183629000Y-117094000D01*
X175895000Y-117348000D02*
X175895000Y-117107000D01*
X180340000Y-130556000D02*
X178708000Y-128924000D01*
X177908000Y-121988435D02*
X178601565Y-122682000D01*
X181089000Y-131051000D02*
X181483000Y-131445000D01*
X179214435Y-122682000D02*
X179908000Y-121988435D01*
X177908000Y-121649000D02*
X177908000Y-119361000D01*
X183579000Y-121920000D02*
X183579000Y-120446000D01*
X180708000Y-121649000D02*
X183308000Y-121649000D01*
X183308000Y-121649000D02*
X183579000Y-121920000D01*
X183579000Y-120446000D02*
X183629000Y-120396000D01*
X177419000Y-137615000D02*
X175808000Y-137615000D01*
X175808000Y-137615000D02*
X175514000Y-137909000D01*
X176276000Y-135382000D02*
X177419000Y-136525000D01*
X176276000Y-132651000D02*
X176276000Y-135382000D01*
X177419000Y-136525000D02*
X177419000Y-137615000D01*
X180646000Y-139915000D02*
X179219000Y-139915000D01*
X181102000Y-139459000D02*
X180646000Y-139915000D01*
X178308000Y-139004000D02*
X178308000Y-134239000D01*
X179219000Y-139915000D02*
X178308000Y-139004000D01*
X178308000Y-134239000D02*
X177908000Y-133839000D01*
X177908000Y-133839000D02*
X177908000Y-128524000D01*
X140142000Y-135194000D02*
X141097000Y-134239000D01*
X143645000Y-133687000D02*
X143645000Y-133010000D01*
X141097000Y-134239000D02*
X143093000Y-134239000D01*
X139700000Y-135194000D02*
X140142000Y-135194000D01*
X143093000Y-134239000D02*
X143645000Y-133687000D01*
X148590000Y-137094000D02*
X148590000Y-138875000D01*
X148590000Y-138875000D02*
X148082000Y-138875000D01*
X148082000Y-138875000D02*
X146558000Y-140399000D01*
X145145000Y-133715000D02*
X145145000Y-133010000D01*
X145669000Y-134239000D02*
X145145000Y-133715000D01*
X147635000Y-134239000D02*
X145669000Y-134239000D01*
X148590000Y-135194000D02*
X147635000Y-134239000D01*
X142088000Y-133010000D02*
X143145000Y-133010000D01*
X140269000Y-131191000D02*
X142088000Y-133010000D01*
X140094000Y-128524000D02*
X140094000Y-126032000D01*
X140180000Y-128610000D02*
X143145000Y-128610000D01*
X140094000Y-126032000D02*
X140269000Y-125857000D01*
X140094000Y-128524000D02*
X140180000Y-128610000D01*
X148524000Y-144272000D02*
X148590000Y-144206000D01*
X148590000Y-144206000D02*
X148590000Y-140525000D01*
X148524000Y-144272000D02*
X148533439Y-144281439D01*
X139639000Y-140586000D02*
X139700000Y-140525000D01*
X139639000Y-144018000D02*
X139639000Y-140586000D01*
D52*
X158242000Y-147828000D02*
X162854500Y-143215500D01*
X164627500Y-140507500D02*
X162986500Y-140507500D01*
X162854500Y-143215500D02*
X162854500Y-140639500D01*
X162986500Y-140507500D02*
X162854500Y-140639500D01*
X195142000Y-127155000D02*
X194538000Y-127155000D01*
X155715000Y-101552000D02*
X155580500Y-101686500D01*
X151130000Y-100076000D02*
X151130000Y-102616000D01*
X195100000Y-127155000D02*
X194538000Y-127155000D01*
X193294000Y-123190000D02*
X193961000Y-123857000D01*
X193961000Y-124532000D02*
X194084000Y-124655000D01*
X194084000Y-124655000D02*
X194538000Y-124655000D01*
X155580500Y-101686500D02*
X154651000Y-102616000D01*
X195142000Y-133155000D02*
X195707000Y-132590000D01*
X195707000Y-125220000D02*
X195707000Y-126590000D01*
X195707000Y-126590000D02*
X195142000Y-127155000D01*
X159644500Y-101407000D02*
X157757500Y-101407000D01*
X154651000Y-102616000D02*
X151130000Y-102616000D01*
X157612500Y-101552000D02*
X155715000Y-101552000D01*
X195707000Y-127762000D02*
X195100000Y-127155000D01*
X194538000Y-133155000D02*
X195142000Y-133155000D01*
X151130000Y-100076000D02*
X151130000Y-97536000D01*
X195707000Y-132590000D02*
X195707000Y-127762000D01*
X195142000Y-124655000D02*
X195707000Y-125220000D01*
X193961000Y-123857000D02*
X193961000Y-124532000D01*
X194538000Y-124655000D02*
X195142000Y-124655000D01*
X154172500Y-91226500D02*
X154172500Y-89283000D01*
X165484000Y-87633000D02*
X165094500Y-87633000D01*
X165567500Y-91226500D02*
X166243000Y-90551000D01*
X166243000Y-88392000D02*
X165484000Y-87633000D01*
X166243000Y-90551000D02*
X166243000Y-88392000D01*
X165094500Y-91226500D02*
X165567500Y-91226500D01*
X155580500Y-100111500D02*
X155580500Y-98168000D01*
X141706500Y-100323000D02*
X140040000Y-100323000D01*
X140040000Y-100323000D02*
X140017000Y-100346000D01*
X146188500Y-99979000D02*
X143625500Y-99979000D01*
D51*
X180708000Y-127876000D02*
X180340000Y-127508000D01*
D52*
X146188500Y-99979000D02*
X147574000Y-101364500D01*
X147041500Y-105752000D02*
X147041500Y-107724000D01*
X143625500Y-99979000D02*
X143281500Y-100323000D01*
D51*
X180708000Y-128524000D02*
X180708000Y-127876000D01*
D52*
X147574000Y-101364500D02*
X147574000Y-105219500D01*
X147574000Y-105219500D02*
X147041500Y-105752000D01*
X140047000Y-97536000D02*
X140017000Y-97566000D01*
X141706500Y-97536000D02*
X140047000Y-97536000D01*
X143378500Y-97439000D02*
X143281500Y-97536000D01*
D51*
X181545500Y-128332500D02*
X181610000Y-128397000D01*
D52*
X148082000Y-105447276D02*
X147729000Y-105800276D01*
D51*
X181545500Y-127686500D02*
X181545500Y-128332500D01*
D52*
X146188500Y-97439000D02*
X143378500Y-97439000D01*
X147729000Y-105800276D02*
X147729000Y-107036500D01*
X148082000Y-99332500D02*
X148082000Y-105447276D01*
X146188500Y-97439000D02*
X148082000Y-99332500D01*
X140017000Y-94772000D02*
X141692500Y-94772000D01*
X146188500Y-94899000D02*
X148590000Y-97300500D01*
X148590000Y-105604184D02*
X148229000Y-105965184D01*
D51*
X181884935Y-127286500D02*
X182372000Y-127773565D01*
X182372000Y-127773565D02*
X182372000Y-128143000D01*
D52*
X146188500Y-94899000D02*
X143394500Y-94899000D01*
X148229000Y-105965184D02*
X148229000Y-107036500D01*
X148590000Y-97300500D02*
X148590000Y-105604184D01*
D51*
X181545500Y-127286500D02*
X181884935Y-127286500D01*
D52*
X143394500Y-94899000D02*
X143267500Y-94772000D01*
X140076500Y-92057000D02*
X140028500Y-92105000D01*
X141692500Y-92057000D02*
X140076500Y-92057000D01*
D51*
X181206065Y-126886500D02*
X181545500Y-126886500D01*
D52*
X149098000Y-95268500D02*
X149098000Y-105791000D01*
X146188500Y-92359000D02*
X149098000Y-95268500D01*
D51*
X180594000Y-125730000D02*
X180594000Y-126274435D01*
D52*
X149098000Y-105791000D02*
X148729000Y-106160000D01*
D51*
X180594000Y-126274435D02*
X181206065Y-126886500D01*
D52*
X143569500Y-92359000D02*
X143267500Y-92057000D01*
X146188500Y-92359000D02*
X143569500Y-92359000D01*
X148729000Y-106160000D02*
X148729000Y-107036500D01*
X140101000Y-103033000D02*
X140017000Y-103117000D01*
X141706500Y-103033000D02*
X140101000Y-103033000D01*
X146694585Y-108224000D02*
X147041500Y-108224000D01*
X146188500Y-102519000D02*
X146188500Y-107717915D01*
D51*
X179832000Y-127635000D02*
X179578000Y-127635000D01*
X180308000Y-128524000D02*
X180308000Y-128111000D01*
D52*
X143795500Y-102519000D02*
X143281500Y-103033000D01*
D51*
X180308000Y-128111000D02*
X179832000Y-127635000D01*
D52*
X146188500Y-107717915D02*
X146694585Y-108224000D01*
X146188500Y-102519000D02*
X143795500Y-102519000D01*
D51*
X190527000Y-99060000D02*
X187579000Y-99060000D01*
X187579000Y-99060000D02*
X186850000Y-98331000D01*
X186850000Y-98331000D02*
X186850000Y-97014000D01*
X192450000Y-97137000D02*
X190527000Y-99060000D01*
X189484000Y-94361000D02*
X189103000Y-93980000D01*
X184047000Y-100633500D02*
X184047000Y-99084000D01*
X186350000Y-96537000D02*
X186621000Y-96266000D01*
X181229000Y-96266000D02*
X181229000Y-94615000D01*
X189484000Y-95667025D02*
X189484000Y-94361000D01*
X181991000Y-93853000D02*
X185129500Y-93853000D01*
X186100000Y-94823500D02*
X186100000Y-95314000D01*
X186621000Y-96266000D02*
X188885025Y-96266000D01*
X184047000Y-99084000D02*
X181229000Y-96266000D01*
X189103000Y-93980000D02*
X186944000Y-93980000D01*
X181229000Y-94615000D02*
X181991000Y-93853000D01*
X186100000Y-94824000D02*
X186100000Y-95314000D01*
X186944000Y-93980000D02*
X186100000Y-94824000D01*
X188885025Y-96266000D02*
X189484000Y-95667025D01*
X185129500Y-93853000D02*
X186100000Y-94823500D01*
X186350000Y-97014000D02*
X186350000Y-96537000D01*
X185850000Y-99330500D02*
X185850000Y-97014000D01*
X185850000Y-96437000D02*
X186600000Y-95687000D01*
X185850000Y-97014000D02*
X185850000Y-96437000D01*
X186600000Y-95687000D02*
X186600000Y-95314000D01*
X184547000Y-100633500D02*
X185850000Y-99330500D01*
D52*
X169418000Y-147828000D02*
X165127500Y-143537500D01*
X165127500Y-143537500D02*
X165127500Y-140507500D01*
X171450000Y-144780000D02*
X168167500Y-144780000D01*
X168167500Y-144780000D02*
X165627500Y-142240000D01*
X174498000Y-147828000D02*
X171450000Y-144780000D01*
X165627500Y-142240000D02*
X165627500Y-140507500D01*
X165627500Y-142259500D02*
X165627500Y-142240000D01*
X168275000Y-143764000D02*
X166127500Y-141616500D01*
X176784000Y-143764000D02*
X168275000Y-143764000D01*
X166127500Y-141616500D02*
X166127500Y-140507500D01*
X180848000Y-147828000D02*
X176784000Y-143764000D01*
X180213000Y-142113000D02*
X167513000Y-142113000D01*
X166627500Y-141227500D02*
X166627500Y-140507500D01*
X167513000Y-142113000D02*
X166627500Y-141227500D01*
X185928000Y-147828000D02*
X180213000Y-142113000D01*
D51*
X179508000Y-128863435D02*
X180311565Y-129667000D01*
X180311565Y-129667000D02*
X181488000Y-129667000D01*
X179508000Y-128524000D02*
X179508000Y-128863435D01*
X181488000Y-129667000D02*
X184404000Y-132583000D01*
X180292565Y-130048000D02*
X180848000Y-130048000D01*
X179108000Y-128524000D02*
X179108000Y-128863435D01*
X179108000Y-128863435D02*
X180292565Y-130048000D01*
X182120500Y-131320500D02*
X182120500Y-132839500D01*
X180848000Y-130048000D02*
X182120500Y-131320500D01*
X184404000Y-135123000D02*
X182120500Y-132839500D01*
X150495000Y-115824000D02*
X149729000Y-115058000D01*
X174670500Y-124486500D02*
X171095500Y-124486500D01*
X154432000Y-123190000D02*
X168846000Y-123190000D01*
X169608000Y-123952000D02*
X168846000Y-123190000D01*
X150495000Y-119253000D02*
X150495000Y-115824000D01*
X150495000Y-119253000D02*
X154432000Y-123190000D01*
X170561000Y-123952000D02*
X169608000Y-123952000D01*
X171095500Y-124486500D02*
X170561000Y-123952000D01*
X149729000Y-115058000D02*
X149729000Y-111911500D01*
X174670500Y-124086500D02*
X172219500Y-124086500D01*
X153035000Y-119253000D02*
X153035000Y-116459000D01*
X150241000Y-111923500D02*
X150229000Y-111911500D01*
X155321000Y-121539000D02*
X168719000Y-121539000D01*
X150229000Y-113653000D02*
X150229000Y-111911500D01*
X153035000Y-116459000D02*
X150229000Y-113653000D01*
X153035000Y-119253000D02*
X155321000Y-121539000D01*
X168719000Y-121539000D02*
X169608000Y-122428000D01*
X172219500Y-124086500D02*
X170561000Y-122428000D01*
X170561000Y-122428000D02*
X169608000Y-122428000D01*
X145415000Y-119253000D02*
X145415000Y-120230000D01*
X154178000Y-125286500D02*
X174670500Y-125286500D01*
X145415000Y-120230000D02*
X150471500Y-125286500D01*
X150471500Y-125286500D02*
X154178000Y-125286500D01*
X148229000Y-113137000D02*
X148229000Y-111911500D01*
X145415000Y-119253000D02*
X145415000Y-115951000D01*
X145415000Y-115951000D02*
X148229000Y-113137000D01*
X153588500Y-124886500D02*
X155702000Y-124886500D01*
X147955000Y-119253000D02*
X153588500Y-124886500D01*
X147955000Y-114808000D02*
X149229000Y-113534000D01*
X174670500Y-124886500D02*
X155702000Y-124886500D01*
X147955000Y-119253000D02*
X147955000Y-114808000D01*
X149229000Y-113534000D02*
X149229000Y-111911500D01*
X160655000Y-119253000D02*
X160655000Y-118999000D01*
X152380000Y-110724000D02*
X151916500Y-110724000D01*
X160655000Y-118999000D02*
X152380000Y-110724000D01*
X174670500Y-122886500D02*
X174067500Y-122886500D01*
X161798000Y-120396000D02*
X171577000Y-120396000D01*
X174067500Y-122886500D02*
X171577000Y-120396000D01*
X160655000Y-119253000D02*
X161798000Y-120396000D01*
X157480000Y-121158000D02*
X170815000Y-121158000D01*
X170815000Y-121158000D02*
X173343500Y-123686500D01*
X173343500Y-123686500D02*
X174670500Y-123686500D01*
X155575000Y-119253000D02*
X155575000Y-117348000D01*
X155575000Y-119253000D02*
X157480000Y-121158000D01*
X151229000Y-113002000D02*
X151229000Y-111911500D01*
X155575000Y-117348000D02*
X151229000Y-113002000D01*
X159639000Y-120777000D02*
X171323000Y-120777000D01*
X174670500Y-123286500D02*
X173832500Y-123286500D01*
X173832500Y-123286500D02*
X171323000Y-120777000D01*
X158115000Y-119253000D02*
X159639000Y-120777000D01*
X158115000Y-119253000D02*
X158115000Y-117422500D01*
X158115000Y-117422500D02*
X151916500Y-111224000D01*
X145399000Y-131191000D02*
X143645000Y-129437000D01*
X173449500Y-127286500D02*
X174670500Y-127286500D01*
X162306000Y-130429000D02*
X170307000Y-130429000D01*
X149225000Y-131191000D02*
X145399000Y-131191000D01*
X157363000Y-135372000D02*
X162306000Y-130429000D01*
X170307000Y-130429000D02*
X173449500Y-127286500D01*
X143645000Y-129437000D02*
X143645000Y-128610000D01*
X153406000Y-135372000D02*
X149225000Y-131191000D01*
X155067000Y-135372000D02*
X157363000Y-135372000D01*
X155067000Y-135372000D02*
X153406000Y-135372000D01*
X172706500Y-126886500D02*
X174670500Y-126886500D01*
X153660000Y-132832000D02*
X151638000Y-130810000D01*
X145415000Y-130810000D02*
X144145000Y-129540000D01*
X151638000Y-130810000D02*
X145415000Y-130810000D01*
X170434000Y-129159000D02*
X172706500Y-126886500D01*
X157236000Y-132832000D02*
X160909000Y-129159000D01*
X155067000Y-132832000D02*
X153660000Y-132832000D01*
X144145000Y-129540000D02*
X144145000Y-128610000D01*
X160909000Y-129159000D02*
X170434000Y-129159000D01*
X155067000Y-132832000D02*
X157236000Y-132832000D01*
X156982000Y-130292000D02*
X159258000Y-128016000D01*
X159258000Y-128016000D02*
X170561000Y-128016000D01*
X145500000Y-130292000D02*
X144645000Y-129437000D01*
X155067000Y-130292000D02*
X156982000Y-130292000D01*
X144645000Y-129437000D02*
X144645000Y-128610000D01*
X170561000Y-128016000D02*
X172090500Y-126486500D01*
X155067000Y-130292000D02*
X145500000Y-130292000D01*
X172090500Y-126486500D02*
X174670500Y-126486500D01*
X154168000Y-128651000D02*
X145186000Y-128651000D01*
X157132500Y-125686500D02*
X159385000Y-125686500D01*
X155067000Y-127752000D02*
X154168000Y-128651000D01*
X159385000Y-125686500D02*
X174670500Y-125686500D01*
X155067000Y-127752000D02*
X157132500Y-125686500D01*
X145186000Y-128651000D02*
X145145000Y-128610000D01*
X194061000Y-129655000D02*
X192024000Y-127618000D01*
X191389000Y-126111000D02*
X188849000Y-126111000D01*
X194538000Y-129655000D02*
X194061000Y-129655000D01*
X183461000Y-125041000D02*
X182506500Y-124086500D01*
X188849000Y-126111000D02*
X187779000Y-125041000D01*
X182506500Y-124086500D02*
X181545500Y-124086500D01*
X187779000Y-125041000D02*
X183461000Y-125041000D01*
X192024000Y-126746000D02*
X191389000Y-126111000D01*
X192024000Y-127618000D02*
X192024000Y-126746000D01*
X194538000Y-129155000D02*
X194061000Y-129155000D01*
X192405000Y-126365000D02*
X191897000Y-125857000D01*
X192405000Y-127499000D02*
X192405000Y-126365000D01*
X189230000Y-125857000D02*
X188187000Y-124814000D01*
X188187000Y-124814000D02*
X183615000Y-124814000D01*
X191897000Y-125857000D02*
X189230000Y-125857000D01*
X194061000Y-129155000D02*
X192405000Y-127499000D01*
X182487500Y-123686500D02*
X181545500Y-123686500D01*
X183615000Y-124814000D02*
X182487500Y-123686500D01*
X191760000Y-124704000D02*
X190627000Y-124704000D01*
X183896000Y-124587000D02*
X190510000Y-124587000D01*
X194538000Y-128655000D02*
X194060000Y-128655000D01*
X182595500Y-123286500D02*
X183896000Y-124587000D01*
X190510000Y-124587000D02*
X190627000Y-124704000D01*
X194060000Y-128655000D02*
X192659000Y-127254000D01*
X192659000Y-125603000D02*
X191760000Y-124704000D01*
X181545500Y-123286500D02*
X182595500Y-123286500D01*
X192659000Y-127254000D02*
X192659000Y-125603000D01*
X192151000Y-123317000D02*
X192024000Y-123317000D01*
X192024000Y-123317000D02*
X189230000Y-123317000D01*
X194061000Y-128155000D02*
X193040000Y-127134000D01*
X195077500Y-118110000D02*
X194921644Y-118110000D01*
X193040000Y-124333000D02*
X192024000Y-123317000D01*
X188214000Y-124333000D02*
X184023000Y-124333000D01*
X193421000Y-119610644D02*
X193421000Y-122047000D01*
X182576500Y-122886500D02*
X181545500Y-122886500D01*
X193040000Y-127134000D02*
X193040000Y-124333000D01*
X193421000Y-122047000D02*
X192151000Y-123317000D01*
X189230000Y-123317000D02*
X188214000Y-124333000D01*
X194538000Y-128155000D02*
X194061000Y-128155000D01*
X184023000Y-124333000D02*
X182576500Y-122886500D01*
X194921644Y-118110000D02*
X193421000Y-119610644D01*
X169672000Y-137160000D02*
X167767000Y-137160000D01*
X171704000Y-135128000D02*
X169672000Y-137160000D01*
X176708000Y-129108000D02*
X176708000Y-128524000D01*
X167767000Y-137160000D02*
X167127500Y-137799500D01*
X171704000Y-134874000D02*
X171704000Y-135128000D01*
X171704000Y-134112000D02*
X176708000Y-129108000D01*
X171704000Y-134874000D02*
X171704000Y-134112000D01*
X167127500Y-137799500D02*
X167127500Y-138607500D01*
X166627500Y-137410500D02*
X166627500Y-138607500D01*
X176308000Y-129000000D02*
X176308000Y-128524000D01*
X172720000Y-132588000D02*
X176308000Y-129000000D01*
X171450000Y-132588000D02*
X172720000Y-132588000D01*
X169164000Y-134874000D02*
X171450000Y-132588000D01*
X169164000Y-134874000D02*
X166627500Y-137410500D01*
X175908000Y-128863435D02*
X175908000Y-128524000D01*
X166127500Y-137148500D02*
X166127500Y-138607500D01*
X172691435Y-132080000D02*
X175908000Y-128863435D01*
X166624000Y-136652000D02*
X166127500Y-137148500D01*
X166624000Y-134874000D02*
X166624000Y-136652000D01*
X166624000Y-134874000D02*
X169418000Y-132080000D01*
X169418000Y-132080000D02*
X172691435Y-132080000D01*
X164084000Y-135636000D02*
X165627500Y-137179500D01*
X167513000Y-131445000D02*
X172587000Y-131445000D01*
X164084000Y-134874000D02*
X164084000Y-135636000D01*
X175387000Y-128524000D02*
X175508000Y-128524000D01*
X164084000Y-134874000D02*
X167513000Y-131445000D01*
X172587000Y-131445000D02*
X175508000Y-128524000D01*
X165627500Y-137179500D02*
X165627500Y-138607500D01*
X190958000Y-132655000D02*
X190627000Y-132324000D01*
X184023000Y-128143000D02*
X187833000Y-128143000D01*
X188849000Y-131699000D02*
X189474000Y-132324000D01*
X182366500Y-126486500D02*
X184023000Y-128143000D01*
X189474000Y-132324000D02*
X190627000Y-132324000D01*
X188849000Y-129159000D02*
X188849000Y-131699000D01*
X187833000Y-128143000D02*
X188849000Y-129159000D01*
X181545500Y-126486500D02*
X182366500Y-126486500D01*
X194538000Y-132655000D02*
X190958000Y-132655000D01*
X193377000Y-131655000D02*
X191506000Y-129784000D01*
X186690000Y-126111000D02*
X190363000Y-129784000D01*
X190363000Y-129784000D02*
X190627000Y-129784000D01*
X194538000Y-131655000D02*
X193377000Y-131655000D01*
X191506000Y-129784000D02*
X190627000Y-129784000D01*
X181545500Y-125686500D02*
X181589000Y-125730000D01*
X182880000Y-126111000D02*
X186690000Y-126111000D01*
X182455500Y-125686500D02*
X182880000Y-126111000D01*
X181545500Y-125686500D02*
X182455500Y-125686500D01*
X194538000Y-131155000D02*
X193766000Y-131155000D01*
X182442883Y-125286500D02*
X181545500Y-125286500D01*
X189738000Y-128651000D02*
X186917000Y-125830000D01*
X191262000Y-128651000D02*
X189738000Y-128651000D01*
X182986383Y-125830000D02*
X182442883Y-125286500D01*
X193766000Y-131155000D02*
X191262000Y-128651000D01*
X186917000Y-125830000D02*
X182986383Y-125830000D01*
X187198000Y-125603000D02*
X189992000Y-128397000D01*
X193647000Y-130655000D02*
X194538000Y-130655000D01*
X182363909Y-124886500D02*
X183080409Y-125603000D01*
X183080409Y-125603000D02*
X187198000Y-125603000D01*
X181545500Y-124886500D02*
X182363909Y-124886500D01*
X189992000Y-128397000D02*
X191389000Y-128397000D01*
X191389000Y-128397000D02*
X193647000Y-130655000D01*
X182585474Y-124486500D02*
X183447974Y-125349000D01*
X181545500Y-124486500D02*
X182585474Y-124486500D01*
X194538000Y-130155000D02*
X193538000Y-130155000D01*
X193538000Y-130155000D02*
X190627000Y-127244000D01*
X183447974Y-125349000D02*
X187579000Y-125349000D01*
X187579000Y-125349000D02*
X189474000Y-127244000D01*
X189474000Y-127244000D02*
X190627000Y-127244000D01*
X185729612Y-102108000D02*
X191128000Y-102108000D01*
X185703112Y-102134500D02*
X185729612Y-102108000D01*
X185471000Y-102134500D02*
X185703112Y-102134500D01*
X191128000Y-102108000D02*
X191766000Y-102746000D01*
X185259500Y-102346000D02*
X185471000Y-102134500D01*
X191766000Y-102746000D02*
X191766000Y-104652000D01*
X177736000Y-100774000D02*
X181906500Y-100774000D01*
X181906500Y-100774000D02*
X182047000Y-100633500D01*
X185259500Y-103346000D02*
X186487933Y-103346000D01*
X195830000Y-104652000D02*
X195830000Y-102746000D01*
X186487933Y-103346000D02*
X188357433Y-105215500D01*
X195266500Y-105215500D02*
X195830000Y-104652000D01*
X188357433Y-105215500D02*
X195266500Y-105215500D01*
X185259500Y-103846000D02*
X186950500Y-105537000D01*
X186950500Y-105537000D02*
X196977000Y-105537000D01*
X197862000Y-104652000D02*
X197862000Y-102937000D01*
X196977000Y-105537000D02*
X197862000Y-104652000D01*
X192898000Y-101846000D02*
X193798000Y-102746000D01*
X185259500Y-101846000D02*
X192898000Y-101846000D01*
X193798000Y-102746000D02*
X193798000Y-104652000D01*
X168368000Y-107188000D02*
X164118000Y-107188000D01*
X171006000Y-106934000D02*
X170752000Y-107188000D01*
X170752000Y-107188000D02*
X168368000Y-107188000D01*
X172350000Y-118491000D02*
X163576000Y-118491000D01*
X163913000Y-113665000D02*
X164167000Y-113411000D01*
X163576000Y-118491000D02*
X162052000Y-116967000D01*
X165691000Y-111887000D02*
X164167000Y-113411000D01*
X162052000Y-116967000D02*
X162052000Y-114300000D01*
X175508000Y-121649000D02*
X172350000Y-118491000D01*
X172656000Y-106934000D02*
X172720000Y-106998000D01*
X162687000Y-113665000D02*
X163913000Y-113665000D01*
X169926000Y-111887000D02*
X165691000Y-111887000D01*
X172720000Y-106998000D02*
X172720000Y-109093000D01*
X162052000Y-114300000D02*
X162687000Y-113665000D01*
X172720000Y-109093000D02*
X169926000Y-111887000D01*
X154072000Y-105664000D02*
X154072000Y-103886000D01*
X152012000Y-107724000D02*
X154072000Y-105664000D01*
X151916500Y-107724000D02*
X152012000Y-107724000D01*
X150432000Y-105283000D02*
X151229000Y-106080000D01*
X151229000Y-106080000D02*
X151229000Y-107036500D01*
X144546000Y-109728000D02*
X147037500Y-109728000D01*
X147037500Y-109728000D02*
X147041500Y-109724000D01*
X180467000Y-118110000D02*
X180467000Y-115633000D01*
X179108000Y-121649000D02*
X179108000Y-119469000D01*
X179108000Y-119469000D02*
X180467000Y-118110000D01*
X181102388Y-103346000D02*
X181334500Y-103346000D01*
X180467000Y-113983000D02*
X180467000Y-103981388D01*
X180467000Y-103981388D02*
X181102388Y-103346000D01*
X179508000Y-120212000D02*
X182118000Y-117602000D01*
X179508000Y-121649000D02*
X179508000Y-120212000D01*
X182118000Y-117602000D02*
X182118000Y-115633000D01*
X179578000Y-104370388D02*
X179578000Y-114300000D01*
X179578000Y-114300000D02*
X180086000Y-114808000D01*
X181102388Y-102846000D02*
X179578000Y-104370388D01*
X181356000Y-114808000D02*
X182118000Y-114046000D01*
X180086000Y-114808000D02*
X181356000Y-114808000D01*
X181334500Y-102846000D02*
X181102388Y-102846000D01*
X182118000Y-114046000D02*
X182118000Y-113983000D01*
X189738000Y-121983000D02*
X189675000Y-121920000D01*
X189741000Y-121986000D02*
X189738000Y-121983000D01*
D52*
X189675000Y-118741500D02*
X189675000Y-121920000D01*
D51*
X189675000Y-121920000D02*
X185229000Y-121920000D01*
D52*
X190058000Y-118358500D02*
X189675000Y-118741500D01*
D51*
X177508000Y-128863435D02*
X176276000Y-130095435D01*
X177508000Y-128524000D02*
X177508000Y-128863435D01*
X176276000Y-130095435D02*
X176276000Y-131001000D01*
X179908000Y-128863435D02*
X179908000Y-128524000D01*
X187486000Y-137287000D02*
X187486000Y-131352000D01*
X185547000Y-129413000D02*
X180457565Y-129413000D01*
X186690000Y-130556000D02*
X185547000Y-129413000D01*
X187486000Y-131352000D02*
X186690000Y-130556000D01*
X180457565Y-129413000D02*
X179908000Y-128863435D01*
X187486000Y-137287000D02*
X191736000Y-137287000D01*
X155194000Y-111633000D02*
X153285000Y-109724000D01*
X180673000Y-102346000D02*
X177355000Y-105664000D01*
X177355000Y-105664000D02*
X163576000Y-105664000D01*
X162433000Y-109093000D02*
X159893000Y-111633000D01*
X153285000Y-109724000D02*
X151916500Y-109724000D01*
X159893000Y-111633000D02*
X155194000Y-111633000D01*
X181334500Y-102346000D02*
X180673000Y-102346000D01*
X163576000Y-105664000D02*
X162433000Y-106807000D01*
X162433000Y-106807000D02*
X162433000Y-109093000D01*
X153674000Y-109224000D02*
X151916500Y-109224000D01*
X159766000Y-110871000D02*
X155321000Y-110871000D01*
X162179000Y-104902000D02*
X160655000Y-106426000D01*
X177355000Y-104902000D02*
X162179000Y-104902000D01*
X180411000Y-101846000D02*
X177355000Y-104902000D01*
X160655000Y-109982000D02*
X159766000Y-110871000D01*
X181334500Y-101846000D02*
X180411000Y-101846000D01*
X155321000Y-110871000D02*
X153674000Y-109224000D01*
X160655000Y-106426000D02*
X160655000Y-109982000D01*
X162052000Y-134874000D02*
X165127500Y-137949500D01*
X172085000Y-130937000D02*
X174670500Y-128351500D01*
X165127500Y-137949500D02*
X165127500Y-138607500D01*
X161544000Y-134874000D02*
X162052000Y-134874000D01*
X165481000Y-130937000D02*
X172085000Y-130937000D01*
X174670500Y-128351500D02*
X174670500Y-127686500D01*
X161544000Y-134874000D02*
X165481000Y-130937000D01*
X171958000Y-114681000D02*
X171367000Y-114681000D01*
X177508000Y-121649000D02*
X177508000Y-120231000D01*
X177508000Y-120231000D02*
X171958000Y-114681000D01*
X177108000Y-120339000D02*
X172720000Y-115951000D01*
X172720000Y-115951000D02*
X171367000Y-115951000D01*
X177108000Y-121649000D02*
X177108000Y-120339000D01*
X172593000Y-116459000D02*
X170434000Y-116459000D01*
X176708000Y-120574000D02*
X172593000Y-116459000D01*
X168656000Y-114681000D02*
X164167000Y-114681000D01*
X176708000Y-121649000D02*
X176708000Y-120574000D01*
X170434000Y-116459000D02*
X168656000Y-114681000D01*
X164167000Y-115951000D02*
X164973500Y-116757500D01*
X164973500Y-116757500D02*
X172146856Y-116757500D01*
X176308000Y-120918644D02*
X176308000Y-121649000D01*
X172146856Y-116757500D02*
X176308000Y-120918644D01*
X175908000Y-121649000D02*
X175908000Y-121309565D01*
X175908000Y-121309565D02*
X171819435Y-117221000D01*
X171819435Y-117221000D02*
X171367000Y-117221000D01*
X196215000Y-115316000D02*
X196215000Y-117922500D01*
X196474000Y-115057000D02*
X196215000Y-115316000D01*
X196215000Y-117922500D02*
X197352500Y-119060000D01*
X196474000Y-112649000D02*
X196474000Y-115057000D01*
X184654000Y-106543000D02*
X184654000Y-106295000D01*
X184654000Y-106295000D02*
X183547000Y-105188000D01*
X183547000Y-105188000D02*
X183547000Y-104558500D01*
X185259500Y-102846000D02*
X186977000Y-102846000D01*
X186977000Y-102846000D02*
X187131000Y-103000000D01*
X139700000Y-138875000D02*
X140081000Y-138875000D01*
X140081000Y-138875000D02*
X141605000Y-140399000D01*
X139700000Y-137094000D02*
X139700000Y-138875000D01*
M02*
