%TF.GenerationSoftware,KiCad,Pcbnew,7.0.5*%
%TF.CreationDate,2023-08-10T16:58:01+02:00*%
%TF.ProjectId,proto_pico,70726f74-6f5f-4706-9963-6f2e6b696361,rev?*%
%TF.SameCoordinates,Original*%
%TF.FileFunction,Drillmap*%
%TF.FilePolarity,Positive*%
%FSLAX45Y45*%
G04 Gerber Fmt 4.5, Leading zero omitted, Abs format (unit mm)*
G04 Created by KiCad (PCBNEW 7.0.5) date 2023-08-10 16:58:01*
%MOMM*%
%LPD*%
G01*
G04 APERTURE LIST*
%ADD10C,0.200000*%
%ADD11C,0.065000*%
G04 APERTURE END LIST*
D10*
X13693000Y-8628500D02*
X19900900Y-8628500D01*
X19900900Y-15354300D01*
X13693000Y-15354300D01*
X13693000Y-8628500D01*
D11*
X18217500Y-9602900D02*
X18282500Y-9667900D01*
X18282500Y-9602900D02*
X18217500Y-9667900D01*
D10*
X18265000Y-9602900D02*
X18235000Y-9602900D01*
X18235000Y-9602900D02*
G75*
G03*
X18235000Y-9667900I0J-32500D01*
G01*
X18235000Y-9667900D02*
X18265000Y-9667900D01*
X18265000Y-9667900D02*
G75*
G03*
X18265000Y-9602900I0J32500D01*
G01*
D11*
X18937500Y-9602900D02*
X19002500Y-9667900D01*
X19002500Y-9602900D02*
X18937500Y-9667900D01*
D10*
X13943777Y-15675784D02*
X13943777Y-15475784D01*
X13943777Y-15475784D02*
X13991396Y-15475784D01*
X13991396Y-15475784D02*
X14019967Y-15485308D01*
X14019967Y-15485308D02*
X14039015Y-15504355D01*
X14039015Y-15504355D02*
X14048539Y-15523403D01*
X14048539Y-15523403D02*
X14058062Y-15561498D01*
X14058062Y-15561498D02*
X14058062Y-15590069D01*
X14058062Y-15590069D02*
X14048539Y-15628165D01*
X14048539Y-15628165D02*
X14039015Y-15647212D01*
X14039015Y-15647212D02*
X14019967Y-15666260D01*
X14019967Y-15666260D02*
X13991396Y-15675784D01*
X13991396Y-15675784D02*
X13943777Y-15675784D01*
X14143777Y-15675784D02*
X14143777Y-15542450D01*
X14143777Y-15580546D02*
X14153301Y-15561498D01*
X14153301Y-15561498D02*
X14162824Y-15551974D01*
X14162824Y-15551974D02*
X14181872Y-15542450D01*
X14181872Y-15542450D02*
X14200920Y-15542450D01*
X14267586Y-15675784D02*
X14267586Y-15542450D01*
X14267586Y-15475784D02*
X14258062Y-15485308D01*
X14258062Y-15485308D02*
X14267586Y-15494831D01*
X14267586Y-15494831D02*
X14277110Y-15485308D01*
X14277110Y-15485308D02*
X14267586Y-15475784D01*
X14267586Y-15475784D02*
X14267586Y-15494831D01*
X14391396Y-15675784D02*
X14372348Y-15666260D01*
X14372348Y-15666260D02*
X14362824Y-15647212D01*
X14362824Y-15647212D02*
X14362824Y-15475784D01*
X14496158Y-15675784D02*
X14477110Y-15666260D01*
X14477110Y-15666260D02*
X14467586Y-15647212D01*
X14467586Y-15647212D02*
X14467586Y-15475784D01*
X14724729Y-15675784D02*
X14724729Y-15475784D01*
X14724729Y-15475784D02*
X14791396Y-15618641D01*
X14791396Y-15618641D02*
X14858062Y-15475784D01*
X14858062Y-15475784D02*
X14858062Y-15675784D01*
X15039015Y-15675784D02*
X15039015Y-15571022D01*
X15039015Y-15571022D02*
X15029491Y-15551974D01*
X15029491Y-15551974D02*
X15010443Y-15542450D01*
X15010443Y-15542450D02*
X14972348Y-15542450D01*
X14972348Y-15542450D02*
X14953301Y-15551974D01*
X15039015Y-15666260D02*
X15019967Y-15675784D01*
X15019967Y-15675784D02*
X14972348Y-15675784D01*
X14972348Y-15675784D02*
X14953301Y-15666260D01*
X14953301Y-15666260D02*
X14943777Y-15647212D01*
X14943777Y-15647212D02*
X14943777Y-15628165D01*
X14943777Y-15628165D02*
X14953301Y-15609117D01*
X14953301Y-15609117D02*
X14972348Y-15599593D01*
X14972348Y-15599593D02*
X15019967Y-15599593D01*
X15019967Y-15599593D02*
X15039015Y-15590069D01*
X15134253Y-15542450D02*
X15134253Y-15742450D01*
X15134253Y-15551974D02*
X15153301Y-15542450D01*
X15153301Y-15542450D02*
X15191396Y-15542450D01*
X15191396Y-15542450D02*
X15210443Y-15551974D01*
X15210443Y-15551974D02*
X15219967Y-15561498D01*
X15219967Y-15561498D02*
X15229491Y-15580546D01*
X15229491Y-15580546D02*
X15229491Y-15637688D01*
X15229491Y-15637688D02*
X15219967Y-15656736D01*
X15219967Y-15656736D02*
X15210443Y-15666260D01*
X15210443Y-15666260D02*
X15191396Y-15675784D01*
X15191396Y-15675784D02*
X15153301Y-15675784D01*
X15153301Y-15675784D02*
X15134253Y-15666260D01*
X15315205Y-15656736D02*
X15324729Y-15666260D01*
X15324729Y-15666260D02*
X15315205Y-15675784D01*
X15315205Y-15675784D02*
X15305682Y-15666260D01*
X15305682Y-15666260D02*
X15315205Y-15656736D01*
X15315205Y-15656736D02*
X15315205Y-15675784D01*
X15315205Y-15551974D02*
X15324729Y-15561498D01*
X15324729Y-15561498D02*
X15315205Y-15571022D01*
X15315205Y-15571022D02*
X15305682Y-15561498D01*
X15305682Y-15561498D02*
X15315205Y-15551974D01*
X15315205Y-15551974D02*
X15315205Y-15571022D01*
D11*
X13618000Y-15971800D02*
X13683000Y-16036800D01*
X13683000Y-15971800D02*
X13618000Y-16036800D01*
D10*
X13981872Y-15895784D02*
X14000920Y-15895784D01*
X14000920Y-15895784D02*
X14019967Y-15905308D01*
X14019967Y-15905308D02*
X14029491Y-15914831D01*
X14029491Y-15914831D02*
X14039015Y-15933879D01*
X14039015Y-15933879D02*
X14048539Y-15971974D01*
X14048539Y-15971974D02*
X14048539Y-16019593D01*
X14048539Y-16019593D02*
X14039015Y-16057688D01*
X14039015Y-16057688D02*
X14029491Y-16076736D01*
X14029491Y-16076736D02*
X14019967Y-16086260D01*
X14019967Y-16086260D02*
X14000920Y-16095784D01*
X14000920Y-16095784D02*
X13981872Y-16095784D01*
X13981872Y-16095784D02*
X13962824Y-16086260D01*
X13962824Y-16086260D02*
X13953301Y-16076736D01*
X13953301Y-16076736D02*
X13943777Y-16057688D01*
X13943777Y-16057688D02*
X13934253Y-16019593D01*
X13934253Y-16019593D02*
X13934253Y-15971974D01*
X13934253Y-15971974D02*
X13943777Y-15933879D01*
X13943777Y-15933879D02*
X13953301Y-15914831D01*
X13953301Y-15914831D02*
X13962824Y-15905308D01*
X13962824Y-15905308D02*
X13981872Y-15895784D01*
X14134253Y-16076736D02*
X14143777Y-16086260D01*
X14143777Y-16086260D02*
X14134253Y-16095784D01*
X14134253Y-16095784D02*
X14124729Y-16086260D01*
X14124729Y-16086260D02*
X14134253Y-16076736D01*
X14134253Y-16076736D02*
X14134253Y-16095784D01*
X14315205Y-15895784D02*
X14277110Y-15895784D01*
X14277110Y-15895784D02*
X14258062Y-15905308D01*
X14258062Y-15905308D02*
X14248539Y-15914831D01*
X14248539Y-15914831D02*
X14229491Y-15943403D01*
X14229491Y-15943403D02*
X14219967Y-15981498D01*
X14219967Y-15981498D02*
X14219967Y-16057688D01*
X14219967Y-16057688D02*
X14229491Y-16076736D01*
X14229491Y-16076736D02*
X14239015Y-16086260D01*
X14239015Y-16086260D02*
X14258062Y-16095784D01*
X14258062Y-16095784D02*
X14296158Y-16095784D01*
X14296158Y-16095784D02*
X14315205Y-16086260D01*
X14315205Y-16086260D02*
X14324729Y-16076736D01*
X14324729Y-16076736D02*
X14334253Y-16057688D01*
X14334253Y-16057688D02*
X14334253Y-16010069D01*
X14334253Y-16010069D02*
X14324729Y-15991022D01*
X14324729Y-15991022D02*
X14315205Y-15981498D01*
X14315205Y-15981498D02*
X14296158Y-15971974D01*
X14296158Y-15971974D02*
X14258062Y-15971974D01*
X14258062Y-15971974D02*
X14239015Y-15981498D01*
X14239015Y-15981498D02*
X14229491Y-15991022D01*
X14229491Y-15991022D02*
X14219967Y-16010069D01*
X14515205Y-15895784D02*
X14419967Y-15895784D01*
X14419967Y-15895784D02*
X14410443Y-15991022D01*
X14410443Y-15991022D02*
X14419967Y-15981498D01*
X14419967Y-15981498D02*
X14439015Y-15971974D01*
X14439015Y-15971974D02*
X14486634Y-15971974D01*
X14486634Y-15971974D02*
X14505682Y-15981498D01*
X14505682Y-15981498D02*
X14515205Y-15991022D01*
X14515205Y-15991022D02*
X14524729Y-16010069D01*
X14524729Y-16010069D02*
X14524729Y-16057688D01*
X14524729Y-16057688D02*
X14515205Y-16076736D01*
X14515205Y-16076736D02*
X14505682Y-16086260D01*
X14505682Y-16086260D02*
X14486634Y-16095784D01*
X14486634Y-16095784D02*
X14439015Y-16095784D01*
X14439015Y-16095784D02*
X14419967Y-16086260D01*
X14419967Y-16086260D02*
X14410443Y-16076736D01*
X14648539Y-15895784D02*
X14667586Y-15895784D01*
X14667586Y-15895784D02*
X14686634Y-15905308D01*
X14686634Y-15905308D02*
X14696158Y-15914831D01*
X14696158Y-15914831D02*
X14705682Y-15933879D01*
X14705682Y-15933879D02*
X14715205Y-15971974D01*
X14715205Y-15971974D02*
X14715205Y-16019593D01*
X14715205Y-16019593D02*
X14705682Y-16057688D01*
X14705682Y-16057688D02*
X14696158Y-16076736D01*
X14696158Y-16076736D02*
X14686634Y-16086260D01*
X14686634Y-16086260D02*
X14667586Y-16095784D01*
X14667586Y-16095784D02*
X14648539Y-16095784D01*
X14648539Y-16095784D02*
X14629491Y-16086260D01*
X14629491Y-16086260D02*
X14619967Y-16076736D01*
X14619967Y-16076736D02*
X14610443Y-16057688D01*
X14610443Y-16057688D02*
X14600920Y-16019593D01*
X14600920Y-16019593D02*
X14600920Y-15971974D01*
X14600920Y-15971974D02*
X14610443Y-15933879D01*
X14610443Y-15933879D02*
X14619967Y-15914831D01*
X14619967Y-15914831D02*
X14629491Y-15905308D01*
X14629491Y-15905308D02*
X14648539Y-15895784D01*
X14800920Y-16095784D02*
X14800920Y-15962450D01*
X14800920Y-15981498D02*
X14810443Y-15971974D01*
X14810443Y-15971974D02*
X14829491Y-15962450D01*
X14829491Y-15962450D02*
X14858063Y-15962450D01*
X14858063Y-15962450D02*
X14877110Y-15971974D01*
X14877110Y-15971974D02*
X14886634Y-15991022D01*
X14886634Y-15991022D02*
X14886634Y-16095784D01*
X14886634Y-15991022D02*
X14896158Y-15971974D01*
X14896158Y-15971974D02*
X14915205Y-15962450D01*
X14915205Y-15962450D02*
X14943777Y-15962450D01*
X14943777Y-15962450D02*
X14962824Y-15971974D01*
X14962824Y-15971974D02*
X14972348Y-15991022D01*
X14972348Y-15991022D02*
X14972348Y-16095784D01*
X15067586Y-16095784D02*
X15067586Y-15962450D01*
X15067586Y-15981498D02*
X15077110Y-15971974D01*
X15077110Y-15971974D02*
X15096158Y-15962450D01*
X15096158Y-15962450D02*
X15124729Y-15962450D01*
X15124729Y-15962450D02*
X15143777Y-15971974D01*
X15143777Y-15971974D02*
X15153301Y-15991022D01*
X15153301Y-15991022D02*
X15153301Y-16095784D01*
X15153301Y-15991022D02*
X15162824Y-15971974D01*
X15162824Y-15971974D02*
X15181872Y-15962450D01*
X15181872Y-15962450D02*
X15210443Y-15962450D01*
X15210443Y-15962450D02*
X15229491Y-15971974D01*
X15229491Y-15971974D02*
X15239015Y-15991022D01*
X15239015Y-15991022D02*
X15239015Y-16095784D01*
X15629491Y-15886260D02*
X15458063Y-16143403D01*
X15886634Y-15895784D02*
X15905682Y-15895784D01*
X15905682Y-15895784D02*
X15924729Y-15905308D01*
X15924729Y-15905308D02*
X15934253Y-15914831D01*
X15934253Y-15914831D02*
X15943777Y-15933879D01*
X15943777Y-15933879D02*
X15953301Y-15971974D01*
X15953301Y-15971974D02*
X15953301Y-16019593D01*
X15953301Y-16019593D02*
X15943777Y-16057688D01*
X15943777Y-16057688D02*
X15934253Y-16076736D01*
X15934253Y-16076736D02*
X15924729Y-16086260D01*
X15924729Y-16086260D02*
X15905682Y-16095784D01*
X15905682Y-16095784D02*
X15886634Y-16095784D01*
X15886634Y-16095784D02*
X15867586Y-16086260D01*
X15867586Y-16086260D02*
X15858063Y-16076736D01*
X15858063Y-16076736D02*
X15848539Y-16057688D01*
X15848539Y-16057688D02*
X15839015Y-16019593D01*
X15839015Y-16019593D02*
X15839015Y-15971974D01*
X15839015Y-15971974D02*
X15848539Y-15933879D01*
X15848539Y-15933879D02*
X15858063Y-15914831D01*
X15858063Y-15914831D02*
X15867586Y-15905308D01*
X15867586Y-15905308D02*
X15886634Y-15895784D01*
X16039015Y-16076736D02*
X16048539Y-16086260D01*
X16048539Y-16086260D02*
X16039015Y-16095784D01*
X16039015Y-16095784D02*
X16029491Y-16086260D01*
X16029491Y-16086260D02*
X16039015Y-16076736D01*
X16039015Y-16076736D02*
X16039015Y-16095784D01*
X16172348Y-15895784D02*
X16191396Y-15895784D01*
X16191396Y-15895784D02*
X16210444Y-15905308D01*
X16210444Y-15905308D02*
X16219967Y-15914831D01*
X16219967Y-15914831D02*
X16229491Y-15933879D01*
X16229491Y-15933879D02*
X16239015Y-15971974D01*
X16239015Y-15971974D02*
X16239015Y-16019593D01*
X16239015Y-16019593D02*
X16229491Y-16057688D01*
X16229491Y-16057688D02*
X16219967Y-16076736D01*
X16219967Y-16076736D02*
X16210444Y-16086260D01*
X16210444Y-16086260D02*
X16191396Y-16095784D01*
X16191396Y-16095784D02*
X16172348Y-16095784D01*
X16172348Y-16095784D02*
X16153301Y-16086260D01*
X16153301Y-16086260D02*
X16143777Y-16076736D01*
X16143777Y-16076736D02*
X16134253Y-16057688D01*
X16134253Y-16057688D02*
X16124729Y-16019593D01*
X16124729Y-16019593D02*
X16124729Y-15971974D01*
X16124729Y-15971974D02*
X16134253Y-15933879D01*
X16134253Y-15933879D02*
X16143777Y-15914831D01*
X16143777Y-15914831D02*
X16153301Y-15905308D01*
X16153301Y-15905308D02*
X16172348Y-15895784D01*
X16315206Y-15914831D02*
X16324729Y-15905308D01*
X16324729Y-15905308D02*
X16343777Y-15895784D01*
X16343777Y-15895784D02*
X16391396Y-15895784D01*
X16391396Y-15895784D02*
X16410444Y-15905308D01*
X16410444Y-15905308D02*
X16419967Y-15914831D01*
X16419967Y-15914831D02*
X16429491Y-15933879D01*
X16429491Y-15933879D02*
X16429491Y-15952927D01*
X16429491Y-15952927D02*
X16419967Y-15981498D01*
X16419967Y-15981498D02*
X16305682Y-16095784D01*
X16305682Y-16095784D02*
X16429491Y-16095784D01*
X16610444Y-15895784D02*
X16515206Y-15895784D01*
X16515206Y-15895784D02*
X16505682Y-15991022D01*
X16505682Y-15991022D02*
X16515206Y-15981498D01*
X16515206Y-15981498D02*
X16534253Y-15971974D01*
X16534253Y-15971974D02*
X16581872Y-15971974D01*
X16581872Y-15971974D02*
X16600920Y-15981498D01*
X16600920Y-15981498D02*
X16610444Y-15991022D01*
X16610444Y-15991022D02*
X16619967Y-16010069D01*
X16619967Y-16010069D02*
X16619967Y-16057688D01*
X16619967Y-16057688D02*
X16610444Y-16076736D01*
X16610444Y-16076736D02*
X16600920Y-16086260D01*
X16600920Y-16086260D02*
X16581872Y-16095784D01*
X16581872Y-16095784D02*
X16534253Y-16095784D01*
X16534253Y-16095784D02*
X16515206Y-16086260D01*
X16515206Y-16086260D02*
X16505682Y-16076736D01*
X16791396Y-15895784D02*
X16753301Y-15895784D01*
X16753301Y-15895784D02*
X16734253Y-15905308D01*
X16734253Y-15905308D02*
X16724729Y-15914831D01*
X16724729Y-15914831D02*
X16705682Y-15943403D01*
X16705682Y-15943403D02*
X16696158Y-15981498D01*
X16696158Y-15981498D02*
X16696158Y-16057688D01*
X16696158Y-16057688D02*
X16705682Y-16076736D01*
X16705682Y-16076736D02*
X16715206Y-16086260D01*
X16715206Y-16086260D02*
X16734253Y-16095784D01*
X16734253Y-16095784D02*
X16772348Y-16095784D01*
X16772348Y-16095784D02*
X16791396Y-16086260D01*
X16791396Y-16086260D02*
X16800920Y-16076736D01*
X16800920Y-16076736D02*
X16810444Y-16057688D01*
X16810444Y-16057688D02*
X16810444Y-16010069D01*
X16810444Y-16010069D02*
X16800920Y-15991022D01*
X16800920Y-15991022D02*
X16791396Y-15981498D01*
X16791396Y-15981498D02*
X16772348Y-15971974D01*
X16772348Y-15971974D02*
X16734253Y-15971974D01*
X16734253Y-15971974D02*
X16715206Y-15981498D01*
X16715206Y-15981498D02*
X16705682Y-15991022D01*
X16705682Y-15991022D02*
X16696158Y-16010069D01*
X16886634Y-15895784D02*
X16886634Y-15933879D01*
X16962825Y-15895784D02*
X16962825Y-15933879D01*
X17258063Y-16171974D02*
X17248539Y-16162450D01*
X17248539Y-16162450D02*
X17229491Y-16133879D01*
X17229491Y-16133879D02*
X17219968Y-16114831D01*
X17219968Y-16114831D02*
X17210444Y-16086260D01*
X17210444Y-16086260D02*
X17200920Y-16038641D01*
X17200920Y-16038641D02*
X17200920Y-16000546D01*
X17200920Y-16000546D02*
X17210444Y-15952927D01*
X17210444Y-15952927D02*
X17219968Y-15924355D01*
X17219968Y-15924355D02*
X17229491Y-15905308D01*
X17229491Y-15905308D02*
X17248539Y-15876736D01*
X17248539Y-15876736D02*
X17258063Y-15867212D01*
X17439015Y-16095784D02*
X17324730Y-16095784D01*
X17381872Y-16095784D02*
X17381872Y-15895784D01*
X17381872Y-15895784D02*
X17362825Y-15924355D01*
X17362825Y-15924355D02*
X17343777Y-15943403D01*
X17343777Y-15943403D02*
X17324730Y-15952927D01*
X17677111Y-16095784D02*
X17677111Y-15895784D01*
X17762825Y-16095784D02*
X17762825Y-15991022D01*
X17762825Y-15991022D02*
X17753301Y-15971974D01*
X17753301Y-15971974D02*
X17734253Y-15962450D01*
X17734253Y-15962450D02*
X17705682Y-15962450D01*
X17705682Y-15962450D02*
X17686634Y-15971974D01*
X17686634Y-15971974D02*
X17677111Y-15981498D01*
X17886634Y-16095784D02*
X17867587Y-16086260D01*
X17867587Y-16086260D02*
X17858063Y-16076736D01*
X17858063Y-16076736D02*
X17848539Y-16057688D01*
X17848539Y-16057688D02*
X17848539Y-16000546D01*
X17848539Y-16000546D02*
X17858063Y-15981498D01*
X17858063Y-15981498D02*
X17867587Y-15971974D01*
X17867587Y-15971974D02*
X17886634Y-15962450D01*
X17886634Y-15962450D02*
X17915206Y-15962450D01*
X17915206Y-15962450D02*
X17934253Y-15971974D01*
X17934253Y-15971974D02*
X17943777Y-15981498D01*
X17943777Y-15981498D02*
X17953301Y-16000546D01*
X17953301Y-16000546D02*
X17953301Y-16057688D01*
X17953301Y-16057688D02*
X17943777Y-16076736D01*
X17943777Y-16076736D02*
X17934253Y-16086260D01*
X17934253Y-16086260D02*
X17915206Y-16095784D01*
X17915206Y-16095784D02*
X17886634Y-16095784D01*
X18067587Y-16095784D02*
X18048539Y-16086260D01*
X18048539Y-16086260D02*
X18039015Y-16067212D01*
X18039015Y-16067212D02*
X18039015Y-15895784D01*
X18219968Y-16086260D02*
X18200920Y-16095784D01*
X18200920Y-16095784D02*
X18162825Y-16095784D01*
X18162825Y-16095784D02*
X18143777Y-16086260D01*
X18143777Y-16086260D02*
X18134253Y-16067212D01*
X18134253Y-16067212D02*
X18134253Y-15991022D01*
X18134253Y-15991022D02*
X18143777Y-15971974D01*
X18143777Y-15971974D02*
X18162825Y-15962450D01*
X18162825Y-15962450D02*
X18200920Y-15962450D01*
X18200920Y-15962450D02*
X18219968Y-15971974D01*
X18219968Y-15971974D02*
X18229492Y-15991022D01*
X18229492Y-15991022D02*
X18229492Y-16010069D01*
X18229492Y-16010069D02*
X18134253Y-16029117D01*
X18305682Y-16086260D02*
X18324730Y-16095784D01*
X18324730Y-16095784D02*
X18362825Y-16095784D01*
X18362825Y-16095784D02*
X18381873Y-16086260D01*
X18381873Y-16086260D02*
X18391396Y-16067212D01*
X18391396Y-16067212D02*
X18391396Y-16057688D01*
X18391396Y-16057688D02*
X18381873Y-16038641D01*
X18381873Y-16038641D02*
X18362825Y-16029117D01*
X18362825Y-16029117D02*
X18334253Y-16029117D01*
X18334253Y-16029117D02*
X18315206Y-16019593D01*
X18315206Y-16019593D02*
X18305682Y-16000546D01*
X18305682Y-16000546D02*
X18305682Y-15991022D01*
X18305682Y-15991022D02*
X18315206Y-15971974D01*
X18315206Y-15971974D02*
X18334253Y-15962450D01*
X18334253Y-15962450D02*
X18362825Y-15962450D01*
X18362825Y-15962450D02*
X18381873Y-15971974D01*
X18629492Y-16019593D02*
X18781873Y-16019593D01*
X18705682Y-16095784D02*
X18705682Y-15943403D01*
X19134254Y-16095784D02*
X19019968Y-16095784D01*
X19077111Y-16095784D02*
X19077111Y-15895784D01*
X19077111Y-15895784D02*
X19058063Y-15924355D01*
X19058063Y-15924355D02*
X19039015Y-15943403D01*
X19039015Y-15943403D02*
X19019968Y-15952927D01*
X19362825Y-16086260D02*
X19381873Y-16095784D01*
X19381873Y-16095784D02*
X19419968Y-16095784D01*
X19419968Y-16095784D02*
X19439016Y-16086260D01*
X19439016Y-16086260D02*
X19448539Y-16067212D01*
X19448539Y-16067212D02*
X19448539Y-16057688D01*
X19448539Y-16057688D02*
X19439016Y-16038641D01*
X19439016Y-16038641D02*
X19419968Y-16029117D01*
X19419968Y-16029117D02*
X19391396Y-16029117D01*
X19391396Y-16029117D02*
X19372349Y-16019593D01*
X19372349Y-16019593D02*
X19362825Y-16000546D01*
X19362825Y-16000546D02*
X19362825Y-15991022D01*
X19362825Y-15991022D02*
X19372349Y-15971974D01*
X19372349Y-15971974D02*
X19391396Y-15962450D01*
X19391396Y-15962450D02*
X19419968Y-15962450D01*
X19419968Y-15962450D02*
X19439016Y-15971974D01*
X19562825Y-16095784D02*
X19543777Y-16086260D01*
X19543777Y-16086260D02*
X19534254Y-16067212D01*
X19534254Y-16067212D02*
X19534254Y-15895784D01*
X19667587Y-16095784D02*
X19648539Y-16086260D01*
X19648539Y-16086260D02*
X19639016Y-16076736D01*
X19639016Y-16076736D02*
X19629492Y-16057688D01*
X19629492Y-16057688D02*
X19629492Y-16000546D01*
X19629492Y-16000546D02*
X19639016Y-15981498D01*
X19639016Y-15981498D02*
X19648539Y-15971974D01*
X19648539Y-15971974D02*
X19667587Y-15962450D01*
X19667587Y-15962450D02*
X19696158Y-15962450D01*
X19696158Y-15962450D02*
X19715206Y-15971974D01*
X19715206Y-15971974D02*
X19724730Y-15981498D01*
X19724730Y-15981498D02*
X19734254Y-16000546D01*
X19734254Y-16000546D02*
X19734254Y-16057688D01*
X19734254Y-16057688D02*
X19724730Y-16076736D01*
X19724730Y-16076736D02*
X19715206Y-16086260D01*
X19715206Y-16086260D02*
X19696158Y-16095784D01*
X19696158Y-16095784D02*
X19667587Y-16095784D01*
X19791397Y-15962450D02*
X19867587Y-15962450D01*
X19819968Y-15895784D02*
X19819968Y-16067212D01*
X19819968Y-16067212D02*
X19829492Y-16086260D01*
X19829492Y-16086260D02*
X19848539Y-16095784D01*
X19848539Y-16095784D02*
X19867587Y-16095784D01*
X19915206Y-16171974D02*
X19924730Y-16162450D01*
X19924730Y-16162450D02*
X19943777Y-16133879D01*
X19943777Y-16133879D02*
X19953301Y-16114831D01*
X19953301Y-16114831D02*
X19962825Y-16086260D01*
X19962825Y-16086260D02*
X19972349Y-16038641D01*
X19972349Y-16038641D02*
X19972349Y-16000546D01*
X19972349Y-16000546D02*
X19962825Y-15952927D01*
X19962825Y-15952927D02*
X19953301Y-15924355D01*
X19953301Y-15924355D02*
X19943777Y-15905308D01*
X19943777Y-15905308D02*
X19924730Y-15876736D01*
X19924730Y-15876736D02*
X19915206Y-15867212D01*
X20277111Y-16171974D02*
X20267587Y-16162450D01*
X20267587Y-16162450D02*
X20248539Y-16133879D01*
X20248539Y-16133879D02*
X20239016Y-16114831D01*
X20239016Y-16114831D02*
X20229492Y-16086260D01*
X20229492Y-16086260D02*
X20219968Y-16038641D01*
X20219968Y-16038641D02*
X20219968Y-16000546D01*
X20219968Y-16000546D02*
X20229492Y-15952927D01*
X20229492Y-15952927D02*
X20239016Y-15924355D01*
X20239016Y-15924355D02*
X20248539Y-15905308D01*
X20248539Y-15905308D02*
X20267587Y-15876736D01*
X20267587Y-15876736D02*
X20277111Y-15867212D01*
X20353301Y-15962450D02*
X20353301Y-16095784D01*
X20353301Y-15981498D02*
X20362825Y-15971974D01*
X20362825Y-15971974D02*
X20381873Y-15962450D01*
X20381873Y-15962450D02*
X20410444Y-15962450D01*
X20410444Y-15962450D02*
X20429492Y-15971974D01*
X20429492Y-15971974D02*
X20439016Y-15991022D01*
X20439016Y-15991022D02*
X20439016Y-16095784D01*
X20562825Y-16095784D02*
X20543777Y-16086260D01*
X20543777Y-16086260D02*
X20534254Y-16076736D01*
X20534254Y-16076736D02*
X20524730Y-16057688D01*
X20524730Y-16057688D02*
X20524730Y-16000546D01*
X20524730Y-16000546D02*
X20534254Y-15981498D01*
X20534254Y-15981498D02*
X20543777Y-15971974D01*
X20543777Y-15971974D02*
X20562825Y-15962450D01*
X20562825Y-15962450D02*
X20591397Y-15962450D01*
X20591397Y-15962450D02*
X20610444Y-15971974D01*
X20610444Y-15971974D02*
X20619968Y-15981498D01*
X20619968Y-15981498D02*
X20629492Y-16000546D01*
X20629492Y-16000546D02*
X20629492Y-16057688D01*
X20629492Y-16057688D02*
X20619968Y-16076736D01*
X20619968Y-16076736D02*
X20610444Y-16086260D01*
X20610444Y-16086260D02*
X20591397Y-16095784D01*
X20591397Y-16095784D02*
X20562825Y-16095784D01*
X20686635Y-15962450D02*
X20762825Y-15962450D01*
X20715206Y-15895784D02*
X20715206Y-16067212D01*
X20715206Y-16067212D02*
X20724730Y-16086260D01*
X20724730Y-16086260D02*
X20743777Y-16095784D01*
X20743777Y-16095784D02*
X20762825Y-16095784D01*
X20981873Y-15962450D02*
X20981873Y-16162450D01*
X20981873Y-15971974D02*
X21000920Y-15962450D01*
X21000920Y-15962450D02*
X21039016Y-15962450D01*
X21039016Y-15962450D02*
X21058063Y-15971974D01*
X21058063Y-15971974D02*
X21067587Y-15981498D01*
X21067587Y-15981498D02*
X21077111Y-16000546D01*
X21077111Y-16000546D02*
X21077111Y-16057688D01*
X21077111Y-16057688D02*
X21067587Y-16076736D01*
X21067587Y-16076736D02*
X21058063Y-16086260D01*
X21058063Y-16086260D02*
X21039016Y-16095784D01*
X21039016Y-16095784D02*
X21000920Y-16095784D01*
X21000920Y-16095784D02*
X20981873Y-16086260D01*
X21191397Y-16095784D02*
X21172349Y-16086260D01*
X21172349Y-16086260D02*
X21162825Y-16067212D01*
X21162825Y-16067212D02*
X21162825Y-15895784D01*
X21353301Y-16095784D02*
X21353301Y-15991022D01*
X21353301Y-15991022D02*
X21343778Y-15971974D01*
X21343778Y-15971974D02*
X21324730Y-15962450D01*
X21324730Y-15962450D02*
X21286635Y-15962450D01*
X21286635Y-15962450D02*
X21267587Y-15971974D01*
X21353301Y-16086260D02*
X21334254Y-16095784D01*
X21334254Y-16095784D02*
X21286635Y-16095784D01*
X21286635Y-16095784D02*
X21267587Y-16086260D01*
X21267587Y-16086260D02*
X21258063Y-16067212D01*
X21258063Y-16067212D02*
X21258063Y-16048165D01*
X21258063Y-16048165D02*
X21267587Y-16029117D01*
X21267587Y-16029117D02*
X21286635Y-16019593D01*
X21286635Y-16019593D02*
X21334254Y-16019593D01*
X21334254Y-16019593D02*
X21353301Y-16010069D01*
X21419968Y-15962450D02*
X21496158Y-15962450D01*
X21448539Y-15895784D02*
X21448539Y-16067212D01*
X21448539Y-16067212D02*
X21458063Y-16086260D01*
X21458063Y-16086260D02*
X21477111Y-16095784D01*
X21477111Y-16095784D02*
X21496158Y-16095784D01*
X21639016Y-16086260D02*
X21619968Y-16095784D01*
X21619968Y-16095784D02*
X21581873Y-16095784D01*
X21581873Y-16095784D02*
X21562825Y-16086260D01*
X21562825Y-16086260D02*
X21553301Y-16067212D01*
X21553301Y-16067212D02*
X21553301Y-15991022D01*
X21553301Y-15991022D02*
X21562825Y-15971974D01*
X21562825Y-15971974D02*
X21581873Y-15962450D01*
X21581873Y-15962450D02*
X21619968Y-15962450D01*
X21619968Y-15962450D02*
X21639016Y-15971974D01*
X21639016Y-15971974D02*
X21648539Y-15991022D01*
X21648539Y-15991022D02*
X21648539Y-16010069D01*
X21648539Y-16010069D02*
X21553301Y-16029117D01*
X21819968Y-16095784D02*
X21819968Y-15895784D01*
X21819968Y-16086260D02*
X21800920Y-16095784D01*
X21800920Y-16095784D02*
X21762825Y-16095784D01*
X21762825Y-16095784D02*
X21743778Y-16086260D01*
X21743778Y-16086260D02*
X21734254Y-16076736D01*
X21734254Y-16076736D02*
X21724730Y-16057688D01*
X21724730Y-16057688D02*
X21724730Y-16000546D01*
X21724730Y-16000546D02*
X21734254Y-15981498D01*
X21734254Y-15981498D02*
X21743778Y-15971974D01*
X21743778Y-15971974D02*
X21762825Y-15962450D01*
X21762825Y-15962450D02*
X21800920Y-15962450D01*
X21800920Y-15962450D02*
X21819968Y-15971974D01*
X21896159Y-16171974D02*
X21905682Y-16162450D01*
X21905682Y-16162450D02*
X21924730Y-16133879D01*
X21924730Y-16133879D02*
X21934254Y-16114831D01*
X21934254Y-16114831D02*
X21943778Y-16086260D01*
X21943778Y-16086260D02*
X21953301Y-16038641D01*
X21953301Y-16038641D02*
X21953301Y-16000546D01*
X21953301Y-16000546D02*
X21943778Y-15952927D01*
X21943778Y-15952927D02*
X21934254Y-15924355D01*
X21934254Y-15924355D02*
X21924730Y-15905308D01*
X21924730Y-15905308D02*
X21905682Y-15876736D01*
X21905682Y-15876736D02*
X21896159Y-15867212D01*
M02*
