G04 #@! TF.GenerationSoftware,KiCad,Pcbnew,7.0.5*
G04 #@! TF.CreationDate,2023-08-10T16:57:38+02:00*
G04 #@! TF.ProjectId,proto_pico,70726f74-6f5f-4706-9963-6f2e6b696361,rev?*
G04 #@! TF.SameCoordinates,Original*
G04 #@! TF.FileFunction,Legend,Top*
G04 #@! TF.FilePolarity,Positive*
%FSLAX46Y46*%
G04 Gerber Fmt 4.6, Leading zero omitted, Abs format (unit mm)*
G04 Created by KiCad (PCBNEW 7.0.5) date 2023-08-10 16:57:38*
%MOMM*%
%LPD*%
G01*
G04 APERTURE LIST*
G04 Aperture macros list*
%AMRoundRect*
0 Rectangle with rounded corners*
0 $1 Rounding radius*
0 $2 $3 $4 $5 $6 $7 $8 $9 X,Y pos of 4 corners*
0 Add a 4 corners polygon primitive as box body*
4,1,4,$2,$3,$4,$5,$6,$7,$8,$9,$2,$3,0*
0 Add four circle primitives for the rounded corners*
1,1,$1+$1,$2,$3*
1,1,$1+$1,$4,$5*
1,1,$1+$1,$6,$7*
1,1,$1+$1,$8,$9*
0 Add four rect primitives between the rounded corners*
20,1,$1+$1,$2,$3,$4,$5,0*
20,1,$1+$1,$4,$5,$6,$7,0*
20,1,$1+$1,$6,$7,$8,$9,0*
20,1,$1+$1,$8,$9,$2,$3,0*%
G04 Aperture macros list end*
%ADD10C,0.150000*%
%ADD11C,0.100000*%
%ADD12C,0.120000*%
%ADD13C,0.304000*%
%ADD14RoundRect,0.225000X0.225000X0.250000X-0.225000X0.250000X-0.225000X-0.250000X0.225000X-0.250000X0*%
%ADD15R,1.700000X1.700000*%
%ADD16O,1.700000X1.700000*%
%ADD17RoundRect,0.225000X-0.225000X-0.250000X0.225000X-0.250000X0.225000X0.250000X-0.225000X0.250000X0*%
%ADD18RoundRect,0.200000X-0.200000X-0.275000X0.200000X-0.275000X0.200000X0.275000X-0.200000X0.275000X0*%
%ADD19RoundRect,0.218750X-0.256250X0.218750X-0.256250X-0.218750X0.256250X-0.218750X0.256250X0.218750X0*%
%ADD20RoundRect,0.225000X-0.250000X0.225000X-0.250000X-0.225000X0.250000X-0.225000X0.250000X0.225000X0*%
%ADD21RoundRect,0.218750X-0.218750X-0.256250X0.218750X-0.256250X0.218750X0.256250X-0.218750X0.256250X0*%
%ADD22RoundRect,0.225000X0.250000X-0.225000X0.250000X0.225000X-0.250000X0.225000X-0.250000X-0.225000X0*%
%ADD23RoundRect,0.150000X0.150000X-0.512500X0.150000X0.512500X-0.150000X0.512500X-0.150000X-0.512500X0*%
%ADD24RoundRect,0.200000X0.275000X-0.200000X0.275000X0.200000X-0.275000X0.200000X-0.275000X-0.200000X0*%
%ADD25RoundRect,0.200000X0.200000X0.275000X-0.200000X0.275000X-0.200000X-0.275000X0.200000X-0.275000X0*%
%ADD26R,0.250000X0.500000*%
%ADD27R,2.650000X1.000000*%
%ADD28RoundRect,0.150000X-0.512500X-0.150000X0.512500X-0.150000X0.512500X0.150000X-0.512500X0.150000X0*%
%ADD29RoundRect,0.150000X0.512500X0.150000X-0.512500X0.150000X-0.512500X-0.150000X0.512500X-0.150000X0*%
%ADD30RoundRect,0.150000X-0.650000X-0.150000X0.650000X-0.150000X0.650000X0.150000X-0.650000X0.150000X0*%
%ADD31RoundRect,0.200000X-0.275000X0.200000X-0.275000X-0.200000X0.275000X-0.200000X0.275000X0.200000X0*%
%ADD32RoundRect,0.250000X0.475000X-0.250000X0.475000X0.250000X-0.475000X0.250000X-0.475000X-0.250000X0*%
%ADD33R,0.700000X0.300000*%
%ADD34R,1.000000X0.300000*%
%ADD35RoundRect,0.250000X-0.475000X0.250000X-0.475000X-0.250000X0.475000X-0.250000X0.475000X0.250000X0*%
%ADD36C,4.000000*%
%ADD37R,1.550000X1.000000*%
%ADD38RoundRect,0.250000X0.250000X0.475000X-0.250000X0.475000X-0.250000X-0.475000X0.250000X-0.475000X0*%
%ADD39R,0.300000X1.400000*%
%ADD40RoundRect,0.102000X-0.373000X-0.323000X0.373000X-0.323000X0.373000X0.323000X-0.373000X0.323000X0*%
%ADD41R,1.100000X1.300000*%
%ADD42RoundRect,0.050000X-0.387500X-0.050000X0.387500X-0.050000X0.387500X0.050000X-0.387500X0.050000X0*%
%ADD43RoundRect,0.050000X-0.050000X-0.387500X0.050000X-0.387500X0.050000X0.387500X-0.050000X0.387500X0*%
%ADD44R,3.200000X3.200000*%
%ADD45RoundRect,0.062500X-0.350000X-0.062500X0.350000X-0.062500X0.350000X0.062500X-0.350000X0.062500X0*%
%ADD46RoundRect,0.062500X-0.062500X-0.350000X0.062500X-0.350000X0.062500X0.350000X-0.062500X0.350000X0*%
%ADD47R,2.500000X2.500000*%
%ADD48C,0.650000*%
%ADD49O,0.950000X0.650000*%
%ADD50R,0.300000X0.700000*%
%ADD51O,0.800000X1.400000*%
%ADD52RoundRect,0.062500X0.375000X0.062500X-0.375000X0.062500X-0.375000X-0.062500X0.375000X-0.062500X0*%
%ADD53RoundRect,0.062500X0.062500X0.375000X-0.062500X0.375000X-0.062500X-0.375000X0.062500X-0.375000X0*%
%ADD54R,3.300000X3.300000*%
G04 APERTURE END LIST*
D10*
X186809142Y-120755580D02*
X186761523Y-120803200D01*
X186761523Y-120803200D02*
X186618666Y-120850819D01*
X186618666Y-120850819D02*
X186523428Y-120850819D01*
X186523428Y-120850819D02*
X186380571Y-120803200D01*
X186380571Y-120803200D02*
X186285333Y-120707961D01*
X186285333Y-120707961D02*
X186237714Y-120612723D01*
X186237714Y-120612723D02*
X186190095Y-120422247D01*
X186190095Y-120422247D02*
X186190095Y-120279390D01*
X186190095Y-120279390D02*
X186237714Y-120088914D01*
X186237714Y-120088914D02*
X186285333Y-119993676D01*
X186285333Y-119993676D02*
X186380571Y-119898438D01*
X186380571Y-119898438D02*
X186523428Y-119850819D01*
X186523428Y-119850819D02*
X186618666Y-119850819D01*
X186618666Y-119850819D02*
X186761523Y-119898438D01*
X186761523Y-119898438D02*
X186809142Y-119946057D01*
X187761523Y-120850819D02*
X187190095Y-120850819D01*
X187475809Y-120850819D02*
X187475809Y-119850819D01*
X187475809Y-119850819D02*
X187380571Y-119993676D01*
X187380571Y-119993676D02*
X187285333Y-120088914D01*
X187285333Y-120088914D02*
X187190095Y-120136533D01*
X188618666Y-119850819D02*
X188428190Y-119850819D01*
X188428190Y-119850819D02*
X188332952Y-119898438D01*
X188332952Y-119898438D02*
X188285333Y-119946057D01*
X188285333Y-119946057D02*
X188190095Y-120088914D01*
X188190095Y-120088914D02*
X188142476Y-120279390D01*
X188142476Y-120279390D02*
X188142476Y-120660342D01*
X188142476Y-120660342D02*
X188190095Y-120755580D01*
X188190095Y-120755580D02*
X188237714Y-120803200D01*
X188237714Y-120803200D02*
X188332952Y-120850819D01*
X188332952Y-120850819D02*
X188523428Y-120850819D01*
X188523428Y-120850819D02*
X188618666Y-120803200D01*
X188618666Y-120803200D02*
X188666285Y-120755580D01*
X188666285Y-120755580D02*
X188713904Y-120660342D01*
X188713904Y-120660342D02*
X188713904Y-120422247D01*
X188713904Y-120422247D02*
X188666285Y-120327009D01*
X188666285Y-120327009D02*
X188618666Y-120279390D01*
X188618666Y-120279390D02*
X188523428Y-120231771D01*
X188523428Y-120231771D02*
X188332952Y-120231771D01*
X188332952Y-120231771D02*
X188237714Y-120279390D01*
X188237714Y-120279390D02*
X188190095Y-120327009D01*
X188190095Y-120327009D02*
X188142476Y-120422247D01*
X190208819Y-113077523D02*
X190923104Y-113077523D01*
X190923104Y-113077523D02*
X191065961Y-113125142D01*
X191065961Y-113125142D02*
X191161200Y-113220380D01*
X191161200Y-113220380D02*
X191208819Y-113363237D01*
X191208819Y-113363237D02*
X191208819Y-113458475D01*
X191208819Y-112077523D02*
X191208819Y-112648951D01*
X191208819Y-112363237D02*
X190208819Y-112363237D01*
X190208819Y-112363237D02*
X190351676Y-112458475D01*
X190351676Y-112458475D02*
X190446914Y-112553713D01*
X190446914Y-112553713D02*
X190494533Y-112648951D01*
X190208819Y-111744189D02*
X190208819Y-111077523D01*
X190208819Y-111077523D02*
X191208819Y-111506094D01*
X187313142Y-104978819D02*
X186979809Y-104502628D01*
X186741714Y-104978819D02*
X186741714Y-103978819D01*
X186741714Y-103978819D02*
X187122666Y-103978819D01*
X187122666Y-103978819D02*
X187217904Y-104026438D01*
X187217904Y-104026438D02*
X187265523Y-104074057D01*
X187265523Y-104074057D02*
X187313142Y-104169295D01*
X187313142Y-104169295D02*
X187313142Y-104312152D01*
X187313142Y-104312152D02*
X187265523Y-104407390D01*
X187265523Y-104407390D02*
X187217904Y-104455009D01*
X187217904Y-104455009D02*
X187122666Y-104502628D01*
X187122666Y-104502628D02*
X186741714Y-104502628D01*
X187646476Y-103978819D02*
X188265523Y-103978819D01*
X188265523Y-103978819D02*
X187932190Y-104359771D01*
X187932190Y-104359771D02*
X188075047Y-104359771D01*
X188075047Y-104359771D02*
X188170285Y-104407390D01*
X188170285Y-104407390D02*
X188217904Y-104455009D01*
X188217904Y-104455009D02*
X188265523Y-104550247D01*
X188265523Y-104550247D02*
X188265523Y-104788342D01*
X188265523Y-104788342D02*
X188217904Y-104883580D01*
X188217904Y-104883580D02*
X188170285Y-104931200D01*
X188170285Y-104931200D02*
X188075047Y-104978819D01*
X188075047Y-104978819D02*
X187789333Y-104978819D01*
X187789333Y-104978819D02*
X187694095Y-104931200D01*
X187694095Y-104931200D02*
X187646476Y-104883580D01*
X189122666Y-103978819D02*
X188932190Y-103978819D01*
X188932190Y-103978819D02*
X188836952Y-104026438D01*
X188836952Y-104026438D02*
X188789333Y-104074057D01*
X188789333Y-104074057D02*
X188694095Y-104216914D01*
X188694095Y-104216914D02*
X188646476Y-104407390D01*
X188646476Y-104407390D02*
X188646476Y-104788342D01*
X188646476Y-104788342D02*
X188694095Y-104883580D01*
X188694095Y-104883580D02*
X188741714Y-104931200D01*
X188741714Y-104931200D02*
X188836952Y-104978819D01*
X188836952Y-104978819D02*
X189027428Y-104978819D01*
X189027428Y-104978819D02*
X189122666Y-104931200D01*
X189122666Y-104931200D02*
X189170285Y-104883580D01*
X189170285Y-104883580D02*
X189217904Y-104788342D01*
X189217904Y-104788342D02*
X189217904Y-104550247D01*
X189217904Y-104550247D02*
X189170285Y-104455009D01*
X189170285Y-104455009D02*
X189122666Y-104407390D01*
X189122666Y-104407390D02*
X189027428Y-104359771D01*
X189027428Y-104359771D02*
X188836952Y-104359771D01*
X188836952Y-104359771D02*
X188741714Y-104407390D01*
X188741714Y-104407390D02*
X188694095Y-104455009D01*
X188694095Y-104455009D02*
X188646476Y-104550247D01*
X154505819Y-102338094D02*
X153505819Y-102338094D01*
X153505819Y-102338094D02*
X153505819Y-102099999D01*
X153505819Y-102099999D02*
X153553438Y-101957142D01*
X153553438Y-101957142D02*
X153648676Y-101861904D01*
X153648676Y-101861904D02*
X153743914Y-101814285D01*
X153743914Y-101814285D02*
X153934390Y-101766666D01*
X153934390Y-101766666D02*
X154077247Y-101766666D01*
X154077247Y-101766666D02*
X154267723Y-101814285D01*
X154267723Y-101814285D02*
X154362961Y-101861904D01*
X154362961Y-101861904D02*
X154458200Y-101957142D01*
X154458200Y-101957142D02*
X154505819Y-102099999D01*
X154505819Y-102099999D02*
X154505819Y-102338094D01*
X153505819Y-101433332D02*
X153505819Y-100814285D01*
X153505819Y-100814285D02*
X153886771Y-101147618D01*
X153886771Y-101147618D02*
X153886771Y-101004761D01*
X153886771Y-101004761D02*
X153934390Y-100909523D01*
X153934390Y-100909523D02*
X153982009Y-100861904D01*
X153982009Y-100861904D02*
X154077247Y-100814285D01*
X154077247Y-100814285D02*
X154315342Y-100814285D01*
X154315342Y-100814285D02*
X154410580Y-100861904D01*
X154410580Y-100861904D02*
X154458200Y-100909523D01*
X154458200Y-100909523D02*
X154505819Y-101004761D01*
X154505819Y-101004761D02*
X154505819Y-101290475D01*
X154505819Y-101290475D02*
X154458200Y-101385713D01*
X154458200Y-101385713D02*
X154410580Y-101433332D01*
X185013580Y-111008857D02*
X185061200Y-111056476D01*
X185061200Y-111056476D02*
X185108819Y-111199333D01*
X185108819Y-111199333D02*
X185108819Y-111294571D01*
X185108819Y-111294571D02*
X185061200Y-111437428D01*
X185061200Y-111437428D02*
X184965961Y-111532666D01*
X184965961Y-111532666D02*
X184870723Y-111580285D01*
X184870723Y-111580285D02*
X184680247Y-111627904D01*
X184680247Y-111627904D02*
X184537390Y-111627904D01*
X184537390Y-111627904D02*
X184346914Y-111580285D01*
X184346914Y-111580285D02*
X184251676Y-111532666D01*
X184251676Y-111532666D02*
X184156438Y-111437428D01*
X184156438Y-111437428D02*
X184108819Y-111294571D01*
X184108819Y-111294571D02*
X184108819Y-111199333D01*
X184108819Y-111199333D02*
X184156438Y-111056476D01*
X184156438Y-111056476D02*
X184204057Y-111008857D01*
X184108819Y-110675523D02*
X184108819Y-110056476D01*
X184108819Y-110056476D02*
X184489771Y-110389809D01*
X184489771Y-110389809D02*
X184489771Y-110246952D01*
X184489771Y-110246952D02*
X184537390Y-110151714D01*
X184537390Y-110151714D02*
X184585009Y-110104095D01*
X184585009Y-110104095D02*
X184680247Y-110056476D01*
X184680247Y-110056476D02*
X184918342Y-110056476D01*
X184918342Y-110056476D02*
X185013580Y-110104095D01*
X185013580Y-110104095D02*
X185061200Y-110151714D01*
X185061200Y-110151714D02*
X185108819Y-110246952D01*
X185108819Y-110246952D02*
X185108819Y-110532666D01*
X185108819Y-110532666D02*
X185061200Y-110627904D01*
X185061200Y-110627904D02*
X185013580Y-110675523D01*
X184442152Y-109199333D02*
X185108819Y-109199333D01*
X184061200Y-109437428D02*
X184775485Y-109675523D01*
X184775485Y-109675523D02*
X184775485Y-109056476D01*
X186809142Y-119231580D02*
X186761523Y-119279200D01*
X186761523Y-119279200D02*
X186618666Y-119326819D01*
X186618666Y-119326819D02*
X186523428Y-119326819D01*
X186523428Y-119326819D02*
X186380571Y-119279200D01*
X186380571Y-119279200D02*
X186285333Y-119183961D01*
X186285333Y-119183961D02*
X186237714Y-119088723D01*
X186237714Y-119088723D02*
X186190095Y-118898247D01*
X186190095Y-118898247D02*
X186190095Y-118755390D01*
X186190095Y-118755390D02*
X186237714Y-118564914D01*
X186237714Y-118564914D02*
X186285333Y-118469676D01*
X186285333Y-118469676D02*
X186380571Y-118374438D01*
X186380571Y-118374438D02*
X186523428Y-118326819D01*
X186523428Y-118326819D02*
X186618666Y-118326819D01*
X186618666Y-118326819D02*
X186761523Y-118374438D01*
X186761523Y-118374438D02*
X186809142Y-118422057D01*
X187761523Y-119326819D02*
X187190095Y-119326819D01*
X187475809Y-119326819D02*
X187475809Y-118326819D01*
X187475809Y-118326819D02*
X187380571Y-118469676D01*
X187380571Y-118469676D02*
X187285333Y-118564914D01*
X187285333Y-118564914D02*
X187190095Y-118612533D01*
X188666285Y-118326819D02*
X188190095Y-118326819D01*
X188190095Y-118326819D02*
X188142476Y-118803009D01*
X188142476Y-118803009D02*
X188190095Y-118755390D01*
X188190095Y-118755390D02*
X188285333Y-118707771D01*
X188285333Y-118707771D02*
X188523428Y-118707771D01*
X188523428Y-118707771D02*
X188618666Y-118755390D01*
X188618666Y-118755390D02*
X188666285Y-118803009D01*
X188666285Y-118803009D02*
X188713904Y-118898247D01*
X188713904Y-118898247D02*
X188713904Y-119136342D01*
X188713904Y-119136342D02*
X188666285Y-119231580D01*
X188666285Y-119231580D02*
X188618666Y-119279200D01*
X188618666Y-119279200D02*
X188523428Y-119326819D01*
X188523428Y-119326819D02*
X188285333Y-119326819D01*
X188285333Y-119326819D02*
X188190095Y-119279200D01*
X188190095Y-119279200D02*
X188142476Y-119231580D01*
X142275405Y-93926819D02*
X142275405Y-92926819D01*
X142275405Y-92926819D02*
X142513500Y-92926819D01*
X142513500Y-92926819D02*
X142656357Y-92974438D01*
X142656357Y-92974438D02*
X142751595Y-93069676D01*
X142751595Y-93069676D02*
X142799214Y-93164914D01*
X142799214Y-93164914D02*
X142846833Y-93355390D01*
X142846833Y-93355390D02*
X142846833Y-93498247D01*
X142846833Y-93498247D02*
X142799214Y-93688723D01*
X142799214Y-93688723D02*
X142751595Y-93783961D01*
X142751595Y-93783961D02*
X142656357Y-93879200D01*
X142656357Y-93879200D02*
X142513500Y-93926819D01*
X142513500Y-93926819D02*
X142275405Y-93926819D01*
X143180167Y-92926819D02*
X143846833Y-92926819D01*
X143846833Y-92926819D02*
X143418262Y-93926819D01*
X179175580Y-135516857D02*
X179223200Y-135564476D01*
X179223200Y-135564476D02*
X179270819Y-135707333D01*
X179270819Y-135707333D02*
X179270819Y-135802571D01*
X179270819Y-135802571D02*
X179223200Y-135945428D01*
X179223200Y-135945428D02*
X179127961Y-136040666D01*
X179127961Y-136040666D02*
X179032723Y-136088285D01*
X179032723Y-136088285D02*
X178842247Y-136135904D01*
X178842247Y-136135904D02*
X178699390Y-136135904D01*
X178699390Y-136135904D02*
X178508914Y-136088285D01*
X178508914Y-136088285D02*
X178413676Y-136040666D01*
X178413676Y-136040666D02*
X178318438Y-135945428D01*
X178318438Y-135945428D02*
X178270819Y-135802571D01*
X178270819Y-135802571D02*
X178270819Y-135707333D01*
X178270819Y-135707333D02*
X178318438Y-135564476D01*
X178318438Y-135564476D02*
X178366057Y-135516857D01*
X179270819Y-134564476D02*
X179270819Y-135135904D01*
X179270819Y-134850190D02*
X178270819Y-134850190D01*
X178270819Y-134850190D02*
X178413676Y-134945428D01*
X178413676Y-134945428D02*
X178508914Y-135040666D01*
X178508914Y-135040666D02*
X178556533Y-135135904D01*
X178270819Y-134231142D02*
X178270819Y-133564476D01*
X178270819Y-133564476D02*
X179270819Y-133993047D01*
X189230095Y-113881819D02*
X189230095Y-114691342D01*
X189230095Y-114691342D02*
X189277714Y-114786580D01*
X189277714Y-114786580D02*
X189325333Y-114834200D01*
X189325333Y-114834200D02*
X189420571Y-114881819D01*
X189420571Y-114881819D02*
X189611047Y-114881819D01*
X189611047Y-114881819D02*
X189706285Y-114834200D01*
X189706285Y-114834200D02*
X189753904Y-114786580D01*
X189753904Y-114786580D02*
X189801523Y-114691342D01*
X189801523Y-114691342D02*
X189801523Y-113881819D01*
X190706285Y-113881819D02*
X190515809Y-113881819D01*
X190515809Y-113881819D02*
X190420571Y-113929438D01*
X190420571Y-113929438D02*
X190372952Y-113977057D01*
X190372952Y-113977057D02*
X190277714Y-114119914D01*
X190277714Y-114119914D02*
X190230095Y-114310390D01*
X190230095Y-114310390D02*
X190230095Y-114691342D01*
X190230095Y-114691342D02*
X190277714Y-114786580D01*
X190277714Y-114786580D02*
X190325333Y-114834200D01*
X190325333Y-114834200D02*
X190420571Y-114881819D01*
X190420571Y-114881819D02*
X190611047Y-114881819D01*
X190611047Y-114881819D02*
X190706285Y-114834200D01*
X190706285Y-114834200D02*
X190753904Y-114786580D01*
X190753904Y-114786580D02*
X190801523Y-114691342D01*
X190801523Y-114691342D02*
X190801523Y-114453247D01*
X190801523Y-114453247D02*
X190753904Y-114358009D01*
X190753904Y-114358009D02*
X190706285Y-114310390D01*
X190706285Y-114310390D02*
X190611047Y-114262771D01*
X190611047Y-114262771D02*
X190420571Y-114262771D01*
X190420571Y-114262771D02*
X190325333Y-114310390D01*
X190325333Y-114310390D02*
X190277714Y-114358009D01*
X190277714Y-114358009D02*
X190230095Y-114453247D01*
X148201142Y-142567819D02*
X147867809Y-142091628D01*
X147629714Y-142567819D02*
X147629714Y-141567819D01*
X147629714Y-141567819D02*
X148010666Y-141567819D01*
X148010666Y-141567819D02*
X148105904Y-141615438D01*
X148105904Y-141615438D02*
X148153523Y-141663057D01*
X148153523Y-141663057D02*
X148201142Y-141758295D01*
X148201142Y-141758295D02*
X148201142Y-141901152D01*
X148201142Y-141901152D02*
X148153523Y-141996390D01*
X148153523Y-141996390D02*
X148105904Y-142044009D01*
X148105904Y-142044009D02*
X148010666Y-142091628D01*
X148010666Y-142091628D02*
X147629714Y-142091628D01*
X148582095Y-141663057D02*
X148629714Y-141615438D01*
X148629714Y-141615438D02*
X148724952Y-141567819D01*
X148724952Y-141567819D02*
X148963047Y-141567819D01*
X148963047Y-141567819D02*
X149058285Y-141615438D01*
X149058285Y-141615438D02*
X149105904Y-141663057D01*
X149105904Y-141663057D02*
X149153523Y-141758295D01*
X149153523Y-141758295D02*
X149153523Y-141853533D01*
X149153523Y-141853533D02*
X149105904Y-141996390D01*
X149105904Y-141996390D02*
X148534476Y-142567819D01*
X148534476Y-142567819D02*
X149153523Y-142567819D01*
X149534476Y-141663057D02*
X149582095Y-141615438D01*
X149582095Y-141615438D02*
X149677333Y-141567819D01*
X149677333Y-141567819D02*
X149915428Y-141567819D01*
X149915428Y-141567819D02*
X150010666Y-141615438D01*
X150010666Y-141615438D02*
X150058285Y-141663057D01*
X150058285Y-141663057D02*
X150105904Y-141758295D01*
X150105904Y-141758295D02*
X150105904Y-141853533D01*
X150105904Y-141853533D02*
X150058285Y-141996390D01*
X150058285Y-141996390D02*
X149486857Y-142567819D01*
X149486857Y-142567819D02*
X150105904Y-142567819D01*
X165092142Y-122882819D02*
X164758809Y-122406628D01*
X164520714Y-122882819D02*
X164520714Y-121882819D01*
X164520714Y-121882819D02*
X164901666Y-121882819D01*
X164901666Y-121882819D02*
X164996904Y-121930438D01*
X164996904Y-121930438D02*
X165044523Y-121978057D01*
X165044523Y-121978057D02*
X165092142Y-122073295D01*
X165092142Y-122073295D02*
X165092142Y-122216152D01*
X165092142Y-122216152D02*
X165044523Y-122311390D01*
X165044523Y-122311390D02*
X164996904Y-122359009D01*
X164996904Y-122359009D02*
X164901666Y-122406628D01*
X164901666Y-122406628D02*
X164520714Y-122406628D01*
X165473095Y-121978057D02*
X165520714Y-121930438D01*
X165520714Y-121930438D02*
X165615952Y-121882819D01*
X165615952Y-121882819D02*
X165854047Y-121882819D01*
X165854047Y-121882819D02*
X165949285Y-121930438D01*
X165949285Y-121930438D02*
X165996904Y-121978057D01*
X165996904Y-121978057D02*
X166044523Y-122073295D01*
X166044523Y-122073295D02*
X166044523Y-122168533D01*
X166044523Y-122168533D02*
X165996904Y-122311390D01*
X165996904Y-122311390D02*
X165425476Y-122882819D01*
X165425476Y-122882819D02*
X166044523Y-122882819D01*
X166615952Y-122311390D02*
X166520714Y-122263771D01*
X166520714Y-122263771D02*
X166473095Y-122216152D01*
X166473095Y-122216152D02*
X166425476Y-122120914D01*
X166425476Y-122120914D02*
X166425476Y-122073295D01*
X166425476Y-122073295D02*
X166473095Y-121978057D01*
X166473095Y-121978057D02*
X166520714Y-121930438D01*
X166520714Y-121930438D02*
X166615952Y-121882819D01*
X166615952Y-121882819D02*
X166806428Y-121882819D01*
X166806428Y-121882819D02*
X166901666Y-121930438D01*
X166901666Y-121930438D02*
X166949285Y-121978057D01*
X166949285Y-121978057D02*
X166996904Y-122073295D01*
X166996904Y-122073295D02*
X166996904Y-122120914D01*
X166996904Y-122120914D02*
X166949285Y-122216152D01*
X166949285Y-122216152D02*
X166901666Y-122263771D01*
X166901666Y-122263771D02*
X166806428Y-122311390D01*
X166806428Y-122311390D02*
X166615952Y-122311390D01*
X166615952Y-122311390D02*
X166520714Y-122359009D01*
X166520714Y-122359009D02*
X166473095Y-122406628D01*
X166473095Y-122406628D02*
X166425476Y-122501866D01*
X166425476Y-122501866D02*
X166425476Y-122692342D01*
X166425476Y-122692342D02*
X166473095Y-122787580D01*
X166473095Y-122787580D02*
X166520714Y-122835200D01*
X166520714Y-122835200D02*
X166615952Y-122882819D01*
X166615952Y-122882819D02*
X166806428Y-122882819D01*
X166806428Y-122882819D02*
X166901666Y-122835200D01*
X166901666Y-122835200D02*
X166949285Y-122787580D01*
X166949285Y-122787580D02*
X166996904Y-122692342D01*
X166996904Y-122692342D02*
X166996904Y-122501866D01*
X166996904Y-122501866D02*
X166949285Y-122406628D01*
X166949285Y-122406628D02*
X166901666Y-122359009D01*
X166901666Y-122359009D02*
X166806428Y-122311390D01*
X154627319Y-95353094D02*
X153627319Y-95353094D01*
X153627319Y-95353094D02*
X153627319Y-95114999D01*
X153627319Y-95114999D02*
X153674938Y-94972142D01*
X153674938Y-94972142D02*
X153770176Y-94876904D01*
X153770176Y-94876904D02*
X153865414Y-94829285D01*
X153865414Y-94829285D02*
X154055890Y-94781666D01*
X154055890Y-94781666D02*
X154198747Y-94781666D01*
X154198747Y-94781666D02*
X154389223Y-94829285D01*
X154389223Y-94829285D02*
X154484461Y-94876904D01*
X154484461Y-94876904D02*
X154579700Y-94972142D01*
X154579700Y-94972142D02*
X154627319Y-95114999D01*
X154627319Y-95114999D02*
X154627319Y-95353094D01*
X154627319Y-93829285D02*
X154627319Y-94400713D01*
X154627319Y-94114999D02*
X153627319Y-94114999D01*
X153627319Y-94114999D02*
X153770176Y-94210237D01*
X153770176Y-94210237D02*
X153865414Y-94305475D01*
X153865414Y-94305475D02*
X153913033Y-94400713D01*
X145266580Y-139707857D02*
X145314200Y-139755476D01*
X145314200Y-139755476D02*
X145361819Y-139898333D01*
X145361819Y-139898333D02*
X145361819Y-139993571D01*
X145361819Y-139993571D02*
X145314200Y-140136428D01*
X145314200Y-140136428D02*
X145218961Y-140231666D01*
X145218961Y-140231666D02*
X145123723Y-140279285D01*
X145123723Y-140279285D02*
X144933247Y-140326904D01*
X144933247Y-140326904D02*
X144790390Y-140326904D01*
X144790390Y-140326904D02*
X144599914Y-140279285D01*
X144599914Y-140279285D02*
X144504676Y-140231666D01*
X144504676Y-140231666D02*
X144409438Y-140136428D01*
X144409438Y-140136428D02*
X144361819Y-139993571D01*
X144361819Y-139993571D02*
X144361819Y-139898333D01*
X144361819Y-139898333D02*
X144409438Y-139755476D01*
X144409438Y-139755476D02*
X144457057Y-139707857D01*
X144457057Y-139326904D02*
X144409438Y-139279285D01*
X144409438Y-139279285D02*
X144361819Y-139184047D01*
X144361819Y-139184047D02*
X144361819Y-138945952D01*
X144361819Y-138945952D02*
X144409438Y-138850714D01*
X144409438Y-138850714D02*
X144457057Y-138803095D01*
X144457057Y-138803095D02*
X144552295Y-138755476D01*
X144552295Y-138755476D02*
X144647533Y-138755476D01*
X144647533Y-138755476D02*
X144790390Y-138803095D01*
X144790390Y-138803095D02*
X145361819Y-139374523D01*
X145361819Y-139374523D02*
X145361819Y-138755476D01*
X145361819Y-137803095D02*
X145361819Y-138374523D01*
X145361819Y-138088809D02*
X144361819Y-138088809D01*
X144361819Y-138088809D02*
X144504676Y-138184047D01*
X144504676Y-138184047D02*
X144599914Y-138279285D01*
X144599914Y-138279285D02*
X144647533Y-138374523D01*
X194252819Y-99610666D02*
X193776628Y-99943999D01*
X194252819Y-100182094D02*
X193252819Y-100182094D01*
X193252819Y-100182094D02*
X193252819Y-99801142D01*
X193252819Y-99801142D02*
X193300438Y-99705904D01*
X193300438Y-99705904D02*
X193348057Y-99658285D01*
X193348057Y-99658285D02*
X193443295Y-99610666D01*
X193443295Y-99610666D02*
X193586152Y-99610666D01*
X193586152Y-99610666D02*
X193681390Y-99658285D01*
X193681390Y-99658285D02*
X193729009Y-99705904D01*
X193729009Y-99705904D02*
X193776628Y-99801142D01*
X193776628Y-99801142D02*
X193776628Y-100182094D01*
X193681390Y-99039237D02*
X193633771Y-99134475D01*
X193633771Y-99134475D02*
X193586152Y-99182094D01*
X193586152Y-99182094D02*
X193490914Y-99229713D01*
X193490914Y-99229713D02*
X193443295Y-99229713D01*
X193443295Y-99229713D02*
X193348057Y-99182094D01*
X193348057Y-99182094D02*
X193300438Y-99134475D01*
X193300438Y-99134475D02*
X193252819Y-99039237D01*
X193252819Y-99039237D02*
X193252819Y-98848761D01*
X193252819Y-98848761D02*
X193300438Y-98753523D01*
X193300438Y-98753523D02*
X193348057Y-98705904D01*
X193348057Y-98705904D02*
X193443295Y-98658285D01*
X193443295Y-98658285D02*
X193490914Y-98658285D01*
X193490914Y-98658285D02*
X193586152Y-98705904D01*
X193586152Y-98705904D02*
X193633771Y-98753523D01*
X193633771Y-98753523D02*
X193681390Y-98848761D01*
X193681390Y-98848761D02*
X193681390Y-99039237D01*
X193681390Y-99039237D02*
X193729009Y-99134475D01*
X193729009Y-99134475D02*
X193776628Y-99182094D01*
X193776628Y-99182094D02*
X193871866Y-99229713D01*
X193871866Y-99229713D02*
X194062342Y-99229713D01*
X194062342Y-99229713D02*
X194157580Y-99182094D01*
X194157580Y-99182094D02*
X194205200Y-99134475D01*
X194205200Y-99134475D02*
X194252819Y-99039237D01*
X194252819Y-99039237D02*
X194252819Y-98848761D01*
X194252819Y-98848761D02*
X194205200Y-98753523D01*
X194205200Y-98753523D02*
X194157580Y-98705904D01*
X194157580Y-98705904D02*
X194062342Y-98658285D01*
X194062342Y-98658285D02*
X193871866Y-98658285D01*
X193871866Y-98658285D02*
X193776628Y-98705904D01*
X193776628Y-98705904D02*
X193729009Y-98753523D01*
X193729009Y-98753523D02*
X193681390Y-98848761D01*
X165219142Y-127232580D02*
X165171523Y-127280200D01*
X165171523Y-127280200D02*
X165028666Y-127327819D01*
X165028666Y-127327819D02*
X164933428Y-127327819D01*
X164933428Y-127327819D02*
X164790571Y-127280200D01*
X164790571Y-127280200D02*
X164695333Y-127184961D01*
X164695333Y-127184961D02*
X164647714Y-127089723D01*
X164647714Y-127089723D02*
X164600095Y-126899247D01*
X164600095Y-126899247D02*
X164600095Y-126756390D01*
X164600095Y-126756390D02*
X164647714Y-126565914D01*
X164647714Y-126565914D02*
X164695333Y-126470676D01*
X164695333Y-126470676D02*
X164790571Y-126375438D01*
X164790571Y-126375438D02*
X164933428Y-126327819D01*
X164933428Y-126327819D02*
X165028666Y-126327819D01*
X165028666Y-126327819D02*
X165171523Y-126375438D01*
X165171523Y-126375438D02*
X165219142Y-126423057D01*
X166171523Y-127327819D02*
X165600095Y-127327819D01*
X165885809Y-127327819D02*
X165885809Y-126327819D01*
X165885809Y-126327819D02*
X165790571Y-126470676D01*
X165790571Y-126470676D02*
X165695333Y-126565914D01*
X165695333Y-126565914D02*
X165600095Y-126613533D01*
X166552476Y-126423057D02*
X166600095Y-126375438D01*
X166600095Y-126375438D02*
X166695333Y-126327819D01*
X166695333Y-126327819D02*
X166933428Y-126327819D01*
X166933428Y-126327819D02*
X167028666Y-126375438D01*
X167028666Y-126375438D02*
X167076285Y-126423057D01*
X167076285Y-126423057D02*
X167123904Y-126518295D01*
X167123904Y-126518295D02*
X167123904Y-126613533D01*
X167123904Y-126613533D02*
X167076285Y-126756390D01*
X167076285Y-126756390D02*
X166504857Y-127327819D01*
X166504857Y-127327819D02*
X167123904Y-127327819D01*
X194976905Y-115164819D02*
X194976905Y-115974342D01*
X194976905Y-115974342D02*
X195024524Y-116069580D01*
X195024524Y-116069580D02*
X195072143Y-116117200D01*
X195072143Y-116117200D02*
X195167381Y-116164819D01*
X195167381Y-116164819D02*
X195357857Y-116164819D01*
X195357857Y-116164819D02*
X195453095Y-116117200D01*
X195453095Y-116117200D02*
X195500714Y-116069580D01*
X195500714Y-116069580D02*
X195548333Y-115974342D01*
X195548333Y-115974342D02*
X195548333Y-115164819D01*
X196548333Y-116164819D02*
X195976905Y-116164819D01*
X196262619Y-116164819D02*
X196262619Y-115164819D01*
X196262619Y-115164819D02*
X196167381Y-115307676D01*
X196167381Y-115307676D02*
X196072143Y-115402914D01*
X196072143Y-115402914D02*
X195976905Y-115450533D01*
X197167381Y-115164819D02*
X197262619Y-115164819D01*
X197262619Y-115164819D02*
X197357857Y-115212438D01*
X197357857Y-115212438D02*
X197405476Y-115260057D01*
X197405476Y-115260057D02*
X197453095Y-115355295D01*
X197453095Y-115355295D02*
X197500714Y-115545771D01*
X197500714Y-115545771D02*
X197500714Y-115783866D01*
X197500714Y-115783866D02*
X197453095Y-115974342D01*
X197453095Y-115974342D02*
X197405476Y-116069580D01*
X197405476Y-116069580D02*
X197357857Y-116117200D01*
X197357857Y-116117200D02*
X197262619Y-116164819D01*
X197262619Y-116164819D02*
X197167381Y-116164819D01*
X197167381Y-116164819D02*
X197072143Y-116117200D01*
X197072143Y-116117200D02*
X197024524Y-116069580D01*
X197024524Y-116069580D02*
X196976905Y-115974342D01*
X196976905Y-115974342D02*
X196929286Y-115783866D01*
X196929286Y-115783866D02*
X196929286Y-115545771D01*
X196929286Y-115545771D02*
X196976905Y-115355295D01*
X196976905Y-115355295D02*
X197024524Y-115260057D01*
X197024524Y-115260057D02*
X197072143Y-115212438D01*
X197072143Y-115212438D02*
X197167381Y-115164819D01*
X157302142Y-104340819D02*
X156968809Y-103864628D01*
X156730714Y-104340819D02*
X156730714Y-103340819D01*
X156730714Y-103340819D02*
X157111666Y-103340819D01*
X157111666Y-103340819D02*
X157206904Y-103388438D01*
X157206904Y-103388438D02*
X157254523Y-103436057D01*
X157254523Y-103436057D02*
X157302142Y-103531295D01*
X157302142Y-103531295D02*
X157302142Y-103674152D01*
X157302142Y-103674152D02*
X157254523Y-103769390D01*
X157254523Y-103769390D02*
X157206904Y-103817009D01*
X157206904Y-103817009D02*
X157111666Y-103864628D01*
X157111666Y-103864628D02*
X156730714Y-103864628D01*
X158254523Y-104340819D02*
X157683095Y-104340819D01*
X157968809Y-104340819D02*
X157968809Y-103340819D01*
X157968809Y-103340819D02*
X157873571Y-103483676D01*
X157873571Y-103483676D02*
X157778333Y-103578914D01*
X157778333Y-103578914D02*
X157683095Y-103626533D01*
X159111666Y-103674152D02*
X159111666Y-104340819D01*
X158873571Y-103293200D02*
X158635476Y-104007485D01*
X158635476Y-104007485D02*
X159254523Y-104007485D01*
X196284819Y-109199666D02*
X195808628Y-109532999D01*
X196284819Y-109771094D02*
X195284819Y-109771094D01*
X195284819Y-109771094D02*
X195284819Y-109390142D01*
X195284819Y-109390142D02*
X195332438Y-109294904D01*
X195332438Y-109294904D02*
X195380057Y-109247285D01*
X195380057Y-109247285D02*
X195475295Y-109199666D01*
X195475295Y-109199666D02*
X195618152Y-109199666D01*
X195618152Y-109199666D02*
X195713390Y-109247285D01*
X195713390Y-109247285D02*
X195761009Y-109294904D01*
X195761009Y-109294904D02*
X195808628Y-109390142D01*
X195808628Y-109390142D02*
X195808628Y-109771094D01*
X196284819Y-108723475D02*
X196284819Y-108532999D01*
X196284819Y-108532999D02*
X196237200Y-108437761D01*
X196237200Y-108437761D02*
X196189580Y-108390142D01*
X196189580Y-108390142D02*
X196046723Y-108294904D01*
X196046723Y-108294904D02*
X195856247Y-108247285D01*
X195856247Y-108247285D02*
X195475295Y-108247285D01*
X195475295Y-108247285D02*
X195380057Y-108294904D01*
X195380057Y-108294904D02*
X195332438Y-108342523D01*
X195332438Y-108342523D02*
X195284819Y-108437761D01*
X195284819Y-108437761D02*
X195284819Y-108628237D01*
X195284819Y-108628237D02*
X195332438Y-108723475D01*
X195332438Y-108723475D02*
X195380057Y-108771094D01*
X195380057Y-108771094D02*
X195475295Y-108818713D01*
X195475295Y-108818713D02*
X195713390Y-108818713D01*
X195713390Y-108818713D02*
X195808628Y-108771094D01*
X195808628Y-108771094D02*
X195856247Y-108723475D01*
X195856247Y-108723475D02*
X195903866Y-108628237D01*
X195903866Y-108628237D02*
X195903866Y-108437761D01*
X195903866Y-108437761D02*
X195856247Y-108342523D01*
X195856247Y-108342523D02*
X195808628Y-108294904D01*
X195808628Y-108294904D02*
X195713390Y-108247285D01*
X165549319Y-95546094D02*
X164549319Y-95546094D01*
X164549319Y-95546094D02*
X164549319Y-95307999D01*
X164549319Y-95307999D02*
X164596938Y-95165142D01*
X164596938Y-95165142D02*
X164692176Y-95069904D01*
X164692176Y-95069904D02*
X164787414Y-95022285D01*
X164787414Y-95022285D02*
X164977890Y-94974666D01*
X164977890Y-94974666D02*
X165120747Y-94974666D01*
X165120747Y-94974666D02*
X165311223Y-95022285D01*
X165311223Y-95022285D02*
X165406461Y-95069904D01*
X165406461Y-95069904D02*
X165501700Y-95165142D01*
X165501700Y-95165142D02*
X165549319Y-95307999D01*
X165549319Y-95307999D02*
X165549319Y-95546094D01*
X164644557Y-94593713D02*
X164596938Y-94546094D01*
X164596938Y-94546094D02*
X164549319Y-94450856D01*
X164549319Y-94450856D02*
X164549319Y-94212761D01*
X164549319Y-94212761D02*
X164596938Y-94117523D01*
X164596938Y-94117523D02*
X164644557Y-94069904D01*
X164644557Y-94069904D02*
X164739795Y-94022285D01*
X164739795Y-94022285D02*
X164835033Y-94022285D01*
X164835033Y-94022285D02*
X164977890Y-94069904D01*
X164977890Y-94069904D02*
X165549319Y-94641332D01*
X165549319Y-94641332D02*
X165549319Y-94022285D01*
X147693142Y-105864819D02*
X147359809Y-105388628D01*
X147121714Y-105864819D02*
X147121714Y-104864819D01*
X147121714Y-104864819D02*
X147502666Y-104864819D01*
X147502666Y-104864819D02*
X147597904Y-104912438D01*
X147597904Y-104912438D02*
X147645523Y-104960057D01*
X147645523Y-104960057D02*
X147693142Y-105055295D01*
X147693142Y-105055295D02*
X147693142Y-105198152D01*
X147693142Y-105198152D02*
X147645523Y-105293390D01*
X147645523Y-105293390D02*
X147597904Y-105341009D01*
X147597904Y-105341009D02*
X147502666Y-105388628D01*
X147502666Y-105388628D02*
X147121714Y-105388628D01*
X148645523Y-105864819D02*
X148074095Y-105864819D01*
X148359809Y-105864819D02*
X148359809Y-104864819D01*
X148359809Y-104864819D02*
X148264571Y-105007676D01*
X148264571Y-105007676D02*
X148169333Y-105102914D01*
X148169333Y-105102914D02*
X148074095Y-105150533D01*
X149550285Y-104864819D02*
X149074095Y-104864819D01*
X149074095Y-104864819D02*
X149026476Y-105341009D01*
X149026476Y-105341009D02*
X149074095Y-105293390D01*
X149074095Y-105293390D02*
X149169333Y-105245771D01*
X149169333Y-105245771D02*
X149407428Y-105245771D01*
X149407428Y-105245771D02*
X149502666Y-105293390D01*
X149502666Y-105293390D02*
X149550285Y-105341009D01*
X149550285Y-105341009D02*
X149597904Y-105436247D01*
X149597904Y-105436247D02*
X149597904Y-105674342D01*
X149597904Y-105674342D02*
X149550285Y-105769580D01*
X149550285Y-105769580D02*
X149502666Y-105817200D01*
X149502666Y-105817200D02*
X149407428Y-105864819D01*
X149407428Y-105864819D02*
X149169333Y-105864819D01*
X149169333Y-105864819D02*
X149074095Y-105817200D01*
X149074095Y-105817200D02*
X149026476Y-105769580D01*
X160020095Y-97183819D02*
X160020095Y-97993342D01*
X160020095Y-97993342D02*
X160067714Y-98088580D01*
X160067714Y-98088580D02*
X160115333Y-98136200D01*
X160115333Y-98136200D02*
X160210571Y-98183819D01*
X160210571Y-98183819D02*
X160401047Y-98183819D01*
X160401047Y-98183819D02*
X160496285Y-98136200D01*
X160496285Y-98136200D02*
X160543904Y-98088580D01*
X160543904Y-98088580D02*
X160591523Y-97993342D01*
X160591523Y-97993342D02*
X160591523Y-97183819D01*
X161115333Y-98183819D02*
X161305809Y-98183819D01*
X161305809Y-98183819D02*
X161401047Y-98136200D01*
X161401047Y-98136200D02*
X161448666Y-98088580D01*
X161448666Y-98088580D02*
X161543904Y-97945723D01*
X161543904Y-97945723D02*
X161591523Y-97755247D01*
X161591523Y-97755247D02*
X161591523Y-97374295D01*
X161591523Y-97374295D02*
X161543904Y-97279057D01*
X161543904Y-97279057D02*
X161496285Y-97231438D01*
X161496285Y-97231438D02*
X161401047Y-97183819D01*
X161401047Y-97183819D02*
X161210571Y-97183819D01*
X161210571Y-97183819D02*
X161115333Y-97231438D01*
X161115333Y-97231438D02*
X161067714Y-97279057D01*
X161067714Y-97279057D02*
X161020095Y-97374295D01*
X161020095Y-97374295D02*
X161020095Y-97612390D01*
X161020095Y-97612390D02*
X161067714Y-97707628D01*
X161067714Y-97707628D02*
X161115333Y-97755247D01*
X161115333Y-97755247D02*
X161210571Y-97802866D01*
X161210571Y-97802866D02*
X161401047Y-97802866D01*
X161401047Y-97802866D02*
X161496285Y-97755247D01*
X161496285Y-97755247D02*
X161543904Y-97707628D01*
X161543904Y-97707628D02*
X161591523Y-97612390D01*
X138687642Y-105001819D02*
X138354309Y-104525628D01*
X138116214Y-105001819D02*
X138116214Y-104001819D01*
X138116214Y-104001819D02*
X138497166Y-104001819D01*
X138497166Y-104001819D02*
X138592404Y-104049438D01*
X138592404Y-104049438D02*
X138640023Y-104097057D01*
X138640023Y-104097057D02*
X138687642Y-104192295D01*
X138687642Y-104192295D02*
X138687642Y-104335152D01*
X138687642Y-104335152D02*
X138640023Y-104430390D01*
X138640023Y-104430390D02*
X138592404Y-104478009D01*
X138592404Y-104478009D02*
X138497166Y-104525628D01*
X138497166Y-104525628D02*
X138116214Y-104525628D01*
X139020976Y-104001819D02*
X139640023Y-104001819D01*
X139640023Y-104001819D02*
X139306690Y-104382771D01*
X139306690Y-104382771D02*
X139449547Y-104382771D01*
X139449547Y-104382771D02*
X139544785Y-104430390D01*
X139544785Y-104430390D02*
X139592404Y-104478009D01*
X139592404Y-104478009D02*
X139640023Y-104573247D01*
X139640023Y-104573247D02*
X139640023Y-104811342D01*
X139640023Y-104811342D02*
X139592404Y-104906580D01*
X139592404Y-104906580D02*
X139544785Y-104954200D01*
X139544785Y-104954200D02*
X139449547Y-105001819D01*
X139449547Y-105001819D02*
X139163833Y-105001819D01*
X139163833Y-105001819D02*
X139068595Y-104954200D01*
X139068595Y-104954200D02*
X139020976Y-104906580D01*
X140544785Y-104001819D02*
X140068595Y-104001819D01*
X140068595Y-104001819D02*
X140020976Y-104478009D01*
X140020976Y-104478009D02*
X140068595Y-104430390D01*
X140068595Y-104430390D02*
X140163833Y-104382771D01*
X140163833Y-104382771D02*
X140401928Y-104382771D01*
X140401928Y-104382771D02*
X140497166Y-104430390D01*
X140497166Y-104430390D02*
X140544785Y-104478009D01*
X140544785Y-104478009D02*
X140592404Y-104573247D01*
X140592404Y-104573247D02*
X140592404Y-104811342D01*
X140592404Y-104811342D02*
X140544785Y-104906580D01*
X140544785Y-104906580D02*
X140497166Y-104954200D01*
X140497166Y-104954200D02*
X140401928Y-105001819D01*
X140401928Y-105001819D02*
X140163833Y-105001819D01*
X140163833Y-105001819D02*
X140068595Y-104954200D01*
X140068595Y-104954200D02*
X140020976Y-104906580D01*
X138687642Y-93926819D02*
X138354309Y-93450628D01*
X138116214Y-93926819D02*
X138116214Y-92926819D01*
X138116214Y-92926819D02*
X138497166Y-92926819D01*
X138497166Y-92926819D02*
X138592404Y-92974438D01*
X138592404Y-92974438D02*
X138640023Y-93022057D01*
X138640023Y-93022057D02*
X138687642Y-93117295D01*
X138687642Y-93117295D02*
X138687642Y-93260152D01*
X138687642Y-93260152D02*
X138640023Y-93355390D01*
X138640023Y-93355390D02*
X138592404Y-93403009D01*
X138592404Y-93403009D02*
X138497166Y-93450628D01*
X138497166Y-93450628D02*
X138116214Y-93450628D01*
X139020976Y-92926819D02*
X139640023Y-92926819D01*
X139640023Y-92926819D02*
X139306690Y-93307771D01*
X139306690Y-93307771D02*
X139449547Y-93307771D01*
X139449547Y-93307771D02*
X139544785Y-93355390D01*
X139544785Y-93355390D02*
X139592404Y-93403009D01*
X139592404Y-93403009D02*
X139640023Y-93498247D01*
X139640023Y-93498247D02*
X139640023Y-93736342D01*
X139640023Y-93736342D02*
X139592404Y-93831580D01*
X139592404Y-93831580D02*
X139544785Y-93879200D01*
X139544785Y-93879200D02*
X139449547Y-93926819D01*
X139449547Y-93926819D02*
X139163833Y-93926819D01*
X139163833Y-93926819D02*
X139068595Y-93879200D01*
X139068595Y-93879200D02*
X139020976Y-93831580D01*
X140497166Y-93260152D02*
X140497166Y-93926819D01*
X140259071Y-92879200D02*
X140020976Y-93593485D01*
X140020976Y-93593485D02*
X140640023Y-93593485D01*
X167005095Y-111210819D02*
X167005095Y-112020342D01*
X167005095Y-112020342D02*
X167052714Y-112115580D01*
X167052714Y-112115580D02*
X167100333Y-112163200D01*
X167100333Y-112163200D02*
X167195571Y-112210819D01*
X167195571Y-112210819D02*
X167386047Y-112210819D01*
X167386047Y-112210819D02*
X167481285Y-112163200D01*
X167481285Y-112163200D02*
X167528904Y-112115580D01*
X167528904Y-112115580D02*
X167576523Y-112020342D01*
X167576523Y-112020342D02*
X167576523Y-111210819D01*
X168528904Y-111210819D02*
X168052714Y-111210819D01*
X168052714Y-111210819D02*
X168005095Y-111687009D01*
X168005095Y-111687009D02*
X168052714Y-111639390D01*
X168052714Y-111639390D02*
X168147952Y-111591771D01*
X168147952Y-111591771D02*
X168386047Y-111591771D01*
X168386047Y-111591771D02*
X168481285Y-111639390D01*
X168481285Y-111639390D02*
X168528904Y-111687009D01*
X168528904Y-111687009D02*
X168576523Y-111782247D01*
X168576523Y-111782247D02*
X168576523Y-112020342D01*
X168576523Y-112020342D02*
X168528904Y-112115580D01*
X168528904Y-112115580D02*
X168481285Y-112163200D01*
X168481285Y-112163200D02*
X168386047Y-112210819D01*
X168386047Y-112210819D02*
X168147952Y-112210819D01*
X168147952Y-112210819D02*
X168052714Y-112163200D01*
X168052714Y-112163200D02*
X168005095Y-112115580D01*
X173488819Y-135683523D02*
X174203104Y-135683523D01*
X174203104Y-135683523D02*
X174345961Y-135731142D01*
X174345961Y-135731142D02*
X174441200Y-135826380D01*
X174441200Y-135826380D02*
X174488819Y-135969237D01*
X174488819Y-135969237D02*
X174488819Y-136064475D01*
X174488819Y-134683523D02*
X174488819Y-135254951D01*
X174488819Y-134969237D02*
X173488819Y-134969237D01*
X173488819Y-134969237D02*
X173631676Y-135064475D01*
X173631676Y-135064475D02*
X173726914Y-135159713D01*
X173726914Y-135159713D02*
X173774533Y-135254951D01*
X174488819Y-133731142D02*
X174488819Y-134302570D01*
X174488819Y-134016856D02*
X173488819Y-134016856D01*
X173488819Y-134016856D02*
X173631676Y-134112094D01*
X173631676Y-134112094D02*
X173726914Y-134207332D01*
X173726914Y-134207332D02*
X173774533Y-134302570D01*
X189059333Y-99486580D02*
X189011714Y-99534200D01*
X189011714Y-99534200D02*
X188868857Y-99581819D01*
X188868857Y-99581819D02*
X188773619Y-99581819D01*
X188773619Y-99581819D02*
X188630762Y-99534200D01*
X188630762Y-99534200D02*
X188535524Y-99438961D01*
X188535524Y-99438961D02*
X188487905Y-99343723D01*
X188487905Y-99343723D02*
X188440286Y-99153247D01*
X188440286Y-99153247D02*
X188440286Y-99010390D01*
X188440286Y-99010390D02*
X188487905Y-98819914D01*
X188487905Y-98819914D02*
X188535524Y-98724676D01*
X188535524Y-98724676D02*
X188630762Y-98629438D01*
X188630762Y-98629438D02*
X188773619Y-98581819D01*
X188773619Y-98581819D02*
X188868857Y-98581819D01*
X188868857Y-98581819D02*
X189011714Y-98629438D01*
X189011714Y-98629438D02*
X189059333Y-98677057D01*
X189392667Y-98581819D02*
X190059333Y-98581819D01*
X190059333Y-98581819D02*
X189630762Y-99581819D01*
X170386476Y-102959819D02*
X170386476Y-103674104D01*
X170386476Y-103674104D02*
X170338857Y-103816961D01*
X170338857Y-103816961D02*
X170243619Y-103912200D01*
X170243619Y-103912200D02*
X170100762Y-103959819D01*
X170100762Y-103959819D02*
X170005524Y-103959819D01*
X171386476Y-103959819D02*
X170815048Y-103959819D01*
X171100762Y-103959819D02*
X171100762Y-102959819D01*
X171100762Y-102959819D02*
X171005524Y-103102676D01*
X171005524Y-103102676D02*
X170910286Y-103197914D01*
X170910286Y-103197914D02*
X170815048Y-103245533D01*
X172243619Y-103293152D02*
X172243619Y-103959819D01*
X172005524Y-102912200D02*
X171767429Y-103626485D01*
X171767429Y-103626485D02*
X172386476Y-103626485D01*
X158998595Y-88420819D02*
X158998595Y-89230342D01*
X158998595Y-89230342D02*
X159046214Y-89325580D01*
X159046214Y-89325580D02*
X159093833Y-89373200D01*
X159093833Y-89373200D02*
X159189071Y-89420819D01*
X159189071Y-89420819D02*
X159379547Y-89420819D01*
X159379547Y-89420819D02*
X159474785Y-89373200D01*
X159474785Y-89373200D02*
X159522404Y-89325580D01*
X159522404Y-89325580D02*
X159570023Y-89230342D01*
X159570023Y-89230342D02*
X159570023Y-88420819D01*
X159950976Y-88420819D02*
X160570023Y-88420819D01*
X160570023Y-88420819D02*
X160236690Y-88801771D01*
X160236690Y-88801771D02*
X160379547Y-88801771D01*
X160379547Y-88801771D02*
X160474785Y-88849390D01*
X160474785Y-88849390D02*
X160522404Y-88897009D01*
X160522404Y-88897009D02*
X160570023Y-88992247D01*
X160570023Y-88992247D02*
X160570023Y-89230342D01*
X160570023Y-89230342D02*
X160522404Y-89325580D01*
X160522404Y-89325580D02*
X160474785Y-89373200D01*
X160474785Y-89373200D02*
X160379547Y-89420819D01*
X160379547Y-89420819D02*
X160093833Y-89420819D01*
X160093833Y-89420819D02*
X159998595Y-89373200D01*
X159998595Y-89373200D02*
X159950976Y-89325580D01*
X198316819Y-109421857D02*
X197840628Y-109755190D01*
X198316819Y-109993285D02*
X197316819Y-109993285D01*
X197316819Y-109993285D02*
X197316819Y-109612333D01*
X197316819Y-109612333D02*
X197364438Y-109517095D01*
X197364438Y-109517095D02*
X197412057Y-109469476D01*
X197412057Y-109469476D02*
X197507295Y-109421857D01*
X197507295Y-109421857D02*
X197650152Y-109421857D01*
X197650152Y-109421857D02*
X197745390Y-109469476D01*
X197745390Y-109469476D02*
X197793009Y-109517095D01*
X197793009Y-109517095D02*
X197840628Y-109612333D01*
X197840628Y-109612333D02*
X197840628Y-109993285D01*
X198316819Y-108469476D02*
X198316819Y-109040904D01*
X198316819Y-108755190D02*
X197316819Y-108755190D01*
X197316819Y-108755190D02*
X197459676Y-108850428D01*
X197459676Y-108850428D02*
X197554914Y-108945666D01*
X197554914Y-108945666D02*
X197602533Y-109040904D01*
X197316819Y-107850428D02*
X197316819Y-107755190D01*
X197316819Y-107755190D02*
X197364438Y-107659952D01*
X197364438Y-107659952D02*
X197412057Y-107612333D01*
X197412057Y-107612333D02*
X197507295Y-107564714D01*
X197507295Y-107564714D02*
X197697771Y-107517095D01*
X197697771Y-107517095D02*
X197935866Y-107517095D01*
X197935866Y-107517095D02*
X198126342Y-107564714D01*
X198126342Y-107564714D02*
X198221580Y-107612333D01*
X198221580Y-107612333D02*
X198269200Y-107659952D01*
X198269200Y-107659952D02*
X198316819Y-107755190D01*
X198316819Y-107755190D02*
X198316819Y-107850428D01*
X198316819Y-107850428D02*
X198269200Y-107945666D01*
X198269200Y-107945666D02*
X198221580Y-107993285D01*
X198221580Y-107993285D02*
X198126342Y-108040904D01*
X198126342Y-108040904D02*
X197935866Y-108088523D01*
X197935866Y-108088523D02*
X197697771Y-108088523D01*
X197697771Y-108088523D02*
X197507295Y-108040904D01*
X197507295Y-108040904D02*
X197412057Y-107993285D01*
X197412057Y-107993285D02*
X197364438Y-107945666D01*
X197364438Y-107945666D02*
X197316819Y-107850428D01*
X155821142Y-88084819D02*
X155487809Y-87608628D01*
X155249714Y-88084819D02*
X155249714Y-87084819D01*
X155249714Y-87084819D02*
X155630666Y-87084819D01*
X155630666Y-87084819D02*
X155725904Y-87132438D01*
X155725904Y-87132438D02*
X155773523Y-87180057D01*
X155773523Y-87180057D02*
X155821142Y-87275295D01*
X155821142Y-87275295D02*
X155821142Y-87418152D01*
X155821142Y-87418152D02*
X155773523Y-87513390D01*
X155773523Y-87513390D02*
X155725904Y-87561009D01*
X155725904Y-87561009D02*
X155630666Y-87608628D01*
X155630666Y-87608628D02*
X155249714Y-87608628D01*
X156202095Y-87180057D02*
X156249714Y-87132438D01*
X156249714Y-87132438D02*
X156344952Y-87084819D01*
X156344952Y-87084819D02*
X156583047Y-87084819D01*
X156583047Y-87084819D02*
X156678285Y-87132438D01*
X156678285Y-87132438D02*
X156725904Y-87180057D01*
X156725904Y-87180057D02*
X156773523Y-87275295D01*
X156773523Y-87275295D02*
X156773523Y-87370533D01*
X156773523Y-87370533D02*
X156725904Y-87513390D01*
X156725904Y-87513390D02*
X156154476Y-88084819D01*
X156154476Y-88084819D02*
X156773523Y-88084819D01*
X157630666Y-87084819D02*
X157440190Y-87084819D01*
X157440190Y-87084819D02*
X157344952Y-87132438D01*
X157344952Y-87132438D02*
X157297333Y-87180057D01*
X157297333Y-87180057D02*
X157202095Y-87322914D01*
X157202095Y-87322914D02*
X157154476Y-87513390D01*
X157154476Y-87513390D02*
X157154476Y-87894342D01*
X157154476Y-87894342D02*
X157202095Y-87989580D01*
X157202095Y-87989580D02*
X157249714Y-88037200D01*
X157249714Y-88037200D02*
X157344952Y-88084819D01*
X157344952Y-88084819D02*
X157535428Y-88084819D01*
X157535428Y-88084819D02*
X157630666Y-88037200D01*
X157630666Y-88037200D02*
X157678285Y-87989580D01*
X157678285Y-87989580D02*
X157725904Y-87894342D01*
X157725904Y-87894342D02*
X157725904Y-87656247D01*
X157725904Y-87656247D02*
X157678285Y-87561009D01*
X157678285Y-87561009D02*
X157630666Y-87513390D01*
X157630666Y-87513390D02*
X157535428Y-87465771D01*
X157535428Y-87465771D02*
X157344952Y-87465771D01*
X157344952Y-87465771D02*
X157249714Y-87513390D01*
X157249714Y-87513390D02*
X157202095Y-87561009D01*
X157202095Y-87561009D02*
X157154476Y-87656247D01*
X176730819Y-135516857D02*
X176254628Y-135850190D01*
X176730819Y-136088285D02*
X175730819Y-136088285D01*
X175730819Y-136088285D02*
X175730819Y-135707333D01*
X175730819Y-135707333D02*
X175778438Y-135612095D01*
X175778438Y-135612095D02*
X175826057Y-135564476D01*
X175826057Y-135564476D02*
X175921295Y-135516857D01*
X175921295Y-135516857D02*
X176064152Y-135516857D01*
X176064152Y-135516857D02*
X176159390Y-135564476D01*
X176159390Y-135564476D02*
X176207009Y-135612095D01*
X176207009Y-135612095D02*
X176254628Y-135707333D01*
X176254628Y-135707333D02*
X176254628Y-136088285D01*
X175826057Y-135135904D02*
X175778438Y-135088285D01*
X175778438Y-135088285D02*
X175730819Y-134993047D01*
X175730819Y-134993047D02*
X175730819Y-134754952D01*
X175730819Y-134754952D02*
X175778438Y-134659714D01*
X175778438Y-134659714D02*
X175826057Y-134612095D01*
X175826057Y-134612095D02*
X175921295Y-134564476D01*
X175921295Y-134564476D02*
X176016533Y-134564476D01*
X176016533Y-134564476D02*
X176159390Y-134612095D01*
X176159390Y-134612095D02*
X176730819Y-135183523D01*
X176730819Y-135183523D02*
X176730819Y-134564476D01*
X176730819Y-133612095D02*
X176730819Y-134183523D01*
X176730819Y-133897809D02*
X175730819Y-133897809D01*
X175730819Y-133897809D02*
X175873676Y-133993047D01*
X175873676Y-133993047D02*
X175968914Y-134088285D01*
X175968914Y-134088285D02*
X176016533Y-134183523D01*
X138281580Y-136786857D02*
X138329200Y-136834476D01*
X138329200Y-136834476D02*
X138376819Y-136977333D01*
X138376819Y-136977333D02*
X138376819Y-137072571D01*
X138376819Y-137072571D02*
X138329200Y-137215428D01*
X138329200Y-137215428D02*
X138233961Y-137310666D01*
X138233961Y-137310666D02*
X138138723Y-137358285D01*
X138138723Y-137358285D02*
X137948247Y-137405904D01*
X137948247Y-137405904D02*
X137805390Y-137405904D01*
X137805390Y-137405904D02*
X137614914Y-137358285D01*
X137614914Y-137358285D02*
X137519676Y-137310666D01*
X137519676Y-137310666D02*
X137424438Y-137215428D01*
X137424438Y-137215428D02*
X137376819Y-137072571D01*
X137376819Y-137072571D02*
X137376819Y-136977333D01*
X137376819Y-136977333D02*
X137424438Y-136834476D01*
X137424438Y-136834476D02*
X137472057Y-136786857D01*
X137472057Y-136405904D02*
X137424438Y-136358285D01*
X137424438Y-136358285D02*
X137376819Y-136263047D01*
X137376819Y-136263047D02*
X137376819Y-136024952D01*
X137376819Y-136024952D02*
X137424438Y-135929714D01*
X137424438Y-135929714D02*
X137472057Y-135882095D01*
X137472057Y-135882095D02*
X137567295Y-135834476D01*
X137567295Y-135834476D02*
X137662533Y-135834476D01*
X137662533Y-135834476D02*
X137805390Y-135882095D01*
X137805390Y-135882095D02*
X138376819Y-136453523D01*
X138376819Y-136453523D02*
X138376819Y-135834476D01*
X137710152Y-134977333D02*
X138376819Y-134977333D01*
X137329200Y-135215428D02*
X138043485Y-135453523D01*
X138043485Y-135453523D02*
X138043485Y-134834476D01*
D11*
X195151476Y-135220419D02*
X195151476Y-135934704D01*
X195151476Y-135934704D02*
X195103857Y-136077561D01*
X195103857Y-136077561D02*
X195008619Y-136172800D01*
X195008619Y-136172800D02*
X194865762Y-136220419D01*
X194865762Y-136220419D02*
X194770524Y-136220419D01*
X196151476Y-136220419D02*
X195580048Y-136220419D01*
X195865762Y-136220419D02*
X195865762Y-135220419D01*
X195865762Y-135220419D02*
X195770524Y-135363276D01*
X195770524Y-135363276D02*
X195675286Y-135458514D01*
X195675286Y-135458514D02*
X195580048Y-135506133D01*
X197056238Y-135220419D02*
X196580048Y-135220419D01*
X196580048Y-135220419D02*
X196532429Y-135696609D01*
X196532429Y-135696609D02*
X196580048Y-135648990D01*
X196580048Y-135648990D02*
X196675286Y-135601371D01*
X196675286Y-135601371D02*
X196913381Y-135601371D01*
X196913381Y-135601371D02*
X197008619Y-135648990D01*
X197008619Y-135648990D02*
X197056238Y-135696609D01*
X197056238Y-135696609D02*
X197103857Y-135791847D01*
X197103857Y-135791847D02*
X197103857Y-136029942D01*
X197103857Y-136029942D02*
X197056238Y-136125180D01*
X197056238Y-136125180D02*
X197008619Y-136172800D01*
X197008619Y-136172800D02*
X196913381Y-136220419D01*
X196913381Y-136220419D02*
X196675286Y-136220419D01*
X196675286Y-136220419D02*
X196580048Y-136172800D01*
X196580048Y-136172800D02*
X196532429Y-136125180D01*
D10*
X150727580Y-136786857D02*
X150775200Y-136834476D01*
X150775200Y-136834476D02*
X150822819Y-136977333D01*
X150822819Y-136977333D02*
X150822819Y-137072571D01*
X150822819Y-137072571D02*
X150775200Y-137215428D01*
X150775200Y-137215428D02*
X150679961Y-137310666D01*
X150679961Y-137310666D02*
X150584723Y-137358285D01*
X150584723Y-137358285D02*
X150394247Y-137405904D01*
X150394247Y-137405904D02*
X150251390Y-137405904D01*
X150251390Y-137405904D02*
X150060914Y-137358285D01*
X150060914Y-137358285D02*
X149965676Y-137310666D01*
X149965676Y-137310666D02*
X149870438Y-137215428D01*
X149870438Y-137215428D02*
X149822819Y-137072571D01*
X149822819Y-137072571D02*
X149822819Y-136977333D01*
X149822819Y-136977333D02*
X149870438Y-136834476D01*
X149870438Y-136834476D02*
X149918057Y-136786857D01*
X149918057Y-136405904D02*
X149870438Y-136358285D01*
X149870438Y-136358285D02*
X149822819Y-136263047D01*
X149822819Y-136263047D02*
X149822819Y-136024952D01*
X149822819Y-136024952D02*
X149870438Y-135929714D01*
X149870438Y-135929714D02*
X149918057Y-135882095D01*
X149918057Y-135882095D02*
X150013295Y-135834476D01*
X150013295Y-135834476D02*
X150108533Y-135834476D01*
X150108533Y-135834476D02*
X150251390Y-135882095D01*
X150251390Y-135882095D02*
X150822819Y-136453523D01*
X150822819Y-136453523D02*
X150822819Y-135834476D01*
X149822819Y-135501142D02*
X149822819Y-134882095D01*
X149822819Y-134882095D02*
X150203771Y-135215428D01*
X150203771Y-135215428D02*
X150203771Y-135072571D01*
X150203771Y-135072571D02*
X150251390Y-134977333D01*
X150251390Y-134977333D02*
X150299009Y-134929714D01*
X150299009Y-134929714D02*
X150394247Y-134882095D01*
X150394247Y-134882095D02*
X150632342Y-134882095D01*
X150632342Y-134882095D02*
X150727580Y-134929714D01*
X150727580Y-134929714D02*
X150775200Y-134977333D01*
X150775200Y-134977333D02*
X150822819Y-135072571D01*
X150822819Y-135072571D02*
X150822819Y-135358285D01*
X150822819Y-135358285D02*
X150775200Y-135453523D01*
X150775200Y-135453523D02*
X150727580Y-135501142D01*
X183239580Y-139326857D02*
X183287200Y-139374476D01*
X183287200Y-139374476D02*
X183334819Y-139517333D01*
X183334819Y-139517333D02*
X183334819Y-139612571D01*
X183334819Y-139612571D02*
X183287200Y-139755428D01*
X183287200Y-139755428D02*
X183191961Y-139850666D01*
X183191961Y-139850666D02*
X183096723Y-139898285D01*
X183096723Y-139898285D02*
X182906247Y-139945904D01*
X182906247Y-139945904D02*
X182763390Y-139945904D01*
X182763390Y-139945904D02*
X182572914Y-139898285D01*
X182572914Y-139898285D02*
X182477676Y-139850666D01*
X182477676Y-139850666D02*
X182382438Y-139755428D01*
X182382438Y-139755428D02*
X182334819Y-139612571D01*
X182334819Y-139612571D02*
X182334819Y-139517333D01*
X182334819Y-139517333D02*
X182382438Y-139374476D01*
X182382438Y-139374476D02*
X182430057Y-139326857D01*
X182430057Y-138945904D02*
X182382438Y-138898285D01*
X182382438Y-138898285D02*
X182334819Y-138803047D01*
X182334819Y-138803047D02*
X182334819Y-138564952D01*
X182334819Y-138564952D02*
X182382438Y-138469714D01*
X182382438Y-138469714D02*
X182430057Y-138422095D01*
X182430057Y-138422095D02*
X182525295Y-138374476D01*
X182525295Y-138374476D02*
X182620533Y-138374476D01*
X182620533Y-138374476D02*
X182763390Y-138422095D01*
X182763390Y-138422095D02*
X183334819Y-138993523D01*
X183334819Y-138993523D02*
X183334819Y-138374476D01*
X182334819Y-137755428D02*
X182334819Y-137660190D01*
X182334819Y-137660190D02*
X182382438Y-137564952D01*
X182382438Y-137564952D02*
X182430057Y-137517333D01*
X182430057Y-137517333D02*
X182525295Y-137469714D01*
X182525295Y-137469714D02*
X182715771Y-137422095D01*
X182715771Y-137422095D02*
X182953866Y-137422095D01*
X182953866Y-137422095D02*
X183144342Y-137469714D01*
X183144342Y-137469714D02*
X183239580Y-137517333D01*
X183239580Y-137517333D02*
X183287200Y-137564952D01*
X183287200Y-137564952D02*
X183334819Y-137660190D01*
X183334819Y-137660190D02*
X183334819Y-137755428D01*
X183334819Y-137755428D02*
X183287200Y-137850666D01*
X183287200Y-137850666D02*
X183239580Y-137898285D01*
X183239580Y-137898285D02*
X183144342Y-137945904D01*
X183144342Y-137945904D02*
X182953866Y-137993523D01*
X182953866Y-137993523D02*
X182715771Y-137993523D01*
X182715771Y-137993523D02*
X182525295Y-137945904D01*
X182525295Y-137945904D02*
X182430057Y-137898285D01*
X182430057Y-137898285D02*
X182382438Y-137850666D01*
X182382438Y-137850666D02*
X182334819Y-137755428D01*
X138676142Y-142567819D02*
X138342809Y-142091628D01*
X138104714Y-142567819D02*
X138104714Y-141567819D01*
X138104714Y-141567819D02*
X138485666Y-141567819D01*
X138485666Y-141567819D02*
X138580904Y-141615438D01*
X138580904Y-141615438D02*
X138628523Y-141663057D01*
X138628523Y-141663057D02*
X138676142Y-141758295D01*
X138676142Y-141758295D02*
X138676142Y-141901152D01*
X138676142Y-141901152D02*
X138628523Y-141996390D01*
X138628523Y-141996390D02*
X138580904Y-142044009D01*
X138580904Y-142044009D02*
X138485666Y-142091628D01*
X138485666Y-142091628D02*
X138104714Y-142091628D01*
X139057095Y-141663057D02*
X139104714Y-141615438D01*
X139104714Y-141615438D02*
X139199952Y-141567819D01*
X139199952Y-141567819D02*
X139438047Y-141567819D01*
X139438047Y-141567819D02*
X139533285Y-141615438D01*
X139533285Y-141615438D02*
X139580904Y-141663057D01*
X139580904Y-141663057D02*
X139628523Y-141758295D01*
X139628523Y-141758295D02*
X139628523Y-141853533D01*
X139628523Y-141853533D02*
X139580904Y-141996390D01*
X139580904Y-141996390D02*
X139009476Y-142567819D01*
X139009476Y-142567819D02*
X139628523Y-142567819D01*
X140485666Y-141901152D02*
X140485666Y-142567819D01*
X140247571Y-141520200D02*
X140009476Y-142234485D01*
X140009476Y-142234485D02*
X140628523Y-142234485D01*
X142263905Y-104975819D02*
X142263905Y-103975819D01*
X142263905Y-103975819D02*
X142502000Y-103975819D01*
X142502000Y-103975819D02*
X142644857Y-104023438D01*
X142644857Y-104023438D02*
X142740095Y-104118676D01*
X142740095Y-104118676D02*
X142787714Y-104213914D01*
X142787714Y-104213914D02*
X142835333Y-104404390D01*
X142835333Y-104404390D02*
X142835333Y-104547247D01*
X142835333Y-104547247D02*
X142787714Y-104737723D01*
X142787714Y-104737723D02*
X142740095Y-104832961D01*
X142740095Y-104832961D02*
X142644857Y-104928200D01*
X142644857Y-104928200D02*
X142502000Y-104975819D01*
X142502000Y-104975819D02*
X142263905Y-104975819D01*
X143406762Y-104404390D02*
X143311524Y-104356771D01*
X143311524Y-104356771D02*
X143263905Y-104309152D01*
X143263905Y-104309152D02*
X143216286Y-104213914D01*
X143216286Y-104213914D02*
X143216286Y-104166295D01*
X143216286Y-104166295D02*
X143263905Y-104071057D01*
X143263905Y-104071057D02*
X143311524Y-104023438D01*
X143311524Y-104023438D02*
X143406762Y-103975819D01*
X143406762Y-103975819D02*
X143597238Y-103975819D01*
X143597238Y-103975819D02*
X143692476Y-104023438D01*
X143692476Y-104023438D02*
X143740095Y-104071057D01*
X143740095Y-104071057D02*
X143787714Y-104166295D01*
X143787714Y-104166295D02*
X143787714Y-104213914D01*
X143787714Y-104213914D02*
X143740095Y-104309152D01*
X143740095Y-104309152D02*
X143692476Y-104356771D01*
X143692476Y-104356771D02*
X143597238Y-104404390D01*
X143597238Y-104404390D02*
X143406762Y-104404390D01*
X143406762Y-104404390D02*
X143311524Y-104452009D01*
X143311524Y-104452009D02*
X143263905Y-104499628D01*
X143263905Y-104499628D02*
X143216286Y-104594866D01*
X143216286Y-104594866D02*
X143216286Y-104785342D01*
X143216286Y-104785342D02*
X143263905Y-104880580D01*
X143263905Y-104880580D02*
X143311524Y-104928200D01*
X143311524Y-104928200D02*
X143406762Y-104975819D01*
X143406762Y-104975819D02*
X143597238Y-104975819D01*
X143597238Y-104975819D02*
X143692476Y-104928200D01*
X143692476Y-104928200D02*
X143740095Y-104880580D01*
X143740095Y-104880580D02*
X143787714Y-104785342D01*
X143787714Y-104785342D02*
X143787714Y-104594866D01*
X143787714Y-104594866D02*
X143740095Y-104499628D01*
X143740095Y-104499628D02*
X143692476Y-104452009D01*
X143692476Y-104452009D02*
X143597238Y-104404390D01*
X183489580Y-111040666D02*
X183537200Y-111088285D01*
X183537200Y-111088285D02*
X183584819Y-111231142D01*
X183584819Y-111231142D02*
X183584819Y-111326380D01*
X183584819Y-111326380D02*
X183537200Y-111469237D01*
X183537200Y-111469237D02*
X183441961Y-111564475D01*
X183441961Y-111564475D02*
X183346723Y-111612094D01*
X183346723Y-111612094D02*
X183156247Y-111659713D01*
X183156247Y-111659713D02*
X183013390Y-111659713D01*
X183013390Y-111659713D02*
X182822914Y-111612094D01*
X182822914Y-111612094D02*
X182727676Y-111564475D01*
X182727676Y-111564475D02*
X182632438Y-111469237D01*
X182632438Y-111469237D02*
X182584819Y-111326380D01*
X182584819Y-111326380D02*
X182584819Y-111231142D01*
X182584819Y-111231142D02*
X182632438Y-111088285D01*
X182632438Y-111088285D02*
X182680057Y-111040666D01*
X182584819Y-110183523D02*
X182584819Y-110373999D01*
X182584819Y-110373999D02*
X182632438Y-110469237D01*
X182632438Y-110469237D02*
X182680057Y-110516856D01*
X182680057Y-110516856D02*
X182822914Y-110612094D01*
X182822914Y-110612094D02*
X183013390Y-110659713D01*
X183013390Y-110659713D02*
X183394342Y-110659713D01*
X183394342Y-110659713D02*
X183489580Y-110612094D01*
X183489580Y-110612094D02*
X183537200Y-110564475D01*
X183537200Y-110564475D02*
X183584819Y-110469237D01*
X183584819Y-110469237D02*
X183584819Y-110278761D01*
X183584819Y-110278761D02*
X183537200Y-110183523D01*
X183537200Y-110183523D02*
X183489580Y-110135904D01*
X183489580Y-110135904D02*
X183394342Y-110088285D01*
X183394342Y-110088285D02*
X183156247Y-110088285D01*
X183156247Y-110088285D02*
X183061009Y-110135904D01*
X183061009Y-110135904D02*
X183013390Y-110183523D01*
X183013390Y-110183523D02*
X182965771Y-110278761D01*
X182965771Y-110278761D02*
X182965771Y-110469237D01*
X182965771Y-110469237D02*
X183013390Y-110564475D01*
X183013390Y-110564475D02*
X183061009Y-110612094D01*
X183061009Y-110612094D02*
X183156247Y-110659713D01*
X180159819Y-93892666D02*
X179683628Y-94225999D01*
X180159819Y-94464094D02*
X179159819Y-94464094D01*
X179159819Y-94464094D02*
X179159819Y-94083142D01*
X179159819Y-94083142D02*
X179207438Y-93987904D01*
X179207438Y-93987904D02*
X179255057Y-93940285D01*
X179255057Y-93940285D02*
X179350295Y-93892666D01*
X179350295Y-93892666D02*
X179493152Y-93892666D01*
X179493152Y-93892666D02*
X179588390Y-93940285D01*
X179588390Y-93940285D02*
X179636009Y-93987904D01*
X179636009Y-93987904D02*
X179683628Y-94083142D01*
X179683628Y-94083142D02*
X179683628Y-94464094D01*
X180159819Y-92940285D02*
X180159819Y-93511713D01*
X180159819Y-93225999D02*
X179159819Y-93225999D01*
X179159819Y-93225999D02*
X179302676Y-93321237D01*
X179302676Y-93321237D02*
X179397914Y-93416475D01*
X179397914Y-93416475D02*
X179445533Y-93511713D01*
X176254580Y-113926857D02*
X176302200Y-113974476D01*
X176302200Y-113974476D02*
X176349819Y-114117333D01*
X176349819Y-114117333D02*
X176349819Y-114212571D01*
X176349819Y-114212571D02*
X176302200Y-114355428D01*
X176302200Y-114355428D02*
X176206961Y-114450666D01*
X176206961Y-114450666D02*
X176111723Y-114498285D01*
X176111723Y-114498285D02*
X175921247Y-114545904D01*
X175921247Y-114545904D02*
X175778390Y-114545904D01*
X175778390Y-114545904D02*
X175587914Y-114498285D01*
X175587914Y-114498285D02*
X175492676Y-114450666D01*
X175492676Y-114450666D02*
X175397438Y-114355428D01*
X175397438Y-114355428D02*
X175349819Y-114212571D01*
X175349819Y-114212571D02*
X175349819Y-114117333D01*
X175349819Y-114117333D02*
X175397438Y-113974476D01*
X175397438Y-113974476D02*
X175445057Y-113926857D01*
X175349819Y-113593523D02*
X175349819Y-112974476D01*
X175349819Y-112974476D02*
X175730771Y-113307809D01*
X175730771Y-113307809D02*
X175730771Y-113164952D01*
X175730771Y-113164952D02*
X175778390Y-113069714D01*
X175778390Y-113069714D02*
X175826009Y-113022095D01*
X175826009Y-113022095D02*
X175921247Y-112974476D01*
X175921247Y-112974476D02*
X176159342Y-112974476D01*
X176159342Y-112974476D02*
X176254580Y-113022095D01*
X176254580Y-113022095D02*
X176302200Y-113069714D01*
X176302200Y-113069714D02*
X176349819Y-113164952D01*
X176349819Y-113164952D02*
X176349819Y-113450666D01*
X176349819Y-113450666D02*
X176302200Y-113545904D01*
X176302200Y-113545904D02*
X176254580Y-113593523D01*
X175349819Y-112641142D02*
X175349819Y-111974476D01*
X175349819Y-111974476D02*
X176349819Y-112403047D01*
X165092142Y-124406819D02*
X164758809Y-123930628D01*
X164520714Y-124406819D02*
X164520714Y-123406819D01*
X164520714Y-123406819D02*
X164901666Y-123406819D01*
X164901666Y-123406819D02*
X164996904Y-123454438D01*
X164996904Y-123454438D02*
X165044523Y-123502057D01*
X165044523Y-123502057D02*
X165092142Y-123597295D01*
X165092142Y-123597295D02*
X165092142Y-123740152D01*
X165092142Y-123740152D02*
X165044523Y-123835390D01*
X165044523Y-123835390D02*
X164996904Y-123883009D01*
X164996904Y-123883009D02*
X164901666Y-123930628D01*
X164901666Y-123930628D02*
X164520714Y-123930628D01*
X165473095Y-123502057D02*
X165520714Y-123454438D01*
X165520714Y-123454438D02*
X165615952Y-123406819D01*
X165615952Y-123406819D02*
X165854047Y-123406819D01*
X165854047Y-123406819D02*
X165949285Y-123454438D01*
X165949285Y-123454438D02*
X165996904Y-123502057D01*
X165996904Y-123502057D02*
X166044523Y-123597295D01*
X166044523Y-123597295D02*
X166044523Y-123692533D01*
X166044523Y-123692533D02*
X165996904Y-123835390D01*
X165996904Y-123835390D02*
X165425476Y-124406819D01*
X165425476Y-124406819D02*
X166044523Y-124406819D01*
X166520714Y-124406819D02*
X166711190Y-124406819D01*
X166711190Y-124406819D02*
X166806428Y-124359200D01*
X166806428Y-124359200D02*
X166854047Y-124311580D01*
X166854047Y-124311580D02*
X166949285Y-124168723D01*
X166949285Y-124168723D02*
X166996904Y-123978247D01*
X166996904Y-123978247D02*
X166996904Y-123597295D01*
X166996904Y-123597295D02*
X166949285Y-123502057D01*
X166949285Y-123502057D02*
X166901666Y-123454438D01*
X166901666Y-123454438D02*
X166806428Y-123406819D01*
X166806428Y-123406819D02*
X166615952Y-123406819D01*
X166615952Y-123406819D02*
X166520714Y-123454438D01*
X166520714Y-123454438D02*
X166473095Y-123502057D01*
X166473095Y-123502057D02*
X166425476Y-123597295D01*
X166425476Y-123597295D02*
X166425476Y-123835390D01*
X166425476Y-123835390D02*
X166473095Y-123930628D01*
X166473095Y-123930628D02*
X166520714Y-123978247D01*
X166520714Y-123978247D02*
X166615952Y-124025866D01*
X166615952Y-124025866D02*
X166806428Y-124025866D01*
X166806428Y-124025866D02*
X166901666Y-123978247D01*
X166901666Y-123978247D02*
X166949285Y-123930628D01*
X166949285Y-123930628D02*
X166996904Y-123835390D01*
X154605319Y-97985857D02*
X154129128Y-98319190D01*
X154605319Y-98557285D02*
X153605319Y-98557285D01*
X153605319Y-98557285D02*
X153605319Y-98176333D01*
X153605319Y-98176333D02*
X153652938Y-98081095D01*
X153652938Y-98081095D02*
X153700557Y-98033476D01*
X153700557Y-98033476D02*
X153795795Y-97985857D01*
X153795795Y-97985857D02*
X153938652Y-97985857D01*
X153938652Y-97985857D02*
X154033890Y-98033476D01*
X154033890Y-98033476D02*
X154081509Y-98081095D01*
X154081509Y-98081095D02*
X154129128Y-98176333D01*
X154129128Y-98176333D02*
X154129128Y-98557285D01*
X153605319Y-97652523D02*
X153605319Y-97033476D01*
X153605319Y-97033476D02*
X153986271Y-97366809D01*
X153986271Y-97366809D02*
X153986271Y-97223952D01*
X153986271Y-97223952D02*
X154033890Y-97128714D01*
X154033890Y-97128714D02*
X154081509Y-97081095D01*
X154081509Y-97081095D02*
X154176747Y-97033476D01*
X154176747Y-97033476D02*
X154414842Y-97033476D01*
X154414842Y-97033476D02*
X154510080Y-97081095D01*
X154510080Y-97081095D02*
X154557700Y-97128714D01*
X154557700Y-97128714D02*
X154605319Y-97223952D01*
X154605319Y-97223952D02*
X154605319Y-97509666D01*
X154605319Y-97509666D02*
X154557700Y-97604904D01*
X154557700Y-97604904D02*
X154510080Y-97652523D01*
X153605319Y-96414428D02*
X153605319Y-96319190D01*
X153605319Y-96319190D02*
X153652938Y-96223952D01*
X153652938Y-96223952D02*
X153700557Y-96176333D01*
X153700557Y-96176333D02*
X153795795Y-96128714D01*
X153795795Y-96128714D02*
X153986271Y-96081095D01*
X153986271Y-96081095D02*
X154224366Y-96081095D01*
X154224366Y-96081095D02*
X154414842Y-96128714D01*
X154414842Y-96128714D02*
X154510080Y-96176333D01*
X154510080Y-96176333D02*
X154557700Y-96223952D01*
X154557700Y-96223952D02*
X154605319Y-96319190D01*
X154605319Y-96319190D02*
X154605319Y-96414428D01*
X154605319Y-96414428D02*
X154557700Y-96509666D01*
X154557700Y-96509666D02*
X154510080Y-96557285D01*
X154510080Y-96557285D02*
X154414842Y-96604904D01*
X154414842Y-96604904D02*
X154224366Y-96652523D01*
X154224366Y-96652523D02*
X153986271Y-96652523D01*
X153986271Y-96652523D02*
X153795795Y-96604904D01*
X153795795Y-96604904D02*
X153700557Y-96557285D01*
X153700557Y-96557285D02*
X153652938Y-96509666D01*
X153652938Y-96509666D02*
X153605319Y-96414428D01*
X192220819Y-109199666D02*
X191744628Y-109532999D01*
X192220819Y-109771094D02*
X191220819Y-109771094D01*
X191220819Y-109771094D02*
X191220819Y-109390142D01*
X191220819Y-109390142D02*
X191268438Y-109294904D01*
X191268438Y-109294904D02*
X191316057Y-109247285D01*
X191316057Y-109247285D02*
X191411295Y-109199666D01*
X191411295Y-109199666D02*
X191554152Y-109199666D01*
X191554152Y-109199666D02*
X191649390Y-109247285D01*
X191649390Y-109247285D02*
X191697009Y-109294904D01*
X191697009Y-109294904D02*
X191744628Y-109390142D01*
X191744628Y-109390142D02*
X191744628Y-109771094D01*
X191220819Y-108866332D02*
X191220819Y-108247285D01*
X191220819Y-108247285D02*
X191601771Y-108580618D01*
X191601771Y-108580618D02*
X191601771Y-108437761D01*
X191601771Y-108437761D02*
X191649390Y-108342523D01*
X191649390Y-108342523D02*
X191697009Y-108294904D01*
X191697009Y-108294904D02*
X191792247Y-108247285D01*
X191792247Y-108247285D02*
X192030342Y-108247285D01*
X192030342Y-108247285D02*
X192125580Y-108294904D01*
X192125580Y-108294904D02*
X192173200Y-108342523D01*
X192173200Y-108342523D02*
X192220819Y-108437761D01*
X192220819Y-108437761D02*
X192220819Y-108723475D01*
X192220819Y-108723475D02*
X192173200Y-108818713D01*
X192173200Y-108818713D02*
X192125580Y-108866332D01*
X194252819Y-109167857D02*
X193776628Y-109501190D01*
X194252819Y-109739285D02*
X193252819Y-109739285D01*
X193252819Y-109739285D02*
X193252819Y-109358333D01*
X193252819Y-109358333D02*
X193300438Y-109263095D01*
X193300438Y-109263095D02*
X193348057Y-109215476D01*
X193348057Y-109215476D02*
X193443295Y-109167857D01*
X193443295Y-109167857D02*
X193586152Y-109167857D01*
X193586152Y-109167857D02*
X193681390Y-109215476D01*
X193681390Y-109215476D02*
X193729009Y-109263095D01*
X193729009Y-109263095D02*
X193776628Y-109358333D01*
X193776628Y-109358333D02*
X193776628Y-109739285D01*
X194252819Y-108215476D02*
X194252819Y-108786904D01*
X194252819Y-108501190D02*
X193252819Y-108501190D01*
X193252819Y-108501190D02*
X193395676Y-108596428D01*
X193395676Y-108596428D02*
X193490914Y-108691666D01*
X193490914Y-108691666D02*
X193538533Y-108786904D01*
X194252819Y-107263095D02*
X194252819Y-107834523D01*
X194252819Y-107548809D02*
X193252819Y-107548809D01*
X193252819Y-107548809D02*
X193395676Y-107644047D01*
X193395676Y-107644047D02*
X193490914Y-107739285D01*
X193490914Y-107739285D02*
X193538533Y-107834523D01*
X198316819Y-99801666D02*
X197840628Y-100134999D01*
X198316819Y-100373094D02*
X197316819Y-100373094D01*
X197316819Y-100373094D02*
X197316819Y-99992142D01*
X197316819Y-99992142D02*
X197364438Y-99896904D01*
X197364438Y-99896904D02*
X197412057Y-99849285D01*
X197412057Y-99849285D02*
X197507295Y-99801666D01*
X197507295Y-99801666D02*
X197650152Y-99801666D01*
X197650152Y-99801666D02*
X197745390Y-99849285D01*
X197745390Y-99849285D02*
X197793009Y-99896904D01*
X197793009Y-99896904D02*
X197840628Y-99992142D01*
X197840628Y-99992142D02*
X197840628Y-100373094D01*
X197316819Y-99468332D02*
X197316819Y-98801666D01*
X197316819Y-98801666D02*
X198316819Y-99230237D01*
D11*
X163800667Y-106073800D02*
X163943524Y-106121419D01*
X163943524Y-106121419D02*
X164181619Y-106121419D01*
X164181619Y-106121419D02*
X164276857Y-106073800D01*
X164276857Y-106073800D02*
X164324476Y-106026180D01*
X164324476Y-106026180D02*
X164372095Y-105930942D01*
X164372095Y-105930942D02*
X164372095Y-105835704D01*
X164372095Y-105835704D02*
X164324476Y-105740466D01*
X164324476Y-105740466D02*
X164276857Y-105692847D01*
X164276857Y-105692847D02*
X164181619Y-105645228D01*
X164181619Y-105645228D02*
X163991143Y-105597609D01*
X163991143Y-105597609D02*
X163895905Y-105549990D01*
X163895905Y-105549990D02*
X163848286Y-105502371D01*
X163848286Y-105502371D02*
X163800667Y-105407133D01*
X163800667Y-105407133D02*
X163800667Y-105311895D01*
X163800667Y-105311895D02*
X163848286Y-105216657D01*
X163848286Y-105216657D02*
X163895905Y-105169038D01*
X163895905Y-105169038D02*
X163991143Y-105121419D01*
X163991143Y-105121419D02*
X164229238Y-105121419D01*
X164229238Y-105121419D02*
X164372095Y-105169038D01*
X164705429Y-105121419D02*
X164943524Y-106121419D01*
X164943524Y-106121419D02*
X165134000Y-105407133D01*
X165134000Y-105407133D02*
X165324476Y-106121419D01*
X165324476Y-106121419D02*
X165562572Y-105121419D01*
X165895905Y-105216657D02*
X165943524Y-105169038D01*
X165943524Y-105169038D02*
X166038762Y-105121419D01*
X166038762Y-105121419D02*
X166276857Y-105121419D01*
X166276857Y-105121419D02*
X166372095Y-105169038D01*
X166372095Y-105169038D02*
X166419714Y-105216657D01*
X166419714Y-105216657D02*
X166467333Y-105311895D01*
X166467333Y-105311895D02*
X166467333Y-105407133D01*
X166467333Y-105407133D02*
X166419714Y-105549990D01*
X166419714Y-105549990D02*
X165848286Y-106121419D01*
X165848286Y-106121419D02*
X166467333Y-106121419D01*
D10*
X139946142Y-146057580D02*
X139898523Y-146105200D01*
X139898523Y-146105200D02*
X139755666Y-146152819D01*
X139755666Y-146152819D02*
X139660428Y-146152819D01*
X139660428Y-146152819D02*
X139517571Y-146105200D01*
X139517571Y-146105200D02*
X139422333Y-146009961D01*
X139422333Y-146009961D02*
X139374714Y-145914723D01*
X139374714Y-145914723D02*
X139327095Y-145724247D01*
X139327095Y-145724247D02*
X139327095Y-145581390D01*
X139327095Y-145581390D02*
X139374714Y-145390914D01*
X139374714Y-145390914D02*
X139422333Y-145295676D01*
X139422333Y-145295676D02*
X139517571Y-145200438D01*
X139517571Y-145200438D02*
X139660428Y-145152819D01*
X139660428Y-145152819D02*
X139755666Y-145152819D01*
X139755666Y-145152819D02*
X139898523Y-145200438D01*
X139898523Y-145200438D02*
X139946142Y-145248057D01*
X140279476Y-145152819D02*
X140898523Y-145152819D01*
X140898523Y-145152819D02*
X140565190Y-145533771D01*
X140565190Y-145533771D02*
X140708047Y-145533771D01*
X140708047Y-145533771D02*
X140803285Y-145581390D01*
X140803285Y-145581390D02*
X140850904Y-145629009D01*
X140850904Y-145629009D02*
X140898523Y-145724247D01*
X140898523Y-145724247D02*
X140898523Y-145962342D01*
X140898523Y-145962342D02*
X140850904Y-146057580D01*
X140850904Y-146057580D02*
X140803285Y-146105200D01*
X140803285Y-146105200D02*
X140708047Y-146152819D01*
X140708047Y-146152819D02*
X140422333Y-146152819D01*
X140422333Y-146152819D02*
X140327095Y-146105200D01*
X140327095Y-146105200D02*
X140279476Y-146057580D01*
X141469952Y-145581390D02*
X141374714Y-145533771D01*
X141374714Y-145533771D02*
X141327095Y-145486152D01*
X141327095Y-145486152D02*
X141279476Y-145390914D01*
X141279476Y-145390914D02*
X141279476Y-145343295D01*
X141279476Y-145343295D02*
X141327095Y-145248057D01*
X141327095Y-145248057D02*
X141374714Y-145200438D01*
X141374714Y-145200438D02*
X141469952Y-145152819D01*
X141469952Y-145152819D02*
X141660428Y-145152819D01*
X141660428Y-145152819D02*
X141755666Y-145200438D01*
X141755666Y-145200438D02*
X141803285Y-145248057D01*
X141803285Y-145248057D02*
X141850904Y-145343295D01*
X141850904Y-145343295D02*
X141850904Y-145390914D01*
X141850904Y-145390914D02*
X141803285Y-145486152D01*
X141803285Y-145486152D02*
X141755666Y-145533771D01*
X141755666Y-145533771D02*
X141660428Y-145581390D01*
X141660428Y-145581390D02*
X141469952Y-145581390D01*
X141469952Y-145581390D02*
X141374714Y-145629009D01*
X141374714Y-145629009D02*
X141327095Y-145676628D01*
X141327095Y-145676628D02*
X141279476Y-145771866D01*
X141279476Y-145771866D02*
X141279476Y-145962342D01*
X141279476Y-145962342D02*
X141327095Y-146057580D01*
X141327095Y-146057580D02*
X141374714Y-146105200D01*
X141374714Y-146105200D02*
X141469952Y-146152819D01*
X141469952Y-146152819D02*
X141660428Y-146152819D01*
X141660428Y-146152819D02*
X141755666Y-146105200D01*
X141755666Y-146105200D02*
X141803285Y-146057580D01*
X141803285Y-146057580D02*
X141850904Y-145962342D01*
X141850904Y-145962342D02*
X141850904Y-145771866D01*
X141850904Y-145771866D02*
X141803285Y-145676628D01*
X141803285Y-145676628D02*
X141755666Y-145629009D01*
X141755666Y-145629009D02*
X141660428Y-145581390D01*
X139946142Y-124438580D02*
X139898523Y-124486200D01*
X139898523Y-124486200D02*
X139755666Y-124533819D01*
X139755666Y-124533819D02*
X139660428Y-124533819D01*
X139660428Y-124533819D02*
X139517571Y-124486200D01*
X139517571Y-124486200D02*
X139422333Y-124390961D01*
X139422333Y-124390961D02*
X139374714Y-124295723D01*
X139374714Y-124295723D02*
X139327095Y-124105247D01*
X139327095Y-124105247D02*
X139327095Y-123962390D01*
X139327095Y-123962390D02*
X139374714Y-123771914D01*
X139374714Y-123771914D02*
X139422333Y-123676676D01*
X139422333Y-123676676D02*
X139517571Y-123581438D01*
X139517571Y-123581438D02*
X139660428Y-123533819D01*
X139660428Y-123533819D02*
X139755666Y-123533819D01*
X139755666Y-123533819D02*
X139898523Y-123581438D01*
X139898523Y-123581438D02*
X139946142Y-123629057D01*
X140327095Y-123629057D02*
X140374714Y-123581438D01*
X140374714Y-123581438D02*
X140469952Y-123533819D01*
X140469952Y-123533819D02*
X140708047Y-123533819D01*
X140708047Y-123533819D02*
X140803285Y-123581438D01*
X140803285Y-123581438D02*
X140850904Y-123629057D01*
X140850904Y-123629057D02*
X140898523Y-123724295D01*
X140898523Y-123724295D02*
X140898523Y-123819533D01*
X140898523Y-123819533D02*
X140850904Y-123962390D01*
X140850904Y-123962390D02*
X140279476Y-124533819D01*
X140279476Y-124533819D02*
X140898523Y-124533819D01*
X141755666Y-123533819D02*
X141565190Y-123533819D01*
X141565190Y-123533819D02*
X141469952Y-123581438D01*
X141469952Y-123581438D02*
X141422333Y-123629057D01*
X141422333Y-123629057D02*
X141327095Y-123771914D01*
X141327095Y-123771914D02*
X141279476Y-123962390D01*
X141279476Y-123962390D02*
X141279476Y-124343342D01*
X141279476Y-124343342D02*
X141327095Y-124438580D01*
X141327095Y-124438580D02*
X141374714Y-124486200D01*
X141374714Y-124486200D02*
X141469952Y-124533819D01*
X141469952Y-124533819D02*
X141660428Y-124533819D01*
X141660428Y-124533819D02*
X141755666Y-124486200D01*
X141755666Y-124486200D02*
X141803285Y-124438580D01*
X141803285Y-124438580D02*
X141850904Y-124343342D01*
X141850904Y-124343342D02*
X141850904Y-124105247D01*
X141850904Y-124105247D02*
X141803285Y-124010009D01*
X141803285Y-124010009D02*
X141755666Y-123962390D01*
X141755666Y-123962390D02*
X141660428Y-123914771D01*
X141660428Y-123914771D02*
X141469952Y-123914771D01*
X141469952Y-123914771D02*
X141374714Y-123962390D01*
X141374714Y-123962390D02*
X141327095Y-124010009D01*
X141327095Y-124010009D02*
X141279476Y-124105247D01*
X146199819Y-131571904D02*
X147009342Y-131571904D01*
X147009342Y-131571904D02*
X147104580Y-131524285D01*
X147104580Y-131524285D02*
X147152200Y-131476666D01*
X147152200Y-131476666D02*
X147199819Y-131381428D01*
X147199819Y-131381428D02*
X147199819Y-131190952D01*
X147199819Y-131190952D02*
X147152200Y-131095714D01*
X147152200Y-131095714D02*
X147104580Y-131048095D01*
X147104580Y-131048095D02*
X147009342Y-131000476D01*
X147009342Y-131000476D02*
X146199819Y-131000476D01*
X146628390Y-130381428D02*
X146580771Y-130476666D01*
X146580771Y-130476666D02*
X146533152Y-130524285D01*
X146533152Y-130524285D02*
X146437914Y-130571904D01*
X146437914Y-130571904D02*
X146390295Y-130571904D01*
X146390295Y-130571904D02*
X146295057Y-130524285D01*
X146295057Y-130524285D02*
X146247438Y-130476666D01*
X146247438Y-130476666D02*
X146199819Y-130381428D01*
X146199819Y-130381428D02*
X146199819Y-130190952D01*
X146199819Y-130190952D02*
X146247438Y-130095714D01*
X146247438Y-130095714D02*
X146295057Y-130048095D01*
X146295057Y-130048095D02*
X146390295Y-130000476D01*
X146390295Y-130000476D02*
X146437914Y-130000476D01*
X146437914Y-130000476D02*
X146533152Y-130048095D01*
X146533152Y-130048095D02*
X146580771Y-130095714D01*
X146580771Y-130095714D02*
X146628390Y-130190952D01*
X146628390Y-130190952D02*
X146628390Y-130381428D01*
X146628390Y-130381428D02*
X146676009Y-130476666D01*
X146676009Y-130476666D02*
X146723628Y-130524285D01*
X146723628Y-130524285D02*
X146818866Y-130571904D01*
X146818866Y-130571904D02*
X147009342Y-130571904D01*
X147009342Y-130571904D02*
X147104580Y-130524285D01*
X147104580Y-130524285D02*
X147152200Y-130476666D01*
X147152200Y-130476666D02*
X147199819Y-130381428D01*
X147199819Y-130381428D02*
X147199819Y-130190952D01*
X147199819Y-130190952D02*
X147152200Y-130095714D01*
X147152200Y-130095714D02*
X147104580Y-130048095D01*
X147104580Y-130048095D02*
X147009342Y-130000476D01*
X147009342Y-130000476D02*
X146818866Y-130000476D01*
X146818866Y-130000476D02*
X146723628Y-130048095D01*
X146723628Y-130048095D02*
X146676009Y-130095714D01*
X146676009Y-130095714D02*
X146628390Y-130190952D01*
X157972080Y-98371857D02*
X158019700Y-98419476D01*
X158019700Y-98419476D02*
X158067319Y-98562333D01*
X158067319Y-98562333D02*
X158067319Y-98657571D01*
X158067319Y-98657571D02*
X158019700Y-98800428D01*
X158019700Y-98800428D02*
X157924461Y-98895666D01*
X157924461Y-98895666D02*
X157829223Y-98943285D01*
X157829223Y-98943285D02*
X157638747Y-98990904D01*
X157638747Y-98990904D02*
X157495890Y-98990904D01*
X157495890Y-98990904D02*
X157305414Y-98943285D01*
X157305414Y-98943285D02*
X157210176Y-98895666D01*
X157210176Y-98895666D02*
X157114938Y-98800428D01*
X157114938Y-98800428D02*
X157067319Y-98657571D01*
X157067319Y-98657571D02*
X157067319Y-98562333D01*
X157067319Y-98562333D02*
X157114938Y-98419476D01*
X157114938Y-98419476D02*
X157162557Y-98371857D01*
X157067319Y-98038523D02*
X157067319Y-97419476D01*
X157067319Y-97419476D02*
X157448271Y-97752809D01*
X157448271Y-97752809D02*
X157448271Y-97609952D01*
X157448271Y-97609952D02*
X157495890Y-97514714D01*
X157495890Y-97514714D02*
X157543509Y-97467095D01*
X157543509Y-97467095D02*
X157638747Y-97419476D01*
X157638747Y-97419476D02*
X157876842Y-97419476D01*
X157876842Y-97419476D02*
X157972080Y-97467095D01*
X157972080Y-97467095D02*
X158019700Y-97514714D01*
X158019700Y-97514714D02*
X158067319Y-97609952D01*
X158067319Y-97609952D02*
X158067319Y-97895666D01*
X158067319Y-97895666D02*
X158019700Y-97990904D01*
X158019700Y-97990904D02*
X157972080Y-98038523D01*
X157067319Y-97086142D02*
X157067319Y-96467095D01*
X157067319Y-96467095D02*
X157448271Y-96800428D01*
X157448271Y-96800428D02*
X157448271Y-96657571D01*
X157448271Y-96657571D02*
X157495890Y-96562333D01*
X157495890Y-96562333D02*
X157543509Y-96514714D01*
X157543509Y-96514714D02*
X157638747Y-96467095D01*
X157638747Y-96467095D02*
X157876842Y-96467095D01*
X157876842Y-96467095D02*
X157972080Y-96514714D01*
X157972080Y-96514714D02*
X158019700Y-96562333D01*
X158019700Y-96562333D02*
X158067319Y-96657571D01*
X158067319Y-96657571D02*
X158067319Y-96943285D01*
X158067319Y-96943285D02*
X158019700Y-97038523D01*
X158019700Y-97038523D02*
X157972080Y-97086142D01*
X173823333Y-99038580D02*
X173775714Y-99086200D01*
X173775714Y-99086200D02*
X173632857Y-99133819D01*
X173632857Y-99133819D02*
X173537619Y-99133819D01*
X173537619Y-99133819D02*
X173394762Y-99086200D01*
X173394762Y-99086200D02*
X173299524Y-98990961D01*
X173299524Y-98990961D02*
X173251905Y-98895723D01*
X173251905Y-98895723D02*
X173204286Y-98705247D01*
X173204286Y-98705247D02*
X173204286Y-98562390D01*
X173204286Y-98562390D02*
X173251905Y-98371914D01*
X173251905Y-98371914D02*
X173299524Y-98276676D01*
X173299524Y-98276676D02*
X173394762Y-98181438D01*
X173394762Y-98181438D02*
X173537619Y-98133819D01*
X173537619Y-98133819D02*
X173632857Y-98133819D01*
X173632857Y-98133819D02*
X173775714Y-98181438D01*
X173775714Y-98181438D02*
X173823333Y-98229057D01*
X174156667Y-98133819D02*
X174775714Y-98133819D01*
X174775714Y-98133819D02*
X174442381Y-98514771D01*
X174442381Y-98514771D02*
X174585238Y-98514771D01*
X174585238Y-98514771D02*
X174680476Y-98562390D01*
X174680476Y-98562390D02*
X174728095Y-98610009D01*
X174728095Y-98610009D02*
X174775714Y-98705247D01*
X174775714Y-98705247D02*
X174775714Y-98943342D01*
X174775714Y-98943342D02*
X174728095Y-99038580D01*
X174728095Y-99038580D02*
X174680476Y-99086200D01*
X174680476Y-99086200D02*
X174585238Y-99133819D01*
X174585238Y-99133819D02*
X174299524Y-99133819D01*
X174299524Y-99133819D02*
X174204286Y-99086200D01*
X174204286Y-99086200D02*
X174156667Y-99038580D01*
X170386476Y-87338819D02*
X170386476Y-88053104D01*
X170386476Y-88053104D02*
X170338857Y-88195961D01*
X170338857Y-88195961D02*
X170243619Y-88291200D01*
X170243619Y-88291200D02*
X170100762Y-88338819D01*
X170100762Y-88338819D02*
X170005524Y-88338819D01*
X171386476Y-88338819D02*
X170815048Y-88338819D01*
X171100762Y-88338819D02*
X171100762Y-87338819D01*
X171100762Y-87338819D02*
X171005524Y-87481676D01*
X171005524Y-87481676D02*
X170910286Y-87576914D01*
X170910286Y-87576914D02*
X170815048Y-87624533D01*
X171767429Y-87434057D02*
X171815048Y-87386438D01*
X171815048Y-87386438D02*
X171910286Y-87338819D01*
X171910286Y-87338819D02*
X172148381Y-87338819D01*
X172148381Y-87338819D02*
X172243619Y-87386438D01*
X172243619Y-87386438D02*
X172291238Y-87434057D01*
X172291238Y-87434057D02*
X172338857Y-87529295D01*
X172338857Y-87529295D02*
X172338857Y-87624533D01*
X172338857Y-87624533D02*
X172291238Y-87767390D01*
X172291238Y-87767390D02*
X171719810Y-88338819D01*
X171719810Y-88338819D02*
X172338857Y-88338819D01*
X192859819Y-93892666D02*
X192383628Y-94225999D01*
X192859819Y-94464094D02*
X191859819Y-94464094D01*
X191859819Y-94464094D02*
X191859819Y-94083142D01*
X191859819Y-94083142D02*
X191907438Y-93987904D01*
X191907438Y-93987904D02*
X191955057Y-93940285D01*
X191955057Y-93940285D02*
X192050295Y-93892666D01*
X192050295Y-93892666D02*
X192193152Y-93892666D01*
X192193152Y-93892666D02*
X192288390Y-93940285D01*
X192288390Y-93940285D02*
X192336009Y-93987904D01*
X192336009Y-93987904D02*
X192383628Y-94083142D01*
X192383628Y-94083142D02*
X192383628Y-94464094D01*
X191955057Y-93511713D02*
X191907438Y-93464094D01*
X191907438Y-93464094D02*
X191859819Y-93368856D01*
X191859819Y-93368856D02*
X191859819Y-93130761D01*
X191859819Y-93130761D02*
X191907438Y-93035523D01*
X191907438Y-93035523D02*
X191955057Y-92987904D01*
X191955057Y-92987904D02*
X192050295Y-92940285D01*
X192050295Y-92940285D02*
X192145533Y-92940285D01*
X192145533Y-92940285D02*
X192288390Y-92987904D01*
X192288390Y-92987904D02*
X192859819Y-93559332D01*
X192859819Y-93559332D02*
X192859819Y-92940285D01*
X141964580Y-129166857D02*
X142012200Y-129214476D01*
X142012200Y-129214476D02*
X142059819Y-129357333D01*
X142059819Y-129357333D02*
X142059819Y-129452571D01*
X142059819Y-129452571D02*
X142012200Y-129595428D01*
X142012200Y-129595428D02*
X141916961Y-129690666D01*
X141916961Y-129690666D02*
X141821723Y-129738285D01*
X141821723Y-129738285D02*
X141631247Y-129785904D01*
X141631247Y-129785904D02*
X141488390Y-129785904D01*
X141488390Y-129785904D02*
X141297914Y-129738285D01*
X141297914Y-129738285D02*
X141202676Y-129690666D01*
X141202676Y-129690666D02*
X141107438Y-129595428D01*
X141107438Y-129595428D02*
X141059819Y-129452571D01*
X141059819Y-129452571D02*
X141059819Y-129357333D01*
X141059819Y-129357333D02*
X141107438Y-129214476D01*
X141107438Y-129214476D02*
X141155057Y-129166857D01*
X141155057Y-128785904D02*
X141107438Y-128738285D01*
X141107438Y-128738285D02*
X141059819Y-128643047D01*
X141059819Y-128643047D02*
X141059819Y-128404952D01*
X141059819Y-128404952D02*
X141107438Y-128309714D01*
X141107438Y-128309714D02*
X141155057Y-128262095D01*
X141155057Y-128262095D02*
X141250295Y-128214476D01*
X141250295Y-128214476D02*
X141345533Y-128214476D01*
X141345533Y-128214476D02*
X141488390Y-128262095D01*
X141488390Y-128262095D02*
X142059819Y-128833523D01*
X142059819Y-128833523D02*
X142059819Y-128214476D01*
X141059819Y-127881142D02*
X141059819Y-127214476D01*
X141059819Y-127214476D02*
X142059819Y-127643047D01*
X173767809Y-96117628D02*
X173767809Y-96593819D01*
X173434476Y-95593819D02*
X173767809Y-96117628D01*
X173767809Y-96117628D02*
X174101142Y-95593819D01*
X174958285Y-96593819D02*
X174386857Y-96593819D01*
X174672571Y-96593819D02*
X174672571Y-95593819D01*
X174672571Y-95593819D02*
X174577333Y-95736676D01*
X174577333Y-95736676D02*
X174482095Y-95831914D01*
X174482095Y-95831914D02*
X174386857Y-95879533D01*
X138687642Y-99387819D02*
X138354309Y-98911628D01*
X138116214Y-99387819D02*
X138116214Y-98387819D01*
X138116214Y-98387819D02*
X138497166Y-98387819D01*
X138497166Y-98387819D02*
X138592404Y-98435438D01*
X138592404Y-98435438D02*
X138640023Y-98483057D01*
X138640023Y-98483057D02*
X138687642Y-98578295D01*
X138687642Y-98578295D02*
X138687642Y-98721152D01*
X138687642Y-98721152D02*
X138640023Y-98816390D01*
X138640023Y-98816390D02*
X138592404Y-98864009D01*
X138592404Y-98864009D02*
X138497166Y-98911628D01*
X138497166Y-98911628D02*
X138116214Y-98911628D01*
X139020976Y-98387819D02*
X139640023Y-98387819D01*
X139640023Y-98387819D02*
X139306690Y-98768771D01*
X139306690Y-98768771D02*
X139449547Y-98768771D01*
X139449547Y-98768771D02*
X139544785Y-98816390D01*
X139544785Y-98816390D02*
X139592404Y-98864009D01*
X139592404Y-98864009D02*
X139640023Y-98959247D01*
X139640023Y-98959247D02*
X139640023Y-99197342D01*
X139640023Y-99197342D02*
X139592404Y-99292580D01*
X139592404Y-99292580D02*
X139544785Y-99340200D01*
X139544785Y-99340200D02*
X139449547Y-99387819D01*
X139449547Y-99387819D02*
X139163833Y-99387819D01*
X139163833Y-99387819D02*
X139068595Y-99340200D01*
X139068595Y-99340200D02*
X139020976Y-99292580D01*
X140020976Y-98483057D02*
X140068595Y-98435438D01*
X140068595Y-98435438D02*
X140163833Y-98387819D01*
X140163833Y-98387819D02*
X140401928Y-98387819D01*
X140401928Y-98387819D02*
X140497166Y-98435438D01*
X140497166Y-98435438D02*
X140544785Y-98483057D01*
X140544785Y-98483057D02*
X140592404Y-98578295D01*
X140592404Y-98578295D02*
X140592404Y-98673533D01*
X140592404Y-98673533D02*
X140544785Y-98816390D01*
X140544785Y-98816390D02*
X139973357Y-99387819D01*
X139973357Y-99387819D02*
X140592404Y-99387819D01*
X190293666Y-134108819D02*
X190293666Y-134823104D01*
X190293666Y-134823104D02*
X190246047Y-134965961D01*
X190246047Y-134965961D02*
X190150809Y-135061200D01*
X190150809Y-135061200D02*
X190007952Y-135108819D01*
X190007952Y-135108819D02*
X189912714Y-135108819D01*
X190817476Y-135108819D02*
X191007952Y-135108819D01*
X191007952Y-135108819D02*
X191103190Y-135061200D01*
X191103190Y-135061200D02*
X191150809Y-135013580D01*
X191150809Y-135013580D02*
X191246047Y-134870723D01*
X191246047Y-134870723D02*
X191293666Y-134680247D01*
X191293666Y-134680247D02*
X191293666Y-134299295D01*
X191293666Y-134299295D02*
X191246047Y-134204057D01*
X191246047Y-134204057D02*
X191198428Y-134156438D01*
X191198428Y-134156438D02*
X191103190Y-134108819D01*
X191103190Y-134108819D02*
X190912714Y-134108819D01*
X190912714Y-134108819D02*
X190817476Y-134156438D01*
X190817476Y-134156438D02*
X190769857Y-134204057D01*
X190769857Y-134204057D02*
X190722238Y-134299295D01*
X190722238Y-134299295D02*
X190722238Y-134537390D01*
X190722238Y-134537390D02*
X190769857Y-134632628D01*
X190769857Y-134632628D02*
X190817476Y-134680247D01*
X190817476Y-134680247D02*
X190912714Y-134727866D01*
X190912714Y-134727866D02*
X191103190Y-134727866D01*
X191103190Y-134727866D02*
X191198428Y-134680247D01*
X191198428Y-134680247D02*
X191246047Y-134632628D01*
X191246047Y-134632628D02*
X191293666Y-134537390D01*
X156818080Y-89640666D02*
X156865700Y-89688285D01*
X156865700Y-89688285D02*
X156913319Y-89831142D01*
X156913319Y-89831142D02*
X156913319Y-89926380D01*
X156913319Y-89926380D02*
X156865700Y-90069237D01*
X156865700Y-90069237D02*
X156770461Y-90164475D01*
X156770461Y-90164475D02*
X156675223Y-90212094D01*
X156675223Y-90212094D02*
X156484747Y-90259713D01*
X156484747Y-90259713D02*
X156341890Y-90259713D01*
X156341890Y-90259713D02*
X156151414Y-90212094D01*
X156151414Y-90212094D02*
X156056176Y-90164475D01*
X156056176Y-90164475D02*
X155960938Y-90069237D01*
X155960938Y-90069237D02*
X155913319Y-89926380D01*
X155913319Y-89926380D02*
X155913319Y-89831142D01*
X155913319Y-89831142D02*
X155960938Y-89688285D01*
X155960938Y-89688285D02*
X156008557Y-89640666D01*
X156913319Y-88688285D02*
X156913319Y-89259713D01*
X156913319Y-88973999D02*
X155913319Y-88973999D01*
X155913319Y-88973999D02*
X156056176Y-89069237D01*
X156056176Y-89069237D02*
X156151414Y-89164475D01*
X156151414Y-89164475D02*
X156199033Y-89259713D01*
D11*
X177831809Y-141459228D02*
X177831809Y-141935419D01*
X177498476Y-140935419D02*
X177831809Y-141459228D01*
X177831809Y-141459228D02*
X178165142Y-140935419D01*
X178450857Y-141030657D02*
X178498476Y-140983038D01*
X178498476Y-140983038D02*
X178593714Y-140935419D01*
X178593714Y-140935419D02*
X178831809Y-140935419D01*
X178831809Y-140935419D02*
X178927047Y-140983038D01*
X178927047Y-140983038D02*
X178974666Y-141030657D01*
X178974666Y-141030657D02*
X179022285Y-141125895D01*
X179022285Y-141125895D02*
X179022285Y-141221133D01*
X179022285Y-141221133D02*
X178974666Y-141363990D01*
X178974666Y-141363990D02*
X178403238Y-141935419D01*
X178403238Y-141935419D02*
X179022285Y-141935419D01*
D10*
X142263905Y-99387819D02*
X142263905Y-98387819D01*
X142263905Y-98387819D02*
X142502000Y-98387819D01*
X142502000Y-98387819D02*
X142644857Y-98435438D01*
X142644857Y-98435438D02*
X142740095Y-98530676D01*
X142740095Y-98530676D02*
X142787714Y-98625914D01*
X142787714Y-98625914D02*
X142835333Y-98816390D01*
X142835333Y-98816390D02*
X142835333Y-98959247D01*
X142835333Y-98959247D02*
X142787714Y-99149723D01*
X142787714Y-99149723D02*
X142740095Y-99244961D01*
X142740095Y-99244961D02*
X142644857Y-99340200D01*
X142644857Y-99340200D02*
X142502000Y-99387819D01*
X142502000Y-99387819D02*
X142263905Y-99387819D01*
X143740095Y-98387819D02*
X143263905Y-98387819D01*
X143263905Y-98387819D02*
X143216286Y-98864009D01*
X143216286Y-98864009D02*
X143263905Y-98816390D01*
X143263905Y-98816390D02*
X143359143Y-98768771D01*
X143359143Y-98768771D02*
X143597238Y-98768771D01*
X143597238Y-98768771D02*
X143692476Y-98816390D01*
X143692476Y-98816390D02*
X143740095Y-98864009D01*
X143740095Y-98864009D02*
X143787714Y-98959247D01*
X143787714Y-98959247D02*
X143787714Y-99197342D01*
X143787714Y-99197342D02*
X143740095Y-99292580D01*
X143740095Y-99292580D02*
X143692476Y-99340200D01*
X143692476Y-99340200D02*
X143597238Y-99387819D01*
X143597238Y-99387819D02*
X143359143Y-99387819D01*
X143359143Y-99387819D02*
X143263905Y-99340200D01*
X143263905Y-99340200D02*
X143216286Y-99292580D01*
X154733666Y-137156819D02*
X154733666Y-137871104D01*
X154733666Y-137871104D02*
X154686047Y-138013961D01*
X154686047Y-138013961D02*
X154590809Y-138109200D01*
X154590809Y-138109200D02*
X154447952Y-138156819D01*
X154447952Y-138156819D02*
X154352714Y-138156819D01*
X155114619Y-137156819D02*
X155781285Y-137156819D01*
X155781285Y-137156819D02*
X155352714Y-138156819D01*
X182626095Y-124549819D02*
X182626095Y-125359342D01*
X182626095Y-125359342D02*
X182673714Y-125454580D01*
X182673714Y-125454580D02*
X182721333Y-125502200D01*
X182721333Y-125502200D02*
X182816571Y-125549819D01*
X182816571Y-125549819D02*
X183007047Y-125549819D01*
X183007047Y-125549819D02*
X183102285Y-125502200D01*
X183102285Y-125502200D02*
X183149904Y-125454580D01*
X183149904Y-125454580D02*
X183197523Y-125359342D01*
X183197523Y-125359342D02*
X183197523Y-124549819D01*
X184102285Y-124883152D02*
X184102285Y-125549819D01*
X183864190Y-124502200D02*
X183626095Y-125216485D01*
X183626095Y-125216485D02*
X184245142Y-125216485D01*
X138676142Y-133455580D02*
X138628523Y-133503200D01*
X138628523Y-133503200D02*
X138485666Y-133550819D01*
X138485666Y-133550819D02*
X138390428Y-133550819D01*
X138390428Y-133550819D02*
X138247571Y-133503200D01*
X138247571Y-133503200D02*
X138152333Y-133407961D01*
X138152333Y-133407961D02*
X138104714Y-133312723D01*
X138104714Y-133312723D02*
X138057095Y-133122247D01*
X138057095Y-133122247D02*
X138057095Y-132979390D01*
X138057095Y-132979390D02*
X138104714Y-132788914D01*
X138104714Y-132788914D02*
X138152333Y-132693676D01*
X138152333Y-132693676D02*
X138247571Y-132598438D01*
X138247571Y-132598438D02*
X138390428Y-132550819D01*
X138390428Y-132550819D02*
X138485666Y-132550819D01*
X138485666Y-132550819D02*
X138628523Y-132598438D01*
X138628523Y-132598438D02*
X138676142Y-132646057D01*
X139057095Y-132646057D02*
X139104714Y-132598438D01*
X139104714Y-132598438D02*
X139199952Y-132550819D01*
X139199952Y-132550819D02*
X139438047Y-132550819D01*
X139438047Y-132550819D02*
X139533285Y-132598438D01*
X139533285Y-132598438D02*
X139580904Y-132646057D01*
X139580904Y-132646057D02*
X139628523Y-132741295D01*
X139628523Y-132741295D02*
X139628523Y-132836533D01*
X139628523Y-132836533D02*
X139580904Y-132979390D01*
X139580904Y-132979390D02*
X139009476Y-133550819D01*
X139009476Y-133550819D02*
X139628523Y-133550819D01*
X140533285Y-132550819D02*
X140057095Y-132550819D01*
X140057095Y-132550819D02*
X140009476Y-133027009D01*
X140009476Y-133027009D02*
X140057095Y-132979390D01*
X140057095Y-132979390D02*
X140152333Y-132931771D01*
X140152333Y-132931771D02*
X140390428Y-132931771D01*
X140390428Y-132931771D02*
X140485666Y-132979390D01*
X140485666Y-132979390D02*
X140533285Y-133027009D01*
X140533285Y-133027009D02*
X140580904Y-133122247D01*
X140580904Y-133122247D02*
X140580904Y-133360342D01*
X140580904Y-133360342D02*
X140533285Y-133455580D01*
X140533285Y-133455580D02*
X140485666Y-133503200D01*
X140485666Y-133503200D02*
X140390428Y-133550819D01*
X140390428Y-133550819D02*
X140152333Y-133550819D01*
X140152333Y-133550819D02*
X140057095Y-133503200D01*
X140057095Y-133503200D02*
X140009476Y-133455580D01*
X163427580Y-89193666D02*
X163475200Y-89241285D01*
X163475200Y-89241285D02*
X163522819Y-89384142D01*
X163522819Y-89384142D02*
X163522819Y-89479380D01*
X163522819Y-89479380D02*
X163475200Y-89622237D01*
X163475200Y-89622237D02*
X163379961Y-89717475D01*
X163379961Y-89717475D02*
X163284723Y-89765094D01*
X163284723Y-89765094D02*
X163094247Y-89812713D01*
X163094247Y-89812713D02*
X162951390Y-89812713D01*
X162951390Y-89812713D02*
X162760914Y-89765094D01*
X162760914Y-89765094D02*
X162665676Y-89717475D01*
X162665676Y-89717475D02*
X162570438Y-89622237D01*
X162570438Y-89622237D02*
X162522819Y-89479380D01*
X162522819Y-89479380D02*
X162522819Y-89384142D01*
X162522819Y-89384142D02*
X162570438Y-89241285D01*
X162570438Y-89241285D02*
X162618057Y-89193666D01*
X162618057Y-88812713D02*
X162570438Y-88765094D01*
X162570438Y-88765094D02*
X162522819Y-88669856D01*
X162522819Y-88669856D02*
X162522819Y-88431761D01*
X162522819Y-88431761D02*
X162570438Y-88336523D01*
X162570438Y-88336523D02*
X162618057Y-88288904D01*
X162618057Y-88288904D02*
X162713295Y-88241285D01*
X162713295Y-88241285D02*
X162808533Y-88241285D01*
X162808533Y-88241285D02*
X162951390Y-88288904D01*
X162951390Y-88288904D02*
X163522819Y-88860332D01*
X163522819Y-88860332D02*
X163522819Y-88241285D01*
X150695819Y-140596857D02*
X150219628Y-140930190D01*
X150695819Y-141168285D02*
X149695819Y-141168285D01*
X149695819Y-141168285D02*
X149695819Y-140787333D01*
X149695819Y-140787333D02*
X149743438Y-140692095D01*
X149743438Y-140692095D02*
X149791057Y-140644476D01*
X149791057Y-140644476D02*
X149886295Y-140596857D01*
X149886295Y-140596857D02*
X150029152Y-140596857D01*
X150029152Y-140596857D02*
X150124390Y-140644476D01*
X150124390Y-140644476D02*
X150172009Y-140692095D01*
X150172009Y-140692095D02*
X150219628Y-140787333D01*
X150219628Y-140787333D02*
X150219628Y-141168285D01*
X149791057Y-140215904D02*
X149743438Y-140168285D01*
X149743438Y-140168285D02*
X149695819Y-140073047D01*
X149695819Y-140073047D02*
X149695819Y-139834952D01*
X149695819Y-139834952D02*
X149743438Y-139739714D01*
X149743438Y-139739714D02*
X149791057Y-139692095D01*
X149791057Y-139692095D02*
X149886295Y-139644476D01*
X149886295Y-139644476D02*
X149981533Y-139644476D01*
X149981533Y-139644476D02*
X150124390Y-139692095D01*
X150124390Y-139692095D02*
X150695819Y-140263523D01*
X150695819Y-140263523D02*
X150695819Y-139644476D01*
X149695819Y-139311142D02*
X149695819Y-138692095D01*
X149695819Y-138692095D02*
X150076771Y-139025428D01*
X150076771Y-139025428D02*
X150076771Y-138882571D01*
X150076771Y-138882571D02*
X150124390Y-138787333D01*
X150124390Y-138787333D02*
X150172009Y-138739714D01*
X150172009Y-138739714D02*
X150267247Y-138692095D01*
X150267247Y-138692095D02*
X150505342Y-138692095D01*
X150505342Y-138692095D02*
X150600580Y-138739714D01*
X150600580Y-138739714D02*
X150648200Y-138787333D01*
X150648200Y-138787333D02*
X150695819Y-138882571D01*
X150695819Y-138882571D02*
X150695819Y-139168285D01*
X150695819Y-139168285D02*
X150648200Y-139263523D01*
X150648200Y-139263523D02*
X150600580Y-139311142D01*
X180699580Y-135516857D02*
X180747200Y-135564476D01*
X180747200Y-135564476D02*
X180794819Y-135707333D01*
X180794819Y-135707333D02*
X180794819Y-135802571D01*
X180794819Y-135802571D02*
X180747200Y-135945428D01*
X180747200Y-135945428D02*
X180651961Y-136040666D01*
X180651961Y-136040666D02*
X180556723Y-136088285D01*
X180556723Y-136088285D02*
X180366247Y-136135904D01*
X180366247Y-136135904D02*
X180223390Y-136135904D01*
X180223390Y-136135904D02*
X180032914Y-136088285D01*
X180032914Y-136088285D02*
X179937676Y-136040666D01*
X179937676Y-136040666D02*
X179842438Y-135945428D01*
X179842438Y-135945428D02*
X179794819Y-135802571D01*
X179794819Y-135802571D02*
X179794819Y-135707333D01*
X179794819Y-135707333D02*
X179842438Y-135564476D01*
X179842438Y-135564476D02*
X179890057Y-135516857D01*
X180794819Y-134564476D02*
X180794819Y-135135904D01*
X180794819Y-134850190D02*
X179794819Y-134850190D01*
X179794819Y-134850190D02*
X179937676Y-134945428D01*
X179937676Y-134945428D02*
X180032914Y-135040666D01*
X180032914Y-135040666D02*
X180080533Y-135135904D01*
X180128152Y-133707333D02*
X180794819Y-133707333D01*
X179747200Y-133945428D02*
X180461485Y-134183523D01*
X180461485Y-134183523D02*
X180461485Y-133564476D01*
X174204333Y-101228819D02*
X173871000Y-100752628D01*
X173632905Y-101228819D02*
X173632905Y-100228819D01*
X173632905Y-100228819D02*
X174013857Y-100228819D01*
X174013857Y-100228819D02*
X174109095Y-100276438D01*
X174109095Y-100276438D02*
X174156714Y-100324057D01*
X174156714Y-100324057D02*
X174204333Y-100419295D01*
X174204333Y-100419295D02*
X174204333Y-100562152D01*
X174204333Y-100562152D02*
X174156714Y-100657390D01*
X174156714Y-100657390D02*
X174109095Y-100705009D01*
X174109095Y-100705009D02*
X174013857Y-100752628D01*
X174013857Y-100752628D02*
X173632905Y-100752628D01*
X175109095Y-100228819D02*
X174632905Y-100228819D01*
X174632905Y-100228819D02*
X174585286Y-100705009D01*
X174585286Y-100705009D02*
X174632905Y-100657390D01*
X174632905Y-100657390D02*
X174728143Y-100609771D01*
X174728143Y-100609771D02*
X174966238Y-100609771D01*
X174966238Y-100609771D02*
X175061476Y-100657390D01*
X175061476Y-100657390D02*
X175109095Y-100705009D01*
X175109095Y-100705009D02*
X175156714Y-100800247D01*
X175156714Y-100800247D02*
X175156714Y-101038342D01*
X175156714Y-101038342D02*
X175109095Y-101133580D01*
X175109095Y-101133580D02*
X175061476Y-101181200D01*
X175061476Y-101181200D02*
X174966238Y-101228819D01*
X174966238Y-101228819D02*
X174728143Y-101228819D01*
X174728143Y-101228819D02*
X174632905Y-101181200D01*
X174632905Y-101181200D02*
X174585286Y-101133580D01*
X196284819Y-99610666D02*
X195808628Y-99943999D01*
X196284819Y-100182094D02*
X195284819Y-100182094D01*
X195284819Y-100182094D02*
X195284819Y-99801142D01*
X195284819Y-99801142D02*
X195332438Y-99705904D01*
X195332438Y-99705904D02*
X195380057Y-99658285D01*
X195380057Y-99658285D02*
X195475295Y-99610666D01*
X195475295Y-99610666D02*
X195618152Y-99610666D01*
X195618152Y-99610666D02*
X195713390Y-99658285D01*
X195713390Y-99658285D02*
X195761009Y-99705904D01*
X195761009Y-99705904D02*
X195808628Y-99801142D01*
X195808628Y-99801142D02*
X195808628Y-100182094D01*
X195284819Y-98753523D02*
X195284819Y-98943999D01*
X195284819Y-98943999D02*
X195332438Y-99039237D01*
X195332438Y-99039237D02*
X195380057Y-99086856D01*
X195380057Y-99086856D02*
X195522914Y-99182094D01*
X195522914Y-99182094D02*
X195713390Y-99229713D01*
X195713390Y-99229713D02*
X196094342Y-99229713D01*
X196094342Y-99229713D02*
X196189580Y-99182094D01*
X196189580Y-99182094D02*
X196237200Y-99134475D01*
X196237200Y-99134475D02*
X196284819Y-99039237D01*
X196284819Y-99039237D02*
X196284819Y-98848761D01*
X196284819Y-98848761D02*
X196237200Y-98753523D01*
X196237200Y-98753523D02*
X196189580Y-98705904D01*
X196189580Y-98705904D02*
X196094342Y-98658285D01*
X196094342Y-98658285D02*
X195856247Y-98658285D01*
X195856247Y-98658285D02*
X195761009Y-98705904D01*
X195761009Y-98705904D02*
X195713390Y-98753523D01*
X195713390Y-98753523D02*
X195665771Y-98848761D01*
X195665771Y-98848761D02*
X195665771Y-99039237D01*
X195665771Y-99039237D02*
X195713390Y-99134475D01*
X195713390Y-99134475D02*
X195761009Y-99182094D01*
X195761009Y-99182094D02*
X195856247Y-99229713D01*
X140030142Y-110182819D02*
X139696809Y-109706628D01*
X139458714Y-110182819D02*
X139458714Y-109182819D01*
X139458714Y-109182819D02*
X139839666Y-109182819D01*
X139839666Y-109182819D02*
X139934904Y-109230438D01*
X139934904Y-109230438D02*
X139982523Y-109278057D01*
X139982523Y-109278057D02*
X140030142Y-109373295D01*
X140030142Y-109373295D02*
X140030142Y-109516152D01*
X140030142Y-109516152D02*
X139982523Y-109611390D01*
X139982523Y-109611390D02*
X139934904Y-109659009D01*
X139934904Y-109659009D02*
X139839666Y-109706628D01*
X139839666Y-109706628D02*
X139458714Y-109706628D01*
X140982523Y-110182819D02*
X140411095Y-110182819D01*
X140696809Y-110182819D02*
X140696809Y-109182819D01*
X140696809Y-109182819D02*
X140601571Y-109325676D01*
X140601571Y-109325676D02*
X140506333Y-109420914D01*
X140506333Y-109420914D02*
X140411095Y-109468533D01*
X141839666Y-109182819D02*
X141649190Y-109182819D01*
X141649190Y-109182819D02*
X141553952Y-109230438D01*
X141553952Y-109230438D02*
X141506333Y-109278057D01*
X141506333Y-109278057D02*
X141411095Y-109420914D01*
X141411095Y-109420914D02*
X141363476Y-109611390D01*
X141363476Y-109611390D02*
X141363476Y-109992342D01*
X141363476Y-109992342D02*
X141411095Y-110087580D01*
X141411095Y-110087580D02*
X141458714Y-110135200D01*
X141458714Y-110135200D02*
X141553952Y-110182819D01*
X141553952Y-110182819D02*
X141744428Y-110182819D01*
X141744428Y-110182819D02*
X141839666Y-110135200D01*
X141839666Y-110135200D02*
X141887285Y-110087580D01*
X141887285Y-110087580D02*
X141934904Y-109992342D01*
X141934904Y-109992342D02*
X141934904Y-109754247D01*
X141934904Y-109754247D02*
X141887285Y-109659009D01*
X141887285Y-109659009D02*
X141839666Y-109611390D01*
X141839666Y-109611390D02*
X141744428Y-109563771D01*
X141744428Y-109563771D02*
X141553952Y-109563771D01*
X141553952Y-109563771D02*
X141458714Y-109611390D01*
X141458714Y-109611390D02*
X141411095Y-109659009D01*
X141411095Y-109659009D02*
X141363476Y-109754247D01*
D11*
X187168667Y-136172800D02*
X187311524Y-136220419D01*
X187311524Y-136220419D02*
X187549619Y-136220419D01*
X187549619Y-136220419D02*
X187644857Y-136172800D01*
X187644857Y-136172800D02*
X187692476Y-136125180D01*
X187692476Y-136125180D02*
X187740095Y-136029942D01*
X187740095Y-136029942D02*
X187740095Y-135934704D01*
X187740095Y-135934704D02*
X187692476Y-135839466D01*
X187692476Y-135839466D02*
X187644857Y-135791847D01*
X187644857Y-135791847D02*
X187549619Y-135744228D01*
X187549619Y-135744228D02*
X187359143Y-135696609D01*
X187359143Y-135696609D02*
X187263905Y-135648990D01*
X187263905Y-135648990D02*
X187216286Y-135601371D01*
X187216286Y-135601371D02*
X187168667Y-135506133D01*
X187168667Y-135506133D02*
X187168667Y-135410895D01*
X187168667Y-135410895D02*
X187216286Y-135315657D01*
X187216286Y-135315657D02*
X187263905Y-135268038D01*
X187263905Y-135268038D02*
X187359143Y-135220419D01*
X187359143Y-135220419D02*
X187597238Y-135220419D01*
X187597238Y-135220419D02*
X187740095Y-135268038D01*
X188073429Y-135220419D02*
X188311524Y-136220419D01*
X188311524Y-136220419D02*
X188502000Y-135506133D01*
X188502000Y-135506133D02*
X188692476Y-136220419D01*
X188692476Y-136220419D02*
X188930572Y-135220419D01*
X189835333Y-136220419D02*
X189263905Y-136220419D01*
X189549619Y-136220419D02*
X189549619Y-135220419D01*
X189549619Y-135220419D02*
X189454381Y-135363276D01*
X189454381Y-135363276D02*
X189359143Y-135458514D01*
X189359143Y-135458514D02*
X189263905Y-135506133D01*
X157146666Y-141443419D02*
X157146666Y-142157704D01*
X157146666Y-142157704D02*
X157099047Y-142300561D01*
X157099047Y-142300561D02*
X157003809Y-142395800D01*
X157003809Y-142395800D02*
X156860952Y-142443419D01*
X156860952Y-142443419D02*
X156765714Y-142443419D01*
X157575238Y-141538657D02*
X157622857Y-141491038D01*
X157622857Y-141491038D02*
X157718095Y-141443419D01*
X157718095Y-141443419D02*
X157956190Y-141443419D01*
X157956190Y-141443419D02*
X158051428Y-141491038D01*
X158051428Y-141491038D02*
X158099047Y-141538657D01*
X158099047Y-141538657D02*
X158146666Y-141633895D01*
X158146666Y-141633895D02*
X158146666Y-141729133D01*
X158146666Y-141729133D02*
X158099047Y-141871990D01*
X158099047Y-141871990D02*
X157527619Y-142443419D01*
X157527619Y-142443419D02*
X158146666Y-142443419D01*
D10*
X143615580Y-139707857D02*
X143663200Y-139755476D01*
X143663200Y-139755476D02*
X143710819Y-139898333D01*
X143710819Y-139898333D02*
X143710819Y-139993571D01*
X143710819Y-139993571D02*
X143663200Y-140136428D01*
X143663200Y-140136428D02*
X143567961Y-140231666D01*
X143567961Y-140231666D02*
X143472723Y-140279285D01*
X143472723Y-140279285D02*
X143282247Y-140326904D01*
X143282247Y-140326904D02*
X143139390Y-140326904D01*
X143139390Y-140326904D02*
X142948914Y-140279285D01*
X142948914Y-140279285D02*
X142853676Y-140231666D01*
X142853676Y-140231666D02*
X142758438Y-140136428D01*
X142758438Y-140136428D02*
X142710819Y-139993571D01*
X142710819Y-139993571D02*
X142710819Y-139898333D01*
X142710819Y-139898333D02*
X142758438Y-139755476D01*
X142758438Y-139755476D02*
X142806057Y-139707857D01*
X142806057Y-139326904D02*
X142758438Y-139279285D01*
X142758438Y-139279285D02*
X142710819Y-139184047D01*
X142710819Y-139184047D02*
X142710819Y-138945952D01*
X142710819Y-138945952D02*
X142758438Y-138850714D01*
X142758438Y-138850714D02*
X142806057Y-138803095D01*
X142806057Y-138803095D02*
X142901295Y-138755476D01*
X142901295Y-138755476D02*
X142996533Y-138755476D01*
X142996533Y-138755476D02*
X143139390Y-138803095D01*
X143139390Y-138803095D02*
X143710819Y-139374523D01*
X143710819Y-139374523D02*
X143710819Y-138755476D01*
X142806057Y-138374523D02*
X142758438Y-138326904D01*
X142758438Y-138326904D02*
X142710819Y-138231666D01*
X142710819Y-138231666D02*
X142710819Y-137993571D01*
X142710819Y-137993571D02*
X142758438Y-137898333D01*
X142758438Y-137898333D02*
X142806057Y-137850714D01*
X142806057Y-137850714D02*
X142901295Y-137803095D01*
X142901295Y-137803095D02*
X142996533Y-137803095D01*
X142996533Y-137803095D02*
X143139390Y-137850714D01*
X143139390Y-137850714D02*
X143710819Y-138422142D01*
X143710819Y-138422142D02*
X143710819Y-137803095D01*
X178558095Y-104232819D02*
X178558095Y-105042342D01*
X178558095Y-105042342D02*
X178605714Y-105137580D01*
X178605714Y-105137580D02*
X178653333Y-105185200D01*
X178653333Y-105185200D02*
X178748571Y-105232819D01*
X178748571Y-105232819D02*
X178939047Y-105232819D01*
X178939047Y-105232819D02*
X179034285Y-105185200D01*
X179034285Y-105185200D02*
X179081904Y-105137580D01*
X179081904Y-105137580D02*
X179129523Y-105042342D01*
X179129523Y-105042342D02*
X179129523Y-104232819D01*
X179558095Y-104328057D02*
X179605714Y-104280438D01*
X179605714Y-104280438D02*
X179700952Y-104232819D01*
X179700952Y-104232819D02*
X179939047Y-104232819D01*
X179939047Y-104232819D02*
X180034285Y-104280438D01*
X180034285Y-104280438D02*
X180081904Y-104328057D01*
X180081904Y-104328057D02*
X180129523Y-104423295D01*
X180129523Y-104423295D02*
X180129523Y-104518533D01*
X180129523Y-104518533D02*
X180081904Y-104661390D01*
X180081904Y-104661390D02*
X179510476Y-105232819D01*
X179510476Y-105232819D02*
X180129523Y-105232819D01*
X161436642Y-142523080D02*
X161389023Y-142570700D01*
X161389023Y-142570700D02*
X161246166Y-142618319D01*
X161246166Y-142618319D02*
X161150928Y-142618319D01*
X161150928Y-142618319D02*
X161008071Y-142570700D01*
X161008071Y-142570700D02*
X160912833Y-142475461D01*
X160912833Y-142475461D02*
X160865214Y-142380223D01*
X160865214Y-142380223D02*
X160817595Y-142189747D01*
X160817595Y-142189747D02*
X160817595Y-142046890D01*
X160817595Y-142046890D02*
X160865214Y-141856414D01*
X160865214Y-141856414D02*
X160912833Y-141761176D01*
X160912833Y-141761176D02*
X161008071Y-141665938D01*
X161008071Y-141665938D02*
X161150928Y-141618319D01*
X161150928Y-141618319D02*
X161246166Y-141618319D01*
X161246166Y-141618319D02*
X161389023Y-141665938D01*
X161389023Y-141665938D02*
X161436642Y-141713557D01*
X161769976Y-141618319D02*
X162389023Y-141618319D01*
X162389023Y-141618319D02*
X162055690Y-141999271D01*
X162055690Y-141999271D02*
X162198547Y-141999271D01*
X162198547Y-141999271D02*
X162293785Y-142046890D01*
X162293785Y-142046890D02*
X162341404Y-142094509D01*
X162341404Y-142094509D02*
X162389023Y-142189747D01*
X162389023Y-142189747D02*
X162389023Y-142427842D01*
X162389023Y-142427842D02*
X162341404Y-142523080D01*
X162341404Y-142523080D02*
X162293785Y-142570700D01*
X162293785Y-142570700D02*
X162198547Y-142618319D01*
X162198547Y-142618319D02*
X161912833Y-142618319D01*
X161912833Y-142618319D02*
X161817595Y-142570700D01*
X161817595Y-142570700D02*
X161769976Y-142523080D01*
X163341404Y-142618319D02*
X162769976Y-142618319D01*
X163055690Y-142618319D02*
X163055690Y-141618319D01*
X163055690Y-141618319D02*
X162960452Y-141761176D01*
X162960452Y-141761176D02*
X162865214Y-141856414D01*
X162865214Y-141856414D02*
X162769976Y-141904033D01*
X181048819Y-112465857D02*
X180572628Y-112799190D01*
X181048819Y-113037285D02*
X180048819Y-113037285D01*
X180048819Y-113037285D02*
X180048819Y-112656333D01*
X180048819Y-112656333D02*
X180096438Y-112561095D01*
X180096438Y-112561095D02*
X180144057Y-112513476D01*
X180144057Y-112513476D02*
X180239295Y-112465857D01*
X180239295Y-112465857D02*
X180382152Y-112465857D01*
X180382152Y-112465857D02*
X180477390Y-112513476D01*
X180477390Y-112513476D02*
X180525009Y-112561095D01*
X180525009Y-112561095D02*
X180572628Y-112656333D01*
X180572628Y-112656333D02*
X180572628Y-113037285D01*
X181048819Y-111513476D02*
X181048819Y-112084904D01*
X181048819Y-111799190D02*
X180048819Y-111799190D01*
X180048819Y-111799190D02*
X180191676Y-111894428D01*
X180191676Y-111894428D02*
X180286914Y-111989666D01*
X180286914Y-111989666D02*
X180334533Y-112084904D01*
X180048819Y-111180142D02*
X180048819Y-110513476D01*
X180048819Y-110513476D02*
X181048819Y-110942047D01*
X184070666Y-129707819D02*
X184070666Y-130422104D01*
X184070666Y-130422104D02*
X184023047Y-130564961D01*
X184023047Y-130564961D02*
X183927809Y-130660200D01*
X183927809Y-130660200D02*
X183784952Y-130707819D01*
X183784952Y-130707819D02*
X183689714Y-130707819D01*
X185023047Y-129707819D02*
X184546857Y-129707819D01*
X184546857Y-129707819D02*
X184499238Y-130184009D01*
X184499238Y-130184009D02*
X184546857Y-130136390D01*
X184546857Y-130136390D02*
X184642095Y-130088771D01*
X184642095Y-130088771D02*
X184880190Y-130088771D01*
X184880190Y-130088771D02*
X184975428Y-130136390D01*
X184975428Y-130136390D02*
X185023047Y-130184009D01*
X185023047Y-130184009D02*
X185070666Y-130279247D01*
X185070666Y-130279247D02*
X185070666Y-130517342D01*
X185070666Y-130517342D02*
X185023047Y-130612580D01*
X185023047Y-130612580D02*
X184975428Y-130660200D01*
X184975428Y-130660200D02*
X184880190Y-130707819D01*
X184880190Y-130707819D02*
X184642095Y-130707819D01*
X184642095Y-130707819D02*
X184546857Y-130660200D01*
X184546857Y-130660200D02*
X184499238Y-130612580D01*
X185766666Y-97808819D02*
X185766666Y-98523104D01*
X185766666Y-98523104D02*
X185719047Y-98665961D01*
X185719047Y-98665961D02*
X185623809Y-98761200D01*
X185623809Y-98761200D02*
X185480952Y-98808819D01*
X185480952Y-98808819D02*
X185385714Y-98808819D01*
X186766666Y-98808819D02*
X186195238Y-98808819D01*
X186480952Y-98808819D02*
X186480952Y-97808819D01*
X186480952Y-97808819D02*
X186385714Y-97951676D01*
X186385714Y-97951676D02*
X186290476Y-98046914D01*
X186290476Y-98046914D02*
X186195238Y-98094533D01*
X148717095Y-112748819D02*
X148717095Y-113558342D01*
X148717095Y-113558342D02*
X148764714Y-113653580D01*
X148764714Y-113653580D02*
X148812333Y-113701200D01*
X148812333Y-113701200D02*
X148907571Y-113748819D01*
X148907571Y-113748819D02*
X149098047Y-113748819D01*
X149098047Y-113748819D02*
X149193285Y-113701200D01*
X149193285Y-113701200D02*
X149240904Y-113653580D01*
X149240904Y-113653580D02*
X149288523Y-113558342D01*
X149288523Y-113558342D02*
X149288523Y-112748819D01*
X150288523Y-113748819D02*
X149717095Y-113748819D01*
X150002809Y-113748819D02*
X150002809Y-112748819D01*
X150002809Y-112748819D02*
X149907571Y-112891676D01*
X149907571Y-112891676D02*
X149812333Y-112986914D01*
X149812333Y-112986914D02*
X149717095Y-113034533D01*
X146931142Y-146311580D02*
X146883523Y-146359200D01*
X146883523Y-146359200D02*
X146740666Y-146406819D01*
X146740666Y-146406819D02*
X146645428Y-146406819D01*
X146645428Y-146406819D02*
X146502571Y-146359200D01*
X146502571Y-146359200D02*
X146407333Y-146263961D01*
X146407333Y-146263961D02*
X146359714Y-146168723D01*
X146359714Y-146168723D02*
X146312095Y-145978247D01*
X146312095Y-145978247D02*
X146312095Y-145835390D01*
X146312095Y-145835390D02*
X146359714Y-145644914D01*
X146359714Y-145644914D02*
X146407333Y-145549676D01*
X146407333Y-145549676D02*
X146502571Y-145454438D01*
X146502571Y-145454438D02*
X146645428Y-145406819D01*
X146645428Y-145406819D02*
X146740666Y-145406819D01*
X146740666Y-145406819D02*
X146883523Y-145454438D01*
X146883523Y-145454438D02*
X146931142Y-145502057D01*
X147312095Y-145502057D02*
X147359714Y-145454438D01*
X147359714Y-145454438D02*
X147454952Y-145406819D01*
X147454952Y-145406819D02*
X147693047Y-145406819D01*
X147693047Y-145406819D02*
X147788285Y-145454438D01*
X147788285Y-145454438D02*
X147835904Y-145502057D01*
X147835904Y-145502057D02*
X147883523Y-145597295D01*
X147883523Y-145597295D02*
X147883523Y-145692533D01*
X147883523Y-145692533D02*
X147835904Y-145835390D01*
X147835904Y-145835390D02*
X147264476Y-146406819D01*
X147264476Y-146406819D02*
X147883523Y-146406819D01*
X148454952Y-145835390D02*
X148359714Y-145787771D01*
X148359714Y-145787771D02*
X148312095Y-145740152D01*
X148312095Y-145740152D02*
X148264476Y-145644914D01*
X148264476Y-145644914D02*
X148264476Y-145597295D01*
X148264476Y-145597295D02*
X148312095Y-145502057D01*
X148312095Y-145502057D02*
X148359714Y-145454438D01*
X148359714Y-145454438D02*
X148454952Y-145406819D01*
X148454952Y-145406819D02*
X148645428Y-145406819D01*
X148645428Y-145406819D02*
X148740666Y-145454438D01*
X148740666Y-145454438D02*
X148788285Y-145502057D01*
X148788285Y-145502057D02*
X148835904Y-145597295D01*
X148835904Y-145597295D02*
X148835904Y-145644914D01*
X148835904Y-145644914D02*
X148788285Y-145740152D01*
X148788285Y-145740152D02*
X148740666Y-145787771D01*
X148740666Y-145787771D02*
X148645428Y-145835390D01*
X148645428Y-145835390D02*
X148454952Y-145835390D01*
X148454952Y-145835390D02*
X148359714Y-145883009D01*
X148359714Y-145883009D02*
X148312095Y-145930628D01*
X148312095Y-145930628D02*
X148264476Y-146025866D01*
X148264476Y-146025866D02*
X148264476Y-146216342D01*
X148264476Y-146216342D02*
X148312095Y-146311580D01*
X148312095Y-146311580D02*
X148359714Y-146359200D01*
X148359714Y-146359200D02*
X148454952Y-146406819D01*
X148454952Y-146406819D02*
X148645428Y-146406819D01*
X148645428Y-146406819D02*
X148740666Y-146359200D01*
X148740666Y-146359200D02*
X148788285Y-146311580D01*
X148788285Y-146311580D02*
X148835904Y-146216342D01*
X148835904Y-146216342D02*
X148835904Y-146025866D01*
X148835904Y-146025866D02*
X148788285Y-145930628D01*
X148788285Y-145930628D02*
X148740666Y-145883009D01*
X148740666Y-145883009D02*
X148645428Y-145835390D01*
X159302333Y-109579580D02*
X159254714Y-109627200D01*
X159254714Y-109627200D02*
X159111857Y-109674819D01*
X159111857Y-109674819D02*
X159016619Y-109674819D01*
X159016619Y-109674819D02*
X158873762Y-109627200D01*
X158873762Y-109627200D02*
X158778524Y-109531961D01*
X158778524Y-109531961D02*
X158730905Y-109436723D01*
X158730905Y-109436723D02*
X158683286Y-109246247D01*
X158683286Y-109246247D02*
X158683286Y-109103390D01*
X158683286Y-109103390D02*
X158730905Y-108912914D01*
X158730905Y-108912914D02*
X158778524Y-108817676D01*
X158778524Y-108817676D02*
X158873762Y-108722438D01*
X158873762Y-108722438D02*
X159016619Y-108674819D01*
X159016619Y-108674819D02*
X159111857Y-108674819D01*
X159111857Y-108674819D02*
X159254714Y-108722438D01*
X159254714Y-108722438D02*
X159302333Y-108770057D01*
X159778524Y-109674819D02*
X159969000Y-109674819D01*
X159969000Y-109674819D02*
X160064238Y-109627200D01*
X160064238Y-109627200D02*
X160111857Y-109579580D01*
X160111857Y-109579580D02*
X160207095Y-109436723D01*
X160207095Y-109436723D02*
X160254714Y-109246247D01*
X160254714Y-109246247D02*
X160254714Y-108865295D01*
X160254714Y-108865295D02*
X160207095Y-108770057D01*
X160207095Y-108770057D02*
X160159476Y-108722438D01*
X160159476Y-108722438D02*
X160064238Y-108674819D01*
X160064238Y-108674819D02*
X159873762Y-108674819D01*
X159873762Y-108674819D02*
X159778524Y-108722438D01*
X159778524Y-108722438D02*
X159730905Y-108770057D01*
X159730905Y-108770057D02*
X159683286Y-108865295D01*
X159683286Y-108865295D02*
X159683286Y-109103390D01*
X159683286Y-109103390D02*
X159730905Y-109198628D01*
X159730905Y-109198628D02*
X159778524Y-109246247D01*
X159778524Y-109246247D02*
X159873762Y-109293866D01*
X159873762Y-109293866D02*
X160064238Y-109293866D01*
X160064238Y-109293866D02*
X160159476Y-109246247D01*
X160159476Y-109246247D02*
X160207095Y-109198628D01*
X160207095Y-109198628D02*
X160254714Y-109103390D01*
X142275405Y-96593819D02*
X142275405Y-95593819D01*
X142275405Y-95593819D02*
X142513500Y-95593819D01*
X142513500Y-95593819D02*
X142656357Y-95641438D01*
X142656357Y-95641438D02*
X142751595Y-95736676D01*
X142751595Y-95736676D02*
X142799214Y-95831914D01*
X142799214Y-95831914D02*
X142846833Y-96022390D01*
X142846833Y-96022390D02*
X142846833Y-96165247D01*
X142846833Y-96165247D02*
X142799214Y-96355723D01*
X142799214Y-96355723D02*
X142751595Y-96450961D01*
X142751595Y-96450961D02*
X142656357Y-96546200D01*
X142656357Y-96546200D02*
X142513500Y-96593819D01*
X142513500Y-96593819D02*
X142275405Y-96593819D01*
X143703976Y-95593819D02*
X143513500Y-95593819D01*
X143513500Y-95593819D02*
X143418262Y-95641438D01*
X143418262Y-95641438D02*
X143370643Y-95689057D01*
X143370643Y-95689057D02*
X143275405Y-95831914D01*
X143275405Y-95831914D02*
X143227786Y-96022390D01*
X143227786Y-96022390D02*
X143227786Y-96403342D01*
X143227786Y-96403342D02*
X143275405Y-96498580D01*
X143275405Y-96498580D02*
X143323024Y-96546200D01*
X143323024Y-96546200D02*
X143418262Y-96593819D01*
X143418262Y-96593819D02*
X143608738Y-96593819D01*
X143608738Y-96593819D02*
X143703976Y-96546200D01*
X143703976Y-96546200D02*
X143751595Y-96498580D01*
X143751595Y-96498580D02*
X143799214Y-96403342D01*
X143799214Y-96403342D02*
X143799214Y-96165247D01*
X143799214Y-96165247D02*
X143751595Y-96070009D01*
X143751595Y-96070009D02*
X143703976Y-96022390D01*
X143703976Y-96022390D02*
X143608738Y-95974771D01*
X143608738Y-95974771D02*
X143418262Y-95974771D01*
X143418262Y-95974771D02*
X143323024Y-96022390D01*
X143323024Y-96022390D02*
X143275405Y-96070009D01*
X143275405Y-96070009D02*
X143227786Y-96165247D01*
X192220819Y-99480666D02*
X191744628Y-99813999D01*
X192220819Y-100052094D02*
X191220819Y-100052094D01*
X191220819Y-100052094D02*
X191220819Y-99671142D01*
X191220819Y-99671142D02*
X191268438Y-99575904D01*
X191268438Y-99575904D02*
X191316057Y-99528285D01*
X191316057Y-99528285D02*
X191411295Y-99480666D01*
X191411295Y-99480666D02*
X191554152Y-99480666D01*
X191554152Y-99480666D02*
X191649390Y-99528285D01*
X191649390Y-99528285D02*
X191697009Y-99575904D01*
X191697009Y-99575904D02*
X191744628Y-99671142D01*
X191744628Y-99671142D02*
X191744628Y-100052094D01*
X191554152Y-98623523D02*
X192220819Y-98623523D01*
X191173200Y-98861618D02*
X191887485Y-99099713D01*
X191887485Y-99099713D02*
X191887485Y-98480666D01*
X157302142Y-105864819D02*
X156968809Y-105388628D01*
X156730714Y-105864819D02*
X156730714Y-104864819D01*
X156730714Y-104864819D02*
X157111666Y-104864819D01*
X157111666Y-104864819D02*
X157206904Y-104912438D01*
X157206904Y-104912438D02*
X157254523Y-104960057D01*
X157254523Y-104960057D02*
X157302142Y-105055295D01*
X157302142Y-105055295D02*
X157302142Y-105198152D01*
X157302142Y-105198152D02*
X157254523Y-105293390D01*
X157254523Y-105293390D02*
X157206904Y-105341009D01*
X157206904Y-105341009D02*
X157111666Y-105388628D01*
X157111666Y-105388628D02*
X156730714Y-105388628D01*
X158254523Y-105864819D02*
X157683095Y-105864819D01*
X157968809Y-105864819D02*
X157968809Y-104864819D01*
X157968809Y-104864819D02*
X157873571Y-105007676D01*
X157873571Y-105007676D02*
X157778333Y-105102914D01*
X157778333Y-105102914D02*
X157683095Y-105150533D01*
X158587857Y-104864819D02*
X159206904Y-104864819D01*
X159206904Y-104864819D02*
X158873571Y-105245771D01*
X158873571Y-105245771D02*
X159016428Y-105245771D01*
X159016428Y-105245771D02*
X159111666Y-105293390D01*
X159111666Y-105293390D02*
X159159285Y-105341009D01*
X159159285Y-105341009D02*
X159206904Y-105436247D01*
X159206904Y-105436247D02*
X159206904Y-105674342D01*
X159206904Y-105674342D02*
X159159285Y-105769580D01*
X159159285Y-105769580D02*
X159111666Y-105817200D01*
X159111666Y-105817200D02*
X159016428Y-105864819D01*
X159016428Y-105864819D02*
X158730714Y-105864819D01*
X158730714Y-105864819D02*
X158635476Y-105817200D01*
X158635476Y-105817200D02*
X158587857Y-105769580D01*
X162044142Y-87703819D02*
X161710809Y-87227628D01*
X161472714Y-87703819D02*
X161472714Y-86703819D01*
X161472714Y-86703819D02*
X161853666Y-86703819D01*
X161853666Y-86703819D02*
X161948904Y-86751438D01*
X161948904Y-86751438D02*
X161996523Y-86799057D01*
X161996523Y-86799057D02*
X162044142Y-86894295D01*
X162044142Y-86894295D02*
X162044142Y-87037152D01*
X162044142Y-87037152D02*
X161996523Y-87132390D01*
X161996523Y-87132390D02*
X161948904Y-87180009D01*
X161948904Y-87180009D02*
X161853666Y-87227628D01*
X161853666Y-87227628D02*
X161472714Y-87227628D01*
X162425095Y-86799057D02*
X162472714Y-86751438D01*
X162472714Y-86751438D02*
X162567952Y-86703819D01*
X162567952Y-86703819D02*
X162806047Y-86703819D01*
X162806047Y-86703819D02*
X162901285Y-86751438D01*
X162901285Y-86751438D02*
X162948904Y-86799057D01*
X162948904Y-86799057D02*
X162996523Y-86894295D01*
X162996523Y-86894295D02*
X162996523Y-86989533D01*
X162996523Y-86989533D02*
X162948904Y-87132390D01*
X162948904Y-87132390D02*
X162377476Y-87703819D01*
X162377476Y-87703819D02*
X162996523Y-87703819D01*
X163329857Y-86703819D02*
X163996523Y-86703819D01*
X163996523Y-86703819D02*
X163567952Y-87703819D01*
X179362580Y-113926857D02*
X179410200Y-113974476D01*
X179410200Y-113974476D02*
X179457819Y-114117333D01*
X179457819Y-114117333D02*
X179457819Y-114212571D01*
X179457819Y-114212571D02*
X179410200Y-114355428D01*
X179410200Y-114355428D02*
X179314961Y-114450666D01*
X179314961Y-114450666D02*
X179219723Y-114498285D01*
X179219723Y-114498285D02*
X179029247Y-114545904D01*
X179029247Y-114545904D02*
X178886390Y-114545904D01*
X178886390Y-114545904D02*
X178695914Y-114498285D01*
X178695914Y-114498285D02*
X178600676Y-114450666D01*
X178600676Y-114450666D02*
X178505438Y-114355428D01*
X178505438Y-114355428D02*
X178457819Y-114212571D01*
X178457819Y-114212571D02*
X178457819Y-114117333D01*
X178457819Y-114117333D02*
X178505438Y-113974476D01*
X178505438Y-113974476D02*
X178553057Y-113926857D01*
X179457819Y-112974476D02*
X179457819Y-113545904D01*
X179457819Y-113260190D02*
X178457819Y-113260190D01*
X178457819Y-113260190D02*
X178600676Y-113355428D01*
X178600676Y-113355428D02*
X178695914Y-113450666D01*
X178695914Y-113450666D02*
X178743533Y-113545904D01*
X178457819Y-112355428D02*
X178457819Y-112260190D01*
X178457819Y-112260190D02*
X178505438Y-112164952D01*
X178505438Y-112164952D02*
X178553057Y-112117333D01*
X178553057Y-112117333D02*
X178648295Y-112069714D01*
X178648295Y-112069714D02*
X178838771Y-112022095D01*
X178838771Y-112022095D02*
X179076866Y-112022095D01*
X179076866Y-112022095D02*
X179267342Y-112069714D01*
X179267342Y-112069714D02*
X179362580Y-112117333D01*
X179362580Y-112117333D02*
X179410200Y-112164952D01*
X179410200Y-112164952D02*
X179457819Y-112260190D01*
X179457819Y-112260190D02*
X179457819Y-112355428D01*
X179457819Y-112355428D02*
X179410200Y-112450666D01*
X179410200Y-112450666D02*
X179362580Y-112498285D01*
X179362580Y-112498285D02*
X179267342Y-112545904D01*
X179267342Y-112545904D02*
X179076866Y-112593523D01*
X179076866Y-112593523D02*
X178838771Y-112593523D01*
X178838771Y-112593523D02*
X178648295Y-112545904D01*
X178648295Y-112545904D02*
X178553057Y-112498285D01*
X178553057Y-112498285D02*
X178505438Y-112450666D01*
X178505438Y-112450666D02*
X178457819Y-112355428D01*
X186809142Y-122374819D02*
X186475809Y-121898628D01*
X186237714Y-122374819D02*
X186237714Y-121374819D01*
X186237714Y-121374819D02*
X186618666Y-121374819D01*
X186618666Y-121374819D02*
X186713904Y-121422438D01*
X186713904Y-121422438D02*
X186761523Y-121470057D01*
X186761523Y-121470057D02*
X186809142Y-121565295D01*
X186809142Y-121565295D02*
X186809142Y-121708152D01*
X186809142Y-121708152D02*
X186761523Y-121803390D01*
X186761523Y-121803390D02*
X186713904Y-121851009D01*
X186713904Y-121851009D02*
X186618666Y-121898628D01*
X186618666Y-121898628D02*
X186237714Y-121898628D01*
X187761523Y-122374819D02*
X187190095Y-122374819D01*
X187475809Y-122374819D02*
X187475809Y-121374819D01*
X187475809Y-121374819D02*
X187380571Y-121517676D01*
X187380571Y-121517676D02*
X187285333Y-121612914D01*
X187285333Y-121612914D02*
X187190095Y-121660533D01*
X188237714Y-122374819D02*
X188428190Y-122374819D01*
X188428190Y-122374819D02*
X188523428Y-122327200D01*
X188523428Y-122327200D02*
X188571047Y-122279580D01*
X188571047Y-122279580D02*
X188666285Y-122136723D01*
X188666285Y-122136723D02*
X188713904Y-121946247D01*
X188713904Y-121946247D02*
X188713904Y-121565295D01*
X188713904Y-121565295D02*
X188666285Y-121470057D01*
X188666285Y-121470057D02*
X188618666Y-121422438D01*
X188618666Y-121422438D02*
X188523428Y-121374819D01*
X188523428Y-121374819D02*
X188332952Y-121374819D01*
X188332952Y-121374819D02*
X188237714Y-121422438D01*
X188237714Y-121422438D02*
X188190095Y-121470057D01*
X188190095Y-121470057D02*
X188142476Y-121565295D01*
X188142476Y-121565295D02*
X188142476Y-121803390D01*
X188142476Y-121803390D02*
X188190095Y-121898628D01*
X188190095Y-121898628D02*
X188237714Y-121946247D01*
X188237714Y-121946247D02*
X188332952Y-121993866D01*
X188332952Y-121993866D02*
X188523428Y-121993866D01*
X188523428Y-121993866D02*
X188618666Y-121946247D01*
X188618666Y-121946247D02*
X188666285Y-121898628D01*
X188666285Y-121898628D02*
X188713904Y-121803390D01*
X174204333Y-102848580D02*
X174156714Y-102896200D01*
X174156714Y-102896200D02*
X174013857Y-102943819D01*
X174013857Y-102943819D02*
X173918619Y-102943819D01*
X173918619Y-102943819D02*
X173775762Y-102896200D01*
X173775762Y-102896200D02*
X173680524Y-102800961D01*
X173680524Y-102800961D02*
X173632905Y-102705723D01*
X173632905Y-102705723D02*
X173585286Y-102515247D01*
X173585286Y-102515247D02*
X173585286Y-102372390D01*
X173585286Y-102372390D02*
X173632905Y-102181914D01*
X173632905Y-102181914D02*
X173680524Y-102086676D01*
X173680524Y-102086676D02*
X173775762Y-101991438D01*
X173775762Y-101991438D02*
X173918619Y-101943819D01*
X173918619Y-101943819D02*
X174013857Y-101943819D01*
X174013857Y-101943819D02*
X174156714Y-101991438D01*
X174156714Y-101991438D02*
X174204333Y-102039057D01*
X175109095Y-101943819D02*
X174632905Y-101943819D01*
X174632905Y-101943819D02*
X174585286Y-102420009D01*
X174585286Y-102420009D02*
X174632905Y-102372390D01*
X174632905Y-102372390D02*
X174728143Y-102324771D01*
X174728143Y-102324771D02*
X174966238Y-102324771D01*
X174966238Y-102324771D02*
X175061476Y-102372390D01*
X175061476Y-102372390D02*
X175109095Y-102420009D01*
X175109095Y-102420009D02*
X175156714Y-102515247D01*
X175156714Y-102515247D02*
X175156714Y-102753342D01*
X175156714Y-102753342D02*
X175109095Y-102848580D01*
X175109095Y-102848580D02*
X175061476Y-102896200D01*
X175061476Y-102896200D02*
X174966238Y-102943819D01*
X174966238Y-102943819D02*
X174728143Y-102943819D01*
X174728143Y-102943819D02*
X174632905Y-102896200D01*
X174632905Y-102896200D02*
X174585286Y-102848580D01*
X184650142Y-128883580D02*
X184602523Y-128931200D01*
X184602523Y-128931200D02*
X184459666Y-128978819D01*
X184459666Y-128978819D02*
X184364428Y-128978819D01*
X184364428Y-128978819D02*
X184221571Y-128931200D01*
X184221571Y-128931200D02*
X184126333Y-128835961D01*
X184126333Y-128835961D02*
X184078714Y-128740723D01*
X184078714Y-128740723D02*
X184031095Y-128550247D01*
X184031095Y-128550247D02*
X184031095Y-128407390D01*
X184031095Y-128407390D02*
X184078714Y-128216914D01*
X184078714Y-128216914D02*
X184126333Y-128121676D01*
X184126333Y-128121676D02*
X184221571Y-128026438D01*
X184221571Y-128026438D02*
X184364428Y-127978819D01*
X184364428Y-127978819D02*
X184459666Y-127978819D01*
X184459666Y-127978819D02*
X184602523Y-128026438D01*
X184602523Y-128026438D02*
X184650142Y-128074057D01*
X185602523Y-128978819D02*
X185031095Y-128978819D01*
X185316809Y-128978819D02*
X185316809Y-127978819D01*
X185316809Y-127978819D02*
X185221571Y-128121676D01*
X185221571Y-128121676D02*
X185126333Y-128216914D01*
X185126333Y-128216914D02*
X185031095Y-128264533D01*
X186173952Y-128407390D02*
X186078714Y-128359771D01*
X186078714Y-128359771D02*
X186031095Y-128312152D01*
X186031095Y-128312152D02*
X185983476Y-128216914D01*
X185983476Y-128216914D02*
X185983476Y-128169295D01*
X185983476Y-128169295D02*
X186031095Y-128074057D01*
X186031095Y-128074057D02*
X186078714Y-128026438D01*
X186078714Y-128026438D02*
X186173952Y-127978819D01*
X186173952Y-127978819D02*
X186364428Y-127978819D01*
X186364428Y-127978819D02*
X186459666Y-128026438D01*
X186459666Y-128026438D02*
X186507285Y-128074057D01*
X186507285Y-128074057D02*
X186554904Y-128169295D01*
X186554904Y-128169295D02*
X186554904Y-128216914D01*
X186554904Y-128216914D02*
X186507285Y-128312152D01*
X186507285Y-128312152D02*
X186459666Y-128359771D01*
X186459666Y-128359771D02*
X186364428Y-128407390D01*
X186364428Y-128407390D02*
X186173952Y-128407390D01*
X186173952Y-128407390D02*
X186078714Y-128455009D01*
X186078714Y-128455009D02*
X186031095Y-128502628D01*
X186031095Y-128502628D02*
X185983476Y-128597866D01*
X185983476Y-128597866D02*
X185983476Y-128788342D01*
X185983476Y-128788342D02*
X186031095Y-128883580D01*
X186031095Y-128883580D02*
X186078714Y-128931200D01*
X186078714Y-128931200D02*
X186173952Y-128978819D01*
X186173952Y-128978819D02*
X186364428Y-128978819D01*
X186364428Y-128978819D02*
X186459666Y-128931200D01*
X186459666Y-128931200D02*
X186507285Y-128883580D01*
X186507285Y-128883580D02*
X186554904Y-128788342D01*
X186554904Y-128788342D02*
X186554904Y-128597866D01*
X186554904Y-128597866D02*
X186507285Y-128502628D01*
X186507285Y-128502628D02*
X186459666Y-128455009D01*
X186459666Y-128455009D02*
X186364428Y-128407390D01*
X138687642Y-96593819D02*
X138354309Y-96117628D01*
X138116214Y-96593819D02*
X138116214Y-95593819D01*
X138116214Y-95593819D02*
X138497166Y-95593819D01*
X138497166Y-95593819D02*
X138592404Y-95641438D01*
X138592404Y-95641438D02*
X138640023Y-95689057D01*
X138640023Y-95689057D02*
X138687642Y-95784295D01*
X138687642Y-95784295D02*
X138687642Y-95927152D01*
X138687642Y-95927152D02*
X138640023Y-96022390D01*
X138640023Y-96022390D02*
X138592404Y-96070009D01*
X138592404Y-96070009D02*
X138497166Y-96117628D01*
X138497166Y-96117628D02*
X138116214Y-96117628D01*
X139020976Y-95593819D02*
X139640023Y-95593819D01*
X139640023Y-95593819D02*
X139306690Y-95974771D01*
X139306690Y-95974771D02*
X139449547Y-95974771D01*
X139449547Y-95974771D02*
X139544785Y-96022390D01*
X139544785Y-96022390D02*
X139592404Y-96070009D01*
X139592404Y-96070009D02*
X139640023Y-96165247D01*
X139640023Y-96165247D02*
X139640023Y-96403342D01*
X139640023Y-96403342D02*
X139592404Y-96498580D01*
X139592404Y-96498580D02*
X139544785Y-96546200D01*
X139544785Y-96546200D02*
X139449547Y-96593819D01*
X139449547Y-96593819D02*
X139163833Y-96593819D01*
X139163833Y-96593819D02*
X139068595Y-96546200D01*
X139068595Y-96546200D02*
X139020976Y-96498580D01*
X139973357Y-95593819D02*
X140592404Y-95593819D01*
X140592404Y-95593819D02*
X140259071Y-95974771D01*
X140259071Y-95974771D02*
X140401928Y-95974771D01*
X140401928Y-95974771D02*
X140497166Y-96022390D01*
X140497166Y-96022390D02*
X140544785Y-96070009D01*
X140544785Y-96070009D02*
X140592404Y-96165247D01*
X140592404Y-96165247D02*
X140592404Y-96403342D01*
X140592404Y-96403342D02*
X140544785Y-96498580D01*
X140544785Y-96498580D02*
X140497166Y-96546200D01*
X140497166Y-96546200D02*
X140401928Y-96593819D01*
X140401928Y-96593819D02*
X140116214Y-96593819D01*
X140116214Y-96593819D02*
X140020976Y-96546200D01*
X140020976Y-96546200D02*
X139973357Y-96498580D01*
X142539819Y-119586333D02*
X143254104Y-119586333D01*
X143254104Y-119586333D02*
X143396961Y-119633952D01*
X143396961Y-119633952D02*
X143492200Y-119729190D01*
X143492200Y-119729190D02*
X143539819Y-119872047D01*
X143539819Y-119872047D02*
X143539819Y-119967285D01*
X142539819Y-118681571D02*
X142539819Y-118872047D01*
X142539819Y-118872047D02*
X142587438Y-118967285D01*
X142587438Y-118967285D02*
X142635057Y-119014904D01*
X142635057Y-119014904D02*
X142777914Y-119110142D01*
X142777914Y-119110142D02*
X142968390Y-119157761D01*
X142968390Y-119157761D02*
X143349342Y-119157761D01*
X143349342Y-119157761D02*
X143444580Y-119110142D01*
X143444580Y-119110142D02*
X143492200Y-119062523D01*
X143492200Y-119062523D02*
X143539819Y-118967285D01*
X143539819Y-118967285D02*
X143539819Y-118776809D01*
X143539819Y-118776809D02*
X143492200Y-118681571D01*
X143492200Y-118681571D02*
X143444580Y-118633952D01*
X143444580Y-118633952D02*
X143349342Y-118586333D01*
X143349342Y-118586333D02*
X143111247Y-118586333D01*
X143111247Y-118586333D02*
X143016009Y-118633952D01*
X143016009Y-118633952D02*
X142968390Y-118681571D01*
X142968390Y-118681571D02*
X142920771Y-118776809D01*
X142920771Y-118776809D02*
X142920771Y-118967285D01*
X142920771Y-118967285D02*
X142968390Y-119062523D01*
X142968390Y-119062523D02*
X143016009Y-119110142D01*
X143016009Y-119110142D02*
X143111247Y-119157761D01*
X142136905Y-102181819D02*
X142136905Y-101181819D01*
X142136905Y-101181819D02*
X142375000Y-101181819D01*
X142375000Y-101181819D02*
X142517857Y-101229438D01*
X142517857Y-101229438D02*
X142613095Y-101324676D01*
X142613095Y-101324676D02*
X142660714Y-101419914D01*
X142660714Y-101419914D02*
X142708333Y-101610390D01*
X142708333Y-101610390D02*
X142708333Y-101753247D01*
X142708333Y-101753247D02*
X142660714Y-101943723D01*
X142660714Y-101943723D02*
X142613095Y-102038961D01*
X142613095Y-102038961D02*
X142517857Y-102134200D01*
X142517857Y-102134200D02*
X142375000Y-102181819D01*
X142375000Y-102181819D02*
X142136905Y-102181819D01*
X143565476Y-101515152D02*
X143565476Y-102181819D01*
X143327381Y-101134200D02*
X143089286Y-101848485D01*
X143089286Y-101848485D02*
X143708333Y-101848485D01*
X171188142Y-105958819D02*
X170854809Y-105482628D01*
X170616714Y-105958819D02*
X170616714Y-104958819D01*
X170616714Y-104958819D02*
X170997666Y-104958819D01*
X170997666Y-104958819D02*
X171092904Y-105006438D01*
X171092904Y-105006438D02*
X171140523Y-105054057D01*
X171140523Y-105054057D02*
X171188142Y-105149295D01*
X171188142Y-105149295D02*
X171188142Y-105292152D01*
X171188142Y-105292152D02*
X171140523Y-105387390D01*
X171140523Y-105387390D02*
X171092904Y-105435009D01*
X171092904Y-105435009D02*
X170997666Y-105482628D01*
X170997666Y-105482628D02*
X170616714Y-105482628D01*
X172140523Y-105958819D02*
X171569095Y-105958819D01*
X171854809Y-105958819D02*
X171854809Y-104958819D01*
X171854809Y-104958819D02*
X171759571Y-105101676D01*
X171759571Y-105101676D02*
X171664333Y-105196914D01*
X171664333Y-105196914D02*
X171569095Y-105244533D01*
X172521476Y-105054057D02*
X172569095Y-105006438D01*
X172569095Y-105006438D02*
X172664333Y-104958819D01*
X172664333Y-104958819D02*
X172902428Y-104958819D01*
X172902428Y-104958819D02*
X172997666Y-105006438D01*
X172997666Y-105006438D02*
X173045285Y-105054057D01*
X173045285Y-105054057D02*
X173092904Y-105149295D01*
X173092904Y-105149295D02*
X173092904Y-105244533D01*
X173092904Y-105244533D02*
X173045285Y-105387390D01*
X173045285Y-105387390D02*
X172473857Y-105958819D01*
X172473857Y-105958819D02*
X173092904Y-105958819D01*
X144827666Y-104610819D02*
X144827666Y-105325104D01*
X144827666Y-105325104D02*
X144780047Y-105467961D01*
X144780047Y-105467961D02*
X144684809Y-105563200D01*
X144684809Y-105563200D02*
X144541952Y-105610819D01*
X144541952Y-105610819D02*
X144446714Y-105610819D01*
X145446714Y-105039390D02*
X145351476Y-104991771D01*
X145351476Y-104991771D02*
X145303857Y-104944152D01*
X145303857Y-104944152D02*
X145256238Y-104848914D01*
X145256238Y-104848914D02*
X145256238Y-104801295D01*
X145256238Y-104801295D02*
X145303857Y-104706057D01*
X145303857Y-104706057D02*
X145351476Y-104658438D01*
X145351476Y-104658438D02*
X145446714Y-104610819D01*
X145446714Y-104610819D02*
X145637190Y-104610819D01*
X145637190Y-104610819D02*
X145732428Y-104658438D01*
X145732428Y-104658438D02*
X145780047Y-104706057D01*
X145780047Y-104706057D02*
X145827666Y-104801295D01*
X145827666Y-104801295D02*
X145827666Y-104848914D01*
X145827666Y-104848914D02*
X145780047Y-104944152D01*
X145780047Y-104944152D02*
X145732428Y-104991771D01*
X145732428Y-104991771D02*
X145637190Y-105039390D01*
X145637190Y-105039390D02*
X145446714Y-105039390D01*
X145446714Y-105039390D02*
X145351476Y-105087009D01*
X145351476Y-105087009D02*
X145303857Y-105134628D01*
X145303857Y-105134628D02*
X145256238Y-105229866D01*
X145256238Y-105229866D02*
X145256238Y-105420342D01*
X145256238Y-105420342D02*
X145303857Y-105515580D01*
X145303857Y-105515580D02*
X145351476Y-105563200D01*
X145351476Y-105563200D02*
X145446714Y-105610819D01*
X145446714Y-105610819D02*
X145637190Y-105610819D01*
X145637190Y-105610819D02*
X145732428Y-105563200D01*
X145732428Y-105563200D02*
X145780047Y-105515580D01*
X145780047Y-105515580D02*
X145827666Y-105420342D01*
X145827666Y-105420342D02*
X145827666Y-105229866D01*
X145827666Y-105229866D02*
X145780047Y-105134628D01*
X145780047Y-105134628D02*
X145732428Y-105087009D01*
X145732428Y-105087009D02*
X145637190Y-105039390D01*
X138630819Y-140342857D02*
X138154628Y-140676190D01*
X138630819Y-140914285D02*
X137630819Y-140914285D01*
X137630819Y-140914285D02*
X137630819Y-140533333D01*
X137630819Y-140533333D02*
X137678438Y-140438095D01*
X137678438Y-140438095D02*
X137726057Y-140390476D01*
X137726057Y-140390476D02*
X137821295Y-140342857D01*
X137821295Y-140342857D02*
X137964152Y-140342857D01*
X137964152Y-140342857D02*
X138059390Y-140390476D01*
X138059390Y-140390476D02*
X138107009Y-140438095D01*
X138107009Y-140438095D02*
X138154628Y-140533333D01*
X138154628Y-140533333D02*
X138154628Y-140914285D01*
X137726057Y-139961904D02*
X137678438Y-139914285D01*
X137678438Y-139914285D02*
X137630819Y-139819047D01*
X137630819Y-139819047D02*
X137630819Y-139580952D01*
X137630819Y-139580952D02*
X137678438Y-139485714D01*
X137678438Y-139485714D02*
X137726057Y-139438095D01*
X137726057Y-139438095D02*
X137821295Y-139390476D01*
X137821295Y-139390476D02*
X137916533Y-139390476D01*
X137916533Y-139390476D02*
X138059390Y-139438095D01*
X138059390Y-139438095D02*
X138630819Y-140009523D01*
X138630819Y-140009523D02*
X138630819Y-139390476D01*
X137630819Y-138485714D02*
X137630819Y-138961904D01*
X137630819Y-138961904D02*
X138107009Y-139009523D01*
X138107009Y-139009523D02*
X138059390Y-138961904D01*
X138059390Y-138961904D02*
X138011771Y-138866666D01*
X138011771Y-138866666D02*
X138011771Y-138628571D01*
X138011771Y-138628571D02*
X138059390Y-138533333D01*
X138059390Y-138533333D02*
X138107009Y-138485714D01*
X138107009Y-138485714D02*
X138202247Y-138438095D01*
X138202247Y-138438095D02*
X138440342Y-138438095D01*
X138440342Y-138438095D02*
X138535580Y-138485714D01*
X138535580Y-138485714D02*
X138583200Y-138533333D01*
X138583200Y-138533333D02*
X138630819Y-138628571D01*
X138630819Y-138628571D02*
X138630819Y-138866666D01*
X138630819Y-138866666D02*
X138583200Y-138961904D01*
X138583200Y-138961904D02*
X138535580Y-139009523D01*
X173823333Y-94085580D02*
X173775714Y-94133200D01*
X173775714Y-94133200D02*
X173632857Y-94180819D01*
X173632857Y-94180819D02*
X173537619Y-94180819D01*
X173537619Y-94180819D02*
X173394762Y-94133200D01*
X173394762Y-94133200D02*
X173299524Y-94037961D01*
X173299524Y-94037961D02*
X173251905Y-93942723D01*
X173251905Y-93942723D02*
X173204286Y-93752247D01*
X173204286Y-93752247D02*
X173204286Y-93609390D01*
X173204286Y-93609390D02*
X173251905Y-93418914D01*
X173251905Y-93418914D02*
X173299524Y-93323676D01*
X173299524Y-93323676D02*
X173394762Y-93228438D01*
X173394762Y-93228438D02*
X173537619Y-93180819D01*
X173537619Y-93180819D02*
X173632857Y-93180819D01*
X173632857Y-93180819D02*
X173775714Y-93228438D01*
X173775714Y-93228438D02*
X173823333Y-93276057D01*
X174680476Y-93514152D02*
X174680476Y-94180819D01*
X174442381Y-93133200D02*
X174204286Y-93847485D01*
X174204286Y-93847485D02*
X174823333Y-93847485D01*
X144121476Y-148044819D02*
X144121476Y-148759104D01*
X144121476Y-148759104D02*
X144073857Y-148901961D01*
X144073857Y-148901961D02*
X143978619Y-148997200D01*
X143978619Y-148997200D02*
X143835762Y-149044819D01*
X143835762Y-149044819D02*
X143740524Y-149044819D01*
X145121476Y-149044819D02*
X144550048Y-149044819D01*
X144835762Y-149044819D02*
X144835762Y-148044819D01*
X144835762Y-148044819D02*
X144740524Y-148187676D01*
X144740524Y-148187676D02*
X144645286Y-148282914D01*
X144645286Y-148282914D02*
X144550048Y-148330533D01*
X145692905Y-148473390D02*
X145597667Y-148425771D01*
X145597667Y-148425771D02*
X145550048Y-148378152D01*
X145550048Y-148378152D02*
X145502429Y-148282914D01*
X145502429Y-148282914D02*
X145502429Y-148235295D01*
X145502429Y-148235295D02*
X145550048Y-148140057D01*
X145550048Y-148140057D02*
X145597667Y-148092438D01*
X145597667Y-148092438D02*
X145692905Y-148044819D01*
X145692905Y-148044819D02*
X145883381Y-148044819D01*
X145883381Y-148044819D02*
X145978619Y-148092438D01*
X145978619Y-148092438D02*
X146026238Y-148140057D01*
X146026238Y-148140057D02*
X146073857Y-148235295D01*
X146073857Y-148235295D02*
X146073857Y-148282914D01*
X146073857Y-148282914D02*
X146026238Y-148378152D01*
X146026238Y-148378152D02*
X145978619Y-148425771D01*
X145978619Y-148425771D02*
X145883381Y-148473390D01*
X145883381Y-148473390D02*
X145692905Y-148473390D01*
X145692905Y-148473390D02*
X145597667Y-148521009D01*
X145597667Y-148521009D02*
X145550048Y-148568628D01*
X145550048Y-148568628D02*
X145502429Y-148663866D01*
X145502429Y-148663866D02*
X145502429Y-148854342D01*
X145502429Y-148854342D02*
X145550048Y-148949580D01*
X145550048Y-148949580D02*
X145597667Y-148997200D01*
X145597667Y-148997200D02*
X145692905Y-149044819D01*
X145692905Y-149044819D02*
X145883381Y-149044819D01*
X145883381Y-149044819D02*
X145978619Y-148997200D01*
X145978619Y-148997200D02*
X146026238Y-148949580D01*
X146026238Y-148949580D02*
X146073857Y-148854342D01*
X146073857Y-148854342D02*
X146073857Y-148663866D01*
X146073857Y-148663866D02*
X146026238Y-148568628D01*
X146026238Y-148568628D02*
X145978619Y-148521009D01*
X145978619Y-148521009D02*
X145883381Y-148473390D01*
X164322080Y-98371857D02*
X164369700Y-98419476D01*
X164369700Y-98419476D02*
X164417319Y-98562333D01*
X164417319Y-98562333D02*
X164417319Y-98657571D01*
X164417319Y-98657571D02*
X164369700Y-98800428D01*
X164369700Y-98800428D02*
X164274461Y-98895666D01*
X164274461Y-98895666D02*
X164179223Y-98943285D01*
X164179223Y-98943285D02*
X163988747Y-98990904D01*
X163988747Y-98990904D02*
X163845890Y-98990904D01*
X163845890Y-98990904D02*
X163655414Y-98943285D01*
X163655414Y-98943285D02*
X163560176Y-98895666D01*
X163560176Y-98895666D02*
X163464938Y-98800428D01*
X163464938Y-98800428D02*
X163417319Y-98657571D01*
X163417319Y-98657571D02*
X163417319Y-98562333D01*
X163417319Y-98562333D02*
X163464938Y-98419476D01*
X163464938Y-98419476D02*
X163512557Y-98371857D01*
X163417319Y-98038523D02*
X163417319Y-97419476D01*
X163417319Y-97419476D02*
X163798271Y-97752809D01*
X163798271Y-97752809D02*
X163798271Y-97609952D01*
X163798271Y-97609952D02*
X163845890Y-97514714D01*
X163845890Y-97514714D02*
X163893509Y-97467095D01*
X163893509Y-97467095D02*
X163988747Y-97419476D01*
X163988747Y-97419476D02*
X164226842Y-97419476D01*
X164226842Y-97419476D02*
X164322080Y-97467095D01*
X164322080Y-97467095D02*
X164369700Y-97514714D01*
X164369700Y-97514714D02*
X164417319Y-97609952D01*
X164417319Y-97609952D02*
X164417319Y-97895666D01*
X164417319Y-97895666D02*
X164369700Y-97990904D01*
X164369700Y-97990904D02*
X164322080Y-98038523D01*
X163512557Y-97038523D02*
X163464938Y-96990904D01*
X163464938Y-96990904D02*
X163417319Y-96895666D01*
X163417319Y-96895666D02*
X163417319Y-96657571D01*
X163417319Y-96657571D02*
X163464938Y-96562333D01*
X163464938Y-96562333D02*
X163512557Y-96514714D01*
X163512557Y-96514714D02*
X163607795Y-96467095D01*
X163607795Y-96467095D02*
X163703033Y-96467095D01*
X163703033Y-96467095D02*
X163845890Y-96514714D01*
X163845890Y-96514714D02*
X164417319Y-97086142D01*
X164417319Y-97086142D02*
X164417319Y-96467095D01*
X138676142Y-102181819D02*
X138342809Y-101705628D01*
X138104714Y-102181819D02*
X138104714Y-101181819D01*
X138104714Y-101181819D02*
X138485666Y-101181819D01*
X138485666Y-101181819D02*
X138580904Y-101229438D01*
X138580904Y-101229438D02*
X138628523Y-101277057D01*
X138628523Y-101277057D02*
X138676142Y-101372295D01*
X138676142Y-101372295D02*
X138676142Y-101515152D01*
X138676142Y-101515152D02*
X138628523Y-101610390D01*
X138628523Y-101610390D02*
X138580904Y-101658009D01*
X138580904Y-101658009D02*
X138485666Y-101705628D01*
X138485666Y-101705628D02*
X138104714Y-101705628D01*
X139009476Y-101181819D02*
X139628523Y-101181819D01*
X139628523Y-101181819D02*
X139295190Y-101562771D01*
X139295190Y-101562771D02*
X139438047Y-101562771D01*
X139438047Y-101562771D02*
X139533285Y-101610390D01*
X139533285Y-101610390D02*
X139580904Y-101658009D01*
X139580904Y-101658009D02*
X139628523Y-101753247D01*
X139628523Y-101753247D02*
X139628523Y-101991342D01*
X139628523Y-101991342D02*
X139580904Y-102086580D01*
X139580904Y-102086580D02*
X139533285Y-102134200D01*
X139533285Y-102134200D02*
X139438047Y-102181819D01*
X139438047Y-102181819D02*
X139152333Y-102181819D01*
X139152333Y-102181819D02*
X139057095Y-102134200D01*
X139057095Y-102134200D02*
X139009476Y-102086580D01*
X140580904Y-102181819D02*
X140009476Y-102181819D01*
X140295190Y-102181819D02*
X140295190Y-101181819D01*
X140295190Y-101181819D02*
X140199952Y-101324676D01*
X140199952Y-101324676D02*
X140104714Y-101419914D01*
X140104714Y-101419914D02*
X140009476Y-101467533D01*
X148044819Y-100631523D02*
X148759104Y-100631523D01*
X148759104Y-100631523D02*
X148901961Y-100679142D01*
X148901961Y-100679142D02*
X148997200Y-100774380D01*
X148997200Y-100774380D02*
X149044819Y-100917237D01*
X149044819Y-100917237D02*
X149044819Y-101012475D01*
X149044819Y-99631523D02*
X149044819Y-100202951D01*
X149044819Y-99917237D02*
X148044819Y-99917237D01*
X148044819Y-99917237D02*
X148187676Y-100012475D01*
X148187676Y-100012475D02*
X148282914Y-100107713D01*
X148282914Y-100107713D02*
X148330533Y-100202951D01*
X148044819Y-99012475D02*
X148044819Y-98917237D01*
X148044819Y-98917237D02*
X148092438Y-98821999D01*
X148092438Y-98821999D02*
X148140057Y-98774380D01*
X148140057Y-98774380D02*
X148235295Y-98726761D01*
X148235295Y-98726761D02*
X148425771Y-98679142D01*
X148425771Y-98679142D02*
X148663866Y-98679142D01*
X148663866Y-98679142D02*
X148854342Y-98726761D01*
X148854342Y-98726761D02*
X148949580Y-98774380D01*
X148949580Y-98774380D02*
X148997200Y-98821999D01*
X148997200Y-98821999D02*
X149044819Y-98917237D01*
X149044819Y-98917237D02*
X149044819Y-99012475D01*
X149044819Y-99012475D02*
X148997200Y-99107713D01*
X148997200Y-99107713D02*
X148949580Y-99155332D01*
X148949580Y-99155332D02*
X148854342Y-99202951D01*
X148854342Y-99202951D02*
X148663866Y-99250570D01*
X148663866Y-99250570D02*
X148425771Y-99250570D01*
X148425771Y-99250570D02*
X148235295Y-99202951D01*
X148235295Y-99202951D02*
X148140057Y-99155332D01*
X148140057Y-99155332D02*
X148092438Y-99107713D01*
X148092438Y-99107713D02*
X148044819Y-99012475D01*
X186809142Y-117453580D02*
X186761523Y-117501200D01*
X186761523Y-117501200D02*
X186618666Y-117548819D01*
X186618666Y-117548819D02*
X186523428Y-117548819D01*
X186523428Y-117548819D02*
X186380571Y-117501200D01*
X186380571Y-117501200D02*
X186285333Y-117405961D01*
X186285333Y-117405961D02*
X186237714Y-117310723D01*
X186237714Y-117310723D02*
X186190095Y-117120247D01*
X186190095Y-117120247D02*
X186190095Y-116977390D01*
X186190095Y-116977390D02*
X186237714Y-116786914D01*
X186237714Y-116786914D02*
X186285333Y-116691676D01*
X186285333Y-116691676D02*
X186380571Y-116596438D01*
X186380571Y-116596438D02*
X186523428Y-116548819D01*
X186523428Y-116548819D02*
X186618666Y-116548819D01*
X186618666Y-116548819D02*
X186761523Y-116596438D01*
X186761523Y-116596438D02*
X186809142Y-116644057D01*
X187761523Y-117548819D02*
X187190095Y-117548819D01*
X187475809Y-117548819D02*
X187475809Y-116548819D01*
X187475809Y-116548819D02*
X187380571Y-116691676D01*
X187380571Y-116691676D02*
X187285333Y-116786914D01*
X187285333Y-116786914D02*
X187190095Y-116834533D01*
X188094857Y-116548819D02*
X188713904Y-116548819D01*
X188713904Y-116548819D02*
X188380571Y-116929771D01*
X188380571Y-116929771D02*
X188523428Y-116929771D01*
X188523428Y-116929771D02*
X188618666Y-116977390D01*
X188618666Y-116977390D02*
X188666285Y-117025009D01*
X188666285Y-117025009D02*
X188713904Y-117120247D01*
X188713904Y-117120247D02*
X188713904Y-117358342D01*
X188713904Y-117358342D02*
X188666285Y-117453580D01*
X188666285Y-117453580D02*
X188618666Y-117501200D01*
X188618666Y-117501200D02*
X188523428Y-117548819D01*
X188523428Y-117548819D02*
X188237714Y-117548819D01*
X188237714Y-117548819D02*
X188142476Y-117501200D01*
X188142476Y-117501200D02*
X188094857Y-117453580D01*
X148425819Y-92376523D02*
X149140104Y-92376523D01*
X149140104Y-92376523D02*
X149282961Y-92424142D01*
X149282961Y-92424142D02*
X149378200Y-92519380D01*
X149378200Y-92519380D02*
X149425819Y-92662237D01*
X149425819Y-92662237D02*
X149425819Y-92757475D01*
X149425819Y-91376523D02*
X149425819Y-91947951D01*
X149425819Y-91662237D02*
X148425819Y-91662237D01*
X148425819Y-91662237D02*
X148568676Y-91757475D01*
X148568676Y-91757475D02*
X148663914Y-91852713D01*
X148663914Y-91852713D02*
X148711533Y-91947951D01*
X148425819Y-91043189D02*
X148425819Y-90424142D01*
X148425819Y-90424142D02*
X148806771Y-90757475D01*
X148806771Y-90757475D02*
X148806771Y-90614618D01*
X148806771Y-90614618D02*
X148854390Y-90519380D01*
X148854390Y-90519380D02*
X148902009Y-90471761D01*
X148902009Y-90471761D02*
X148997247Y-90424142D01*
X148997247Y-90424142D02*
X149235342Y-90424142D01*
X149235342Y-90424142D02*
X149330580Y-90471761D01*
X149330580Y-90471761D02*
X149378200Y-90519380D01*
X149378200Y-90519380D02*
X149425819Y-90614618D01*
X149425819Y-90614618D02*
X149425819Y-90900332D01*
X149425819Y-90900332D02*
X149378200Y-90995570D01*
X149378200Y-90995570D02*
X149330580Y-91043189D01*
X190111142Y-120977819D02*
X189777809Y-120501628D01*
X189539714Y-120977819D02*
X189539714Y-119977819D01*
X189539714Y-119977819D02*
X189920666Y-119977819D01*
X189920666Y-119977819D02*
X190015904Y-120025438D01*
X190015904Y-120025438D02*
X190063523Y-120073057D01*
X190063523Y-120073057D02*
X190111142Y-120168295D01*
X190111142Y-120168295D02*
X190111142Y-120311152D01*
X190111142Y-120311152D02*
X190063523Y-120406390D01*
X190063523Y-120406390D02*
X190015904Y-120454009D01*
X190015904Y-120454009D02*
X189920666Y-120501628D01*
X189920666Y-120501628D02*
X189539714Y-120501628D01*
X190492095Y-120073057D02*
X190539714Y-120025438D01*
X190539714Y-120025438D02*
X190634952Y-119977819D01*
X190634952Y-119977819D02*
X190873047Y-119977819D01*
X190873047Y-119977819D02*
X190968285Y-120025438D01*
X190968285Y-120025438D02*
X191015904Y-120073057D01*
X191015904Y-120073057D02*
X191063523Y-120168295D01*
X191063523Y-120168295D02*
X191063523Y-120263533D01*
X191063523Y-120263533D02*
X191015904Y-120406390D01*
X191015904Y-120406390D02*
X190444476Y-120977819D01*
X190444476Y-120977819D02*
X191063523Y-120977819D01*
X191682571Y-119977819D02*
X191777809Y-119977819D01*
X191777809Y-119977819D02*
X191873047Y-120025438D01*
X191873047Y-120025438D02*
X191920666Y-120073057D01*
X191920666Y-120073057D02*
X191968285Y-120168295D01*
X191968285Y-120168295D02*
X192015904Y-120358771D01*
X192015904Y-120358771D02*
X192015904Y-120596866D01*
X192015904Y-120596866D02*
X191968285Y-120787342D01*
X191968285Y-120787342D02*
X191920666Y-120882580D01*
X191920666Y-120882580D02*
X191873047Y-120930200D01*
X191873047Y-120930200D02*
X191777809Y-120977819D01*
X191777809Y-120977819D02*
X191682571Y-120977819D01*
X191682571Y-120977819D02*
X191587333Y-120930200D01*
X191587333Y-120930200D02*
X191539714Y-120882580D01*
X191539714Y-120882580D02*
X191492095Y-120787342D01*
X191492095Y-120787342D02*
X191444476Y-120596866D01*
X191444476Y-120596866D02*
X191444476Y-120358771D01*
X191444476Y-120358771D02*
X191492095Y-120168295D01*
X191492095Y-120168295D02*
X191539714Y-120073057D01*
X191539714Y-120073057D02*
X191587333Y-120025438D01*
X191587333Y-120025438D02*
X191682571Y-119977819D01*
X177778580Y-113926857D02*
X177826200Y-113974476D01*
X177826200Y-113974476D02*
X177873819Y-114117333D01*
X177873819Y-114117333D02*
X177873819Y-114212571D01*
X177873819Y-114212571D02*
X177826200Y-114355428D01*
X177826200Y-114355428D02*
X177730961Y-114450666D01*
X177730961Y-114450666D02*
X177635723Y-114498285D01*
X177635723Y-114498285D02*
X177445247Y-114545904D01*
X177445247Y-114545904D02*
X177302390Y-114545904D01*
X177302390Y-114545904D02*
X177111914Y-114498285D01*
X177111914Y-114498285D02*
X177016676Y-114450666D01*
X177016676Y-114450666D02*
X176921438Y-114355428D01*
X176921438Y-114355428D02*
X176873819Y-114212571D01*
X176873819Y-114212571D02*
X176873819Y-114117333D01*
X176873819Y-114117333D02*
X176921438Y-113974476D01*
X176921438Y-113974476D02*
X176969057Y-113926857D01*
X176873819Y-113593523D02*
X176873819Y-112974476D01*
X176873819Y-112974476D02*
X177254771Y-113307809D01*
X177254771Y-113307809D02*
X177254771Y-113164952D01*
X177254771Y-113164952D02*
X177302390Y-113069714D01*
X177302390Y-113069714D02*
X177350009Y-113022095D01*
X177350009Y-113022095D02*
X177445247Y-112974476D01*
X177445247Y-112974476D02*
X177683342Y-112974476D01*
X177683342Y-112974476D02*
X177778580Y-113022095D01*
X177778580Y-113022095D02*
X177826200Y-113069714D01*
X177826200Y-113069714D02*
X177873819Y-113164952D01*
X177873819Y-113164952D02*
X177873819Y-113450666D01*
X177873819Y-113450666D02*
X177826200Y-113545904D01*
X177826200Y-113545904D02*
X177778580Y-113593523D01*
X176873819Y-112069714D02*
X176873819Y-112545904D01*
X176873819Y-112545904D02*
X177350009Y-112593523D01*
X177350009Y-112593523D02*
X177302390Y-112545904D01*
X177302390Y-112545904D02*
X177254771Y-112450666D01*
X177254771Y-112450666D02*
X177254771Y-112212571D01*
X177254771Y-112212571D02*
X177302390Y-112117333D01*
X177302390Y-112117333D02*
X177350009Y-112069714D01*
X177350009Y-112069714D02*
X177445247Y-112022095D01*
X177445247Y-112022095D02*
X177683342Y-112022095D01*
X177683342Y-112022095D02*
X177778580Y-112069714D01*
X177778580Y-112069714D02*
X177826200Y-112117333D01*
X177826200Y-112117333D02*
X177873819Y-112212571D01*
X177873819Y-112212571D02*
X177873819Y-112450666D01*
X177873819Y-112450666D02*
X177826200Y-112545904D01*
X177826200Y-112545904D02*
X177778580Y-112593523D01*
X165092142Y-119836580D02*
X165044523Y-119884200D01*
X165044523Y-119884200D02*
X164901666Y-119931819D01*
X164901666Y-119931819D02*
X164806428Y-119931819D01*
X164806428Y-119931819D02*
X164663571Y-119884200D01*
X164663571Y-119884200D02*
X164568333Y-119788961D01*
X164568333Y-119788961D02*
X164520714Y-119693723D01*
X164520714Y-119693723D02*
X164473095Y-119503247D01*
X164473095Y-119503247D02*
X164473095Y-119360390D01*
X164473095Y-119360390D02*
X164520714Y-119169914D01*
X164520714Y-119169914D02*
X164568333Y-119074676D01*
X164568333Y-119074676D02*
X164663571Y-118979438D01*
X164663571Y-118979438D02*
X164806428Y-118931819D01*
X164806428Y-118931819D02*
X164901666Y-118931819D01*
X164901666Y-118931819D02*
X165044523Y-118979438D01*
X165044523Y-118979438D02*
X165092142Y-119027057D01*
X166044523Y-119931819D02*
X165473095Y-119931819D01*
X165758809Y-119931819D02*
X165758809Y-118931819D01*
X165758809Y-118931819D02*
X165663571Y-119074676D01*
X165663571Y-119074676D02*
X165568333Y-119169914D01*
X165568333Y-119169914D02*
X165473095Y-119217533D01*
X166996904Y-119931819D02*
X166425476Y-119931819D01*
X166711190Y-119931819D02*
X166711190Y-118931819D01*
X166711190Y-118931819D02*
X166615952Y-119074676D01*
X166615952Y-119074676D02*
X166520714Y-119169914D01*
X166520714Y-119169914D02*
X166425476Y-119217533D01*
D12*
X184544580Y-120906000D02*
X184263420Y-120906000D01*
X184544580Y-119886000D02*
X184263420Y-119886000D01*
X197804000Y-111319000D02*
X197804000Y-112649000D01*
X196474000Y-111319000D02*
X197804000Y-111319000D01*
X195204000Y-111319000D02*
X192604000Y-111319000D01*
X195204000Y-111319000D02*
X195204000Y-113979000D01*
X192604000Y-111319000D02*
X192604000Y-113979000D01*
X195204000Y-113979000D02*
X192604000Y-113979000D01*
X156534420Y-106932000D02*
X156815580Y-106932000D01*
X156534420Y-107952000D02*
X156815580Y-107952000D01*
X187718742Y-102477500D02*
X188193258Y-102477500D01*
X187718742Y-103522500D02*
X188193258Y-103522500D01*
X156315500Y-99414000D02*
X154845500Y-99414000D01*
X154845500Y-99414000D02*
X154845500Y-101699000D01*
X156315500Y-101699000D02*
X156315500Y-99414000D01*
X185164000Y-107177420D02*
X185164000Y-107458580D01*
X184144000Y-107177420D02*
X184144000Y-107458580D01*
X184544580Y-119382000D02*
X184263420Y-119382000D01*
X184544580Y-118362000D02*
X184263420Y-118362000D01*
X140995000Y-91322000D02*
X140995000Y-92792000D01*
X140995000Y-92792000D02*
X143280000Y-92792000D01*
X143280000Y-91322000D02*
X140995000Y-91322000D01*
X178306000Y-131966580D02*
X178306000Y-131685420D01*
X179326000Y-131966580D02*
X179326000Y-131685420D01*
X189448000Y-117221000D02*
X189448000Y-119021000D01*
X189448000Y-117221000D02*
X189448000Y-116421000D01*
X192568000Y-117221000D02*
X192568000Y-118021000D01*
X192568000Y-117221000D02*
X192568000Y-116421000D01*
X146035500Y-141461258D02*
X146035500Y-140986742D01*
X147080500Y-141461258D02*
X147080500Y-140986742D01*
X169020258Y-122950500D02*
X168545742Y-122950500D01*
X169020258Y-121905500D02*
X168545742Y-121905500D01*
X154907500Y-90529000D02*
X153437500Y-90529000D01*
X153437500Y-90529000D02*
X153437500Y-92814000D01*
X154907500Y-92814000D02*
X154907500Y-90529000D01*
X163877500Y-141257500D02*
X163877500Y-140057500D01*
X165377500Y-141257500D02*
X163877500Y-141257500D01*
X164257500Y-140807500D02*
X164257500Y-138437500D01*
X167497500Y-139057500D02*
X167497500Y-140057500D01*
X145290000Y-135876420D02*
X145290000Y-136157580D01*
X144270000Y-135876420D02*
X144270000Y-136157580D01*
X193275500Y-102158258D02*
X193275500Y-101683742D01*
X194320500Y-102158258D02*
X194320500Y-101683742D01*
X168769420Y-126363000D02*
X169050580Y-126363000D01*
X168769420Y-127383000D02*
X169050580Y-127383000D01*
X196215000Y-116550000D02*
X194415000Y-116550000D01*
X196215000Y-116550000D02*
X197015000Y-116550000D01*
X196215000Y-119670000D02*
X195415000Y-119670000D01*
X196215000Y-119670000D02*
X197015000Y-119670000D01*
X155134258Y-104408500D02*
X154659742Y-104408500D01*
X155134258Y-103363500D02*
X154659742Y-103363500D01*
X195307500Y-105714258D02*
X195307500Y-105239742D01*
X196352500Y-105714258D02*
X196352500Y-105239742D01*
X165829500Y-90529000D02*
X164359500Y-90529000D01*
X164359500Y-90529000D02*
X164359500Y-92814000D01*
X165829500Y-92814000D02*
X165829500Y-90529000D01*
X151494258Y-105805500D02*
X151019742Y-105805500D01*
X151494258Y-104760500D02*
X151019742Y-104760500D01*
X160782000Y-102017000D02*
X162582000Y-102017000D01*
X160782000Y-102017000D02*
X159982000Y-102017000D01*
X160782000Y-98897000D02*
X161582000Y-98897000D01*
X160782000Y-98897000D02*
X159982000Y-98897000D01*
X139429258Y-103639500D02*
X138954742Y-103639500D01*
X139429258Y-102594500D02*
X138954742Y-102594500D01*
X139440758Y-92627500D02*
X138966242Y-92627500D01*
X139440758Y-91582500D02*
X138966242Y-91582500D01*
X165042000Y-112591000D02*
X165042000Y-112851000D01*
X165042000Y-112851000D02*
X163367000Y-112851000D01*
X165042000Y-118041000D02*
X165042000Y-117781000D01*
X167767000Y-112591000D02*
X165042000Y-112591000D01*
X167767000Y-112591000D02*
X170492000Y-112591000D01*
X167767000Y-118041000D02*
X165042000Y-118041000D01*
X167767000Y-118041000D02*
X170492000Y-118041000D01*
X170492000Y-112591000D02*
X170492000Y-112851000D01*
X170492000Y-118041000D02*
X170492000Y-117781000D01*
X173034000Y-133544000D02*
X173034000Y-134874000D01*
X171704000Y-133544000D02*
X173034000Y-133544000D01*
X170434000Y-133544000D02*
X160214000Y-133544000D01*
X170434000Y-133544000D02*
X170434000Y-136204000D01*
X160214000Y-133544000D02*
X160214000Y-136204000D01*
X170434000Y-136204000D02*
X160214000Y-136204000D01*
X187815420Y-100141000D02*
X188096580Y-100141000D01*
X187815420Y-101161000D02*
X188096580Y-101161000D01*
X169351000Y-104073000D02*
X168021000Y-104073000D01*
X169351000Y-102743000D02*
X169351000Y-104073000D01*
X169351000Y-101473000D02*
X169351000Y-96333000D01*
X169351000Y-101473000D02*
X166691000Y-101473000D01*
X169351000Y-96333000D02*
X166691000Y-96333000D01*
X166691000Y-101473000D02*
X166691000Y-96333000D01*
X159760500Y-93320000D02*
X161560500Y-93320000D01*
X159760500Y-93320000D02*
X158960500Y-93320000D01*
X159760500Y-90200000D02*
X160560500Y-90200000D01*
X159760500Y-90200000D02*
X158960500Y-90200000D01*
X197339500Y-105714258D02*
X197339500Y-105239742D01*
X198384500Y-105714258D02*
X198384500Y-105239742D01*
X153650000Y-88695258D02*
X153650000Y-88220742D01*
X154695000Y-88695258D02*
X154695000Y-88220742D01*
X176798500Y-131588742D02*
X176798500Y-132063258D01*
X175753500Y-131588742D02*
X175753500Y-132063258D01*
X138965000Y-136405252D02*
X138965000Y-135882748D01*
X140435000Y-136405252D02*
X140435000Y-135882748D01*
D11*
X194238000Y-134855000D02*
X197538000Y-134855000D01*
X197938000Y-134455000D02*
X197938000Y-123355000D01*
X194238000Y-133955000D02*
X194238000Y-134855000D01*
X194238000Y-123755000D02*
X194238000Y-122955000D01*
X197538000Y-122955000D02*
X194238000Y-122955000D01*
D12*
X149325000Y-135882748D02*
X149325000Y-136405252D01*
X147855000Y-135882748D02*
X147855000Y-136405252D01*
X181612000Y-138543420D02*
X181612000Y-138824580D01*
X180592000Y-138543420D02*
X180592000Y-138824580D01*
X142127500Y-140986742D02*
X142127500Y-141461258D01*
X141082500Y-140986742D02*
X141082500Y-141461258D01*
X141009000Y-102298000D02*
X141009000Y-103768000D01*
X141009000Y-103768000D02*
X143294000Y-103768000D01*
X143294000Y-102298000D02*
X141009000Y-102298000D01*
X183640000Y-107177420D02*
X183640000Y-107458580D01*
X182620000Y-107177420D02*
X182620000Y-107458580D01*
X180272500Y-96074742D02*
X180272500Y-96549258D01*
X179227500Y-96074742D02*
X179227500Y-96549258D01*
X176405000Y-116191420D02*
X176405000Y-116472580D01*
X175385000Y-116191420D02*
X175385000Y-116472580D01*
X169020258Y-124474500D02*
X168545742Y-124474500D01*
X169020258Y-123429500D02*
X168545742Y-123429500D01*
X155058000Y-97580258D02*
X155058000Y-97105742D01*
X156103000Y-97580258D02*
X156103000Y-97105742D01*
X191243500Y-105714258D02*
X191243500Y-105239742D01*
X192288500Y-105714258D02*
X192288500Y-105239742D01*
X193275500Y-105714258D02*
X193275500Y-105239742D01*
X194320500Y-105714258D02*
X194320500Y-105239742D01*
X197339500Y-102349258D02*
X197339500Y-101874742D01*
X198384500Y-102349258D02*
X198384500Y-101874742D01*
D11*
X166624000Y-143256000D02*
X177292000Y-143256000D01*
X177292000Y-143256000D02*
X177292000Y-153416000D01*
X177292000Y-153416000D02*
X166624000Y-153416000D01*
X166624000Y-153416000D02*
X166624000Y-143256000D01*
X165388000Y-106426000D02*
X167166000Y-106426000D01*
X167166000Y-106426000D02*
X167166000Y-106426000D01*
X167166000Y-106426000D02*
X165388000Y-106426000D01*
X165388000Y-106426000D02*
X165388000Y-106426000D01*
X165388000Y-110972600D02*
X167166000Y-110972600D01*
X167166000Y-110972600D02*
X167166000Y-110998000D01*
X167166000Y-110998000D02*
X165388000Y-110998000D01*
X165388000Y-110998000D02*
X165388000Y-110972600D01*
D12*
X140850252Y-144753000D02*
X140327748Y-144753000D01*
X140850252Y-143283000D02*
X140327748Y-143283000D01*
X139580252Y-126592000D02*
X139057748Y-126592000D01*
X139580252Y-125122000D02*
X139057748Y-125122000D01*
D10*
X145820000Y-129135000D02*
X145595000Y-129135000D01*
X145820000Y-129135000D02*
X145820000Y-132485000D01*
X145595000Y-129135000D02*
X145595000Y-127910000D01*
X142470000Y-129135000D02*
X142770000Y-129135000D01*
X142470000Y-129135000D02*
X142470000Y-132485000D01*
X145820000Y-132485000D02*
X145520000Y-132485000D01*
X142470000Y-132485000D02*
X142770000Y-132485000D01*
D12*
X157102500Y-100917580D02*
X157102500Y-100636420D01*
X158122500Y-100917580D02*
X158122500Y-100636420D01*
X176924580Y-99189000D02*
X176643420Y-99189000D01*
X176924580Y-98169000D02*
X176643420Y-98169000D01*
X169351000Y-95183000D02*
X168021000Y-95183000D01*
X169351000Y-93853000D02*
X169351000Y-95183000D01*
X169351000Y-92583000D02*
X169351000Y-87443000D01*
X169351000Y-92583000D02*
X166691000Y-92583000D01*
X169351000Y-87443000D02*
X166691000Y-87443000D01*
X166691000Y-92583000D02*
X166691000Y-87443000D01*
X191927500Y-96549258D02*
X191927500Y-96074742D01*
X192972500Y-96549258D02*
X192972500Y-96074742D01*
X139459580Y-129034000D02*
X139178420Y-129034000D01*
X139459580Y-128014000D02*
X139178420Y-128014000D01*
X175384000Y-94939000D02*
X175384000Y-97339000D01*
X175384000Y-97339000D02*
X178184000Y-97339000D01*
X139429258Y-98088500D02*
X138954742Y-98088500D01*
X139429258Y-97043500D02*
X138954742Y-97043500D01*
X191957000Y-133654000D02*
X190627000Y-133654000D01*
X191957000Y-132324000D02*
X191957000Y-133654000D01*
X191957000Y-131054000D02*
X191957000Y-123374000D01*
X191957000Y-131054000D02*
X189297000Y-131054000D01*
X191957000Y-123374000D02*
X189297000Y-123374000D01*
X189297000Y-131054000D02*
X189297000Y-123374000D01*
X155948500Y-92154580D02*
X155948500Y-91873420D01*
X156968500Y-92154580D02*
X156968500Y-91873420D01*
D11*
X179959000Y-137361000D02*
X179959000Y-140155000D01*
X176657000Y-137361000D02*
X176657000Y-140155000D01*
D13*
X176555000Y-136599000D02*
G75*
G03*
X176555000Y-136599000I-152000J0D01*
G01*
D12*
X141009000Y-96801000D02*
X141009000Y-98271000D01*
X141009000Y-98271000D02*
X143294000Y-98271000D01*
X143294000Y-96801000D02*
X141009000Y-96801000D01*
X185560580Y-123954000D02*
X185279420Y-123954000D01*
X185560580Y-122934000D02*
X185279420Y-122934000D01*
X156397000Y-136702000D02*
X155067000Y-136702000D01*
X156397000Y-135372000D02*
X156397000Y-136702000D01*
X156397000Y-134102000D02*
X156397000Y-126422000D01*
X156397000Y-134102000D02*
X153737000Y-134102000D01*
X156397000Y-126422000D02*
X153737000Y-126422000D01*
X153737000Y-134102000D02*
X153737000Y-126422000D01*
X174498000Y-128696500D02*
X174498000Y-128046500D01*
X175148000Y-121476500D02*
X174498000Y-121476500D01*
X175148000Y-128696500D02*
X174498000Y-128696500D01*
X181068000Y-121476500D02*
X181718000Y-121476500D01*
X181068000Y-128696500D02*
X181718000Y-128696500D01*
X181718000Y-121476500D02*
X181718000Y-122126500D01*
X181718000Y-128696500D02*
X181718000Y-128046500D01*
X139580252Y-131926000D02*
X139057748Y-131926000D01*
X139580252Y-130456000D02*
X139057748Y-130456000D01*
X162552500Y-92154580D02*
X162552500Y-91873420D01*
X163572500Y-92154580D02*
X163572500Y-91873420D01*
X148067500Y-139937258D02*
X148067500Y-139462742D01*
X149112500Y-139937258D02*
X149112500Y-139462742D01*
X179830000Y-131966580D02*
X179830000Y-131685420D01*
X180850000Y-131966580D02*
X180850000Y-131685420D01*
X177148258Y-101296500D02*
X176673742Y-101296500D01*
X177148258Y-100251500D02*
X176673742Y-100251500D01*
X195307500Y-102158258D02*
X195307500Y-101683742D01*
X196352500Y-102158258D02*
X196352500Y-101683742D01*
X143483742Y-109205500D02*
X143958258Y-109205500D01*
X143483742Y-110250500D02*
X143958258Y-110250500D01*
D11*
X188756000Y-136525000D02*
X190534000Y-136525000D01*
X190534000Y-136525000D02*
X190534000Y-136525000D01*
X190534000Y-136525000D02*
X188756000Y-136525000D01*
X188756000Y-136525000D02*
X188756000Y-136525000D01*
X188756000Y-141071600D02*
X190534000Y-141071600D01*
X190534000Y-141071600D02*
X190534000Y-141097000D01*
X190534000Y-141097000D02*
X188756000Y-141097000D01*
X188756000Y-141097000D02*
X188756000Y-141071600D01*
X155448000Y-143256000D02*
X166116000Y-143256000D01*
X166116000Y-143256000D02*
X166116000Y-153416000D01*
X166116000Y-153416000D02*
X155448000Y-153416000D01*
X155448000Y-153416000D02*
X155448000Y-143256000D01*
D12*
X143766000Y-135876420D02*
X143766000Y-136157580D01*
X142746000Y-135876420D02*
X142746000Y-136157580D01*
X175004000Y-138824580D02*
X175004000Y-138543420D01*
X176024000Y-138824580D02*
X176024000Y-138543420D01*
X181187000Y-104706000D02*
X181187000Y-104231000D01*
X181662000Y-100486000D02*
X181187000Y-100486000D01*
X181662000Y-104706000D02*
X181187000Y-104706000D01*
X184932000Y-100486000D02*
X185407000Y-100486000D01*
X184932000Y-104706000D02*
X185407000Y-104706000D01*
X185407000Y-100486000D02*
X185407000Y-100961000D01*
X185407000Y-104706000D02*
X185407000Y-104231000D01*
X162220080Y-141149500D02*
X161938920Y-141149500D01*
X162220080Y-140129500D02*
X161938920Y-140129500D01*
X179944500Y-115045258D02*
X179944500Y-114570742D01*
X180989500Y-115045258D02*
X180989500Y-114570742D01*
X183074000Y-131253000D02*
X184404000Y-131253000D01*
X183074000Y-132583000D02*
X183074000Y-131253000D01*
X183074000Y-133853000D02*
X183074000Y-136453000D01*
X183074000Y-133853000D02*
X185734000Y-133853000D01*
X183074000Y-136453000D02*
X185734000Y-136453000D01*
X185734000Y-133853000D02*
X185734000Y-136453000D01*
X190850000Y-97364000D02*
X190850000Y-90104000D01*
X190850000Y-97364000D02*
X189350000Y-97364000D01*
X182850000Y-97364000D02*
X181350000Y-97364000D01*
X181350000Y-97364000D02*
X181350000Y-90104000D01*
X152089000Y-106864000D02*
X152089000Y-107339000D01*
X151614000Y-112084000D02*
X152089000Y-112084000D01*
X151614000Y-106864000D02*
X152089000Y-106864000D01*
X147344000Y-112084000D02*
X146869000Y-112084000D01*
X147344000Y-106864000D02*
X146869000Y-106864000D01*
X146869000Y-112084000D02*
X146869000Y-111609000D01*
X146869000Y-106864000D02*
X146869000Y-107339000D01*
X147835252Y-145007000D02*
X147312748Y-145007000D01*
X147835252Y-143537000D02*
X147312748Y-143537000D01*
X156534420Y-108710000D02*
X156815580Y-108710000D01*
X156534420Y-109730000D02*
X156815580Y-109730000D01*
X140995000Y-94037000D02*
X140995000Y-95507000D01*
X140995000Y-95507000D02*
X143280000Y-95507000D01*
X143280000Y-94037000D02*
X140995000Y-94037000D01*
X192288500Y-101683742D02*
X192288500Y-102158258D01*
X191243500Y-101683742D02*
X191243500Y-102158258D01*
X155134258Y-106186500D02*
X154659742Y-106186500D01*
X155134258Y-105141500D02*
X154659742Y-105141500D01*
X165617000Y-88220742D02*
X165617000Y-88695258D01*
X164572000Y-88220742D02*
X164572000Y-88695258D01*
X179453000Y-116191420D02*
X179453000Y-116472580D01*
X178433000Y-116191420D02*
X178433000Y-116472580D01*
X181595500Y-115045258D02*
X181595500Y-114570742D01*
X182640500Y-115045258D02*
X182640500Y-114570742D01*
X184166742Y-121397500D02*
X184641258Y-121397500D01*
X184166742Y-122442500D02*
X184641258Y-122442500D01*
X177051580Y-102999000D02*
X176770420Y-102999000D01*
X177051580Y-101979000D02*
X176770420Y-101979000D01*
X185433580Y-127510000D02*
X185152420Y-127510000D01*
X185433580Y-126490000D02*
X185152420Y-126490000D01*
X139429258Y-95294500D02*
X138954742Y-95294500D01*
X139429258Y-94249500D02*
X138954742Y-94249500D01*
X146685000Y-117923000D02*
X161985000Y-117923000D01*
X161985000Y-120583000D02*
X161985000Y-117923000D01*
X146685000Y-120583000D02*
X146685000Y-117923000D01*
X146685000Y-120583000D02*
X161985000Y-120583000D01*
X145415000Y-120583000D02*
X144085000Y-120583000D01*
X144085000Y-120583000D02*
X144085000Y-119253000D01*
X141009000Y-99588000D02*
X141009000Y-101058000D01*
X141009000Y-101058000D02*
X143294000Y-101058000D01*
X143294000Y-99588000D02*
X141009000Y-99588000D01*
D11*
X178054000Y-143256000D02*
X188722000Y-143256000D01*
X188722000Y-143256000D02*
X188722000Y-153416000D01*
X188722000Y-153416000D02*
X178054000Y-153416000D01*
X178054000Y-153416000D02*
X178054000Y-143256000D01*
D12*
X171593742Y-106411500D02*
X172068258Y-106411500D01*
X171593742Y-107456500D02*
X172068258Y-107456500D01*
X147518500Y-103849000D02*
X146188500Y-103849000D01*
X147518500Y-102519000D02*
X147518500Y-103849000D01*
X147518500Y-101249000D02*
X147518500Y-91029000D01*
X147518500Y-101249000D02*
X144858500Y-101249000D01*
X147518500Y-91029000D02*
X144858500Y-91029000D01*
X144858500Y-101249000D02*
X144858500Y-91029000D01*
X139177500Y-139937258D02*
X139177500Y-139462742D01*
X140222500Y-139937258D02*
X140222500Y-139462742D01*
X176643420Y-93216000D02*
X176924580Y-93216000D01*
X176643420Y-94236000D02*
X176924580Y-94236000D01*
X144236000Y-152460000D02*
X144236000Y-151130000D01*
X145566000Y-152460000D02*
X144236000Y-152460000D01*
X146836000Y-152460000D02*
X151976000Y-152460000D01*
X146836000Y-152460000D02*
X146836000Y-149800000D01*
X151976000Y-152460000D02*
X151976000Y-149800000D01*
X146836000Y-149800000D02*
X151976000Y-149800000D01*
X163452500Y-100917580D02*
X163452500Y-100636420D01*
X164472500Y-100917580D02*
X164472500Y-100636420D01*
X139429258Y-100868500D02*
X138954742Y-100868500D01*
X139429258Y-99823500D02*
X138954742Y-99823500D01*
X152460000Y-103946000D02*
X151130000Y-103946000D01*
X152460000Y-102616000D02*
X152460000Y-103946000D01*
X152460000Y-101346000D02*
X152460000Y-96206000D01*
X152460000Y-101346000D02*
X149800000Y-101346000D01*
X152460000Y-96206000D02*
X149800000Y-96206000D01*
X149800000Y-101346000D02*
X149800000Y-96206000D01*
X184544580Y-117604000D02*
X184263420Y-117604000D01*
X184544580Y-116584000D02*
X184263420Y-116584000D01*
X152454500Y-95122000D02*
X151124500Y-95122000D01*
X152454500Y-93792000D02*
X152454500Y-95122000D01*
X152454500Y-92522000D02*
X152454500Y-87382000D01*
X152454500Y-92522000D02*
X149794500Y-92522000D01*
X152454500Y-87382000D02*
X149794500Y-87382000D01*
X149794500Y-92522000D02*
X149794500Y-87382000D01*
X190262742Y-121397500D02*
X190737258Y-121397500D01*
X190262742Y-122442500D02*
X190737258Y-122442500D01*
X177929000Y-116191420D02*
X177929000Y-116472580D01*
X176909000Y-116191420D02*
X176909000Y-116472580D01*
X168642420Y-118997000D02*
X168923580Y-118997000D01*
X168642420Y-120017000D02*
X168923580Y-120017000D01*
X162220080Y-139117500D02*
X161938920Y-139117500D01*
X162220080Y-138097500D02*
X161938920Y-138097500D01*
%LPC*%
D14*
X185179000Y-120396000D03*
X183629000Y-120396000D03*
D15*
X196474000Y-112649000D03*
D16*
X193934000Y-112649000D03*
D17*
X155900000Y-107442000D03*
X157450000Y-107442000D03*
D18*
X187131000Y-103000000D03*
X188781000Y-103000000D03*
D19*
X155580500Y-100111500D03*
X155580500Y-101686500D03*
D20*
X184654000Y-106543000D03*
X184654000Y-108093000D03*
D14*
X185179000Y-118872000D03*
X183629000Y-118872000D03*
D21*
X141692500Y-92057000D03*
X143267500Y-92057000D03*
D22*
X178816000Y-132601000D03*
X178816000Y-131051000D03*
D23*
X190058000Y-118358500D03*
X191958000Y-118358500D03*
X191008000Y-116083500D03*
D24*
X146558000Y-142049000D03*
X146558000Y-140399000D03*
D25*
X169608000Y-122428000D03*
X167958000Y-122428000D03*
D19*
X154172500Y-91226500D03*
X154172500Y-92801500D03*
D26*
X164627500Y-140507500D03*
X165127500Y-140507500D03*
X165627500Y-140507500D03*
X166127500Y-140507500D03*
X166627500Y-140507500D03*
X167127500Y-140507500D03*
X167127500Y-138607500D03*
X166627500Y-138607500D03*
X166127500Y-138607500D03*
X165627500Y-138607500D03*
X165127500Y-138607500D03*
X164627500Y-138607500D03*
D27*
X165877500Y-139557500D03*
D20*
X144780000Y-135242000D03*
X144780000Y-136792000D03*
D24*
X193798000Y-102746000D03*
X193798000Y-101096000D03*
D17*
X168135000Y-126873000D03*
X169685000Y-126873000D03*
D28*
X195077500Y-117160000D03*
X195077500Y-118110000D03*
X195077500Y-119060000D03*
X197352500Y-119060000D03*
X197352500Y-117160000D03*
D25*
X155722000Y-103886000D03*
X154072000Y-103886000D03*
D24*
X195830000Y-106302000D03*
X195830000Y-104652000D03*
D19*
X165094500Y-91226500D03*
X165094500Y-92801500D03*
D25*
X152082000Y-105283000D03*
X150432000Y-105283000D03*
D29*
X161919500Y-101407000D03*
X161919500Y-100457000D03*
X161919500Y-99507000D03*
X159644500Y-99507000D03*
X159644500Y-101407000D03*
D25*
X140017000Y-103117000D03*
X138367000Y-103117000D03*
X140028500Y-92105000D03*
X138378500Y-92105000D03*
D30*
X164167000Y-113411000D03*
X164167000Y-114681000D03*
X164167000Y-115951000D03*
X164167000Y-117221000D03*
X171367000Y-117221000D03*
X171367000Y-115951000D03*
X171367000Y-114681000D03*
X171367000Y-113411000D03*
D15*
X171704000Y-134874000D03*
D16*
X169164000Y-134874000D03*
X166624000Y-134874000D03*
X164084000Y-134874000D03*
X161544000Y-134874000D03*
D17*
X187181000Y-100651000D03*
X188731000Y-100651000D03*
D15*
X168021000Y-102743000D03*
D16*
X168021000Y-100203000D03*
X168021000Y-97663000D03*
D29*
X160898000Y-92710000D03*
X160898000Y-91760000D03*
X160898000Y-90810000D03*
X158623000Y-90810000D03*
X158623000Y-92710000D03*
D24*
X197862000Y-106302000D03*
X197862000Y-104652000D03*
X154172500Y-89283000D03*
X154172500Y-87633000D03*
D31*
X176276000Y-131001000D03*
X176276000Y-132651000D03*
D32*
X139700000Y-137094000D03*
X139700000Y-135194000D03*
D33*
X194538000Y-133655000D03*
X194538000Y-133155000D03*
X194538000Y-132655000D03*
X194538000Y-132155000D03*
X194538000Y-131655000D03*
X194538000Y-131155000D03*
X194538000Y-130655000D03*
X194538000Y-130155000D03*
X194538000Y-129655000D03*
X194538000Y-129155000D03*
X194538000Y-128655000D03*
X194538000Y-128155000D03*
X194538000Y-127655000D03*
X194538000Y-127155000D03*
X194538000Y-126655000D03*
X194538000Y-126155000D03*
X194538000Y-125655000D03*
X194538000Y-125155000D03*
X194538000Y-124655000D03*
X194538000Y-124155000D03*
D34*
X197188000Y-134445000D03*
X197188000Y-123365000D03*
D35*
X148590000Y-135194000D03*
X148590000Y-137094000D03*
D20*
X181102000Y-137909000D03*
X181102000Y-139459000D03*
D31*
X141605000Y-140399000D03*
X141605000Y-142049000D03*
D21*
X141706500Y-103033000D03*
X143281500Y-103033000D03*
D20*
X183130000Y-106543000D03*
X183130000Y-108093000D03*
D31*
X179750000Y-95487000D03*
X179750000Y-97137000D03*
D20*
X175895000Y-115557000D03*
X175895000Y-117107000D03*
D25*
X169608000Y-123952000D03*
X167958000Y-123952000D03*
D24*
X155580500Y-98168000D03*
X155580500Y-96518000D03*
X191766000Y-106302000D03*
X191766000Y-104652000D03*
X193798000Y-106302000D03*
X193798000Y-104652000D03*
X197862000Y-102937000D03*
X197862000Y-101287000D03*
D36*
X169418000Y-147828000D03*
X174498000Y-147828000D03*
D37*
X164118000Y-107188000D03*
X168368000Y-107188000D03*
X164118000Y-110388000D03*
X168368000Y-110388000D03*
D38*
X141539000Y-144018000D03*
X139639000Y-144018000D03*
X140269000Y-125857000D03*
X138369000Y-125857000D03*
D39*
X145145000Y-128610000D03*
X144645000Y-128610000D03*
X144145000Y-128610000D03*
X143645000Y-128610000D03*
X143145000Y-128610000D03*
X143145000Y-133010000D03*
X143645000Y-133010000D03*
X144145000Y-133010000D03*
X144645000Y-133010000D03*
X145145000Y-133010000D03*
D22*
X157612500Y-101552000D03*
X157612500Y-100002000D03*
D14*
X177559000Y-98679000D03*
X176009000Y-98679000D03*
D15*
X168021000Y-93853000D03*
D16*
X168021000Y-91313000D03*
X168021000Y-88773000D03*
D24*
X192450000Y-97137000D03*
X192450000Y-95487000D03*
D14*
X140094000Y-128524000D03*
X138544000Y-128524000D03*
D40*
X176059000Y-96714000D03*
X177509000Y-96714000D03*
X177509000Y-95564000D03*
X176059000Y-95564000D03*
D25*
X140017000Y-97566000D03*
X138367000Y-97566000D03*
D15*
X190627000Y-132324000D03*
D16*
X190627000Y-129784000D03*
X190627000Y-127244000D03*
X190627000Y-124704000D03*
D22*
X156458500Y-92789000D03*
X156458500Y-91239000D03*
D41*
X177419000Y-137615000D03*
X177419000Y-139915000D03*
X179219000Y-139915000D03*
X179219000Y-137615000D03*
D21*
X141706500Y-97536000D03*
X143281500Y-97536000D03*
D14*
X186195000Y-123444000D03*
X184645000Y-123444000D03*
D15*
X155067000Y-135372000D03*
D16*
X155067000Y-132832000D03*
X155067000Y-130292000D03*
X155067000Y-127752000D03*
D42*
X174670500Y-122486500D03*
X174670500Y-122886500D03*
X174670500Y-123286500D03*
X174670500Y-123686500D03*
X174670500Y-124086500D03*
X174670500Y-124486500D03*
X174670500Y-124886500D03*
X174670500Y-125286500D03*
X174670500Y-125686500D03*
X174670500Y-126086500D03*
X174670500Y-126486500D03*
X174670500Y-126886500D03*
X174670500Y-127286500D03*
X174670500Y-127686500D03*
D43*
X175508000Y-128524000D03*
X175908000Y-128524000D03*
X176308000Y-128524000D03*
X176708000Y-128524000D03*
X177108000Y-128524000D03*
X177508000Y-128524000D03*
X177908000Y-128524000D03*
X178308000Y-128524000D03*
X178708000Y-128524000D03*
X179108000Y-128524000D03*
X179508000Y-128524000D03*
X179908000Y-128524000D03*
X180308000Y-128524000D03*
X180708000Y-128524000D03*
D42*
X181545500Y-127686500D03*
X181545500Y-127286500D03*
X181545500Y-126886500D03*
X181545500Y-126486500D03*
X181545500Y-126086500D03*
X181545500Y-125686500D03*
X181545500Y-125286500D03*
X181545500Y-124886500D03*
X181545500Y-124486500D03*
X181545500Y-124086500D03*
X181545500Y-123686500D03*
X181545500Y-123286500D03*
X181545500Y-122886500D03*
X181545500Y-122486500D03*
D43*
X180708000Y-121649000D03*
X180308000Y-121649000D03*
X179908000Y-121649000D03*
X179508000Y-121649000D03*
X179108000Y-121649000D03*
X178708000Y-121649000D03*
X178308000Y-121649000D03*
X177908000Y-121649000D03*
X177508000Y-121649000D03*
X177108000Y-121649000D03*
X176708000Y-121649000D03*
X176308000Y-121649000D03*
X175908000Y-121649000D03*
X175508000Y-121649000D03*
D44*
X178108000Y-125086500D03*
D38*
X140269000Y-131191000D03*
X138369000Y-131191000D03*
D22*
X163062500Y-92789000D03*
X163062500Y-91239000D03*
D24*
X148590000Y-140525000D03*
X148590000Y-138875000D03*
D22*
X180340000Y-132601000D03*
X180340000Y-131051000D03*
D25*
X177736000Y-100774000D03*
X176086000Y-100774000D03*
D24*
X195830000Y-102746000D03*
X195830000Y-101096000D03*
D18*
X142896000Y-109728000D03*
X144546000Y-109728000D03*
D37*
X187486000Y-137287000D03*
X191736000Y-137287000D03*
X187486000Y-140487000D03*
X191736000Y-140487000D03*
D36*
X158242000Y-147828000D03*
X163322000Y-147828000D03*
D20*
X143256000Y-135242000D03*
X143256000Y-136792000D03*
D22*
X175514000Y-139459000D03*
X175514000Y-137909000D03*
D45*
X181334500Y-101346000D03*
X181334500Y-101846000D03*
X181334500Y-102346000D03*
X181334500Y-102846000D03*
X181334500Y-103346000D03*
X181334500Y-103846000D03*
D46*
X182047000Y-104558500D03*
X182547000Y-104558500D03*
X183047000Y-104558500D03*
X183547000Y-104558500D03*
X184047000Y-104558500D03*
X184547000Y-104558500D03*
D45*
X185259500Y-103846000D03*
X185259500Y-103346000D03*
X185259500Y-102846000D03*
X185259500Y-102346000D03*
X185259500Y-101846000D03*
X185259500Y-101346000D03*
D46*
X184547000Y-100633500D03*
X184047000Y-100633500D03*
X183547000Y-100633500D03*
X183047000Y-100633500D03*
X182547000Y-100633500D03*
X182047000Y-100633500D03*
D47*
X183297000Y-102596000D03*
D14*
X162854500Y-140639500D03*
X161304500Y-140639500D03*
D24*
X180467000Y-115633000D03*
X180467000Y-113983000D03*
D15*
X184404000Y-132583000D03*
D16*
X184404000Y-135123000D03*
D48*
X189700000Y-96354000D03*
D49*
X182500000Y-96354000D03*
D50*
X188850000Y-97014000D03*
X188350000Y-97014000D03*
X187850000Y-97014000D03*
X187350000Y-97014000D03*
X186850000Y-97014000D03*
X186350000Y-97014000D03*
X185850000Y-97014000D03*
X185350000Y-97014000D03*
X184850000Y-97014000D03*
X184350000Y-97014000D03*
X183850000Y-97014000D03*
X183350000Y-97014000D03*
X183600000Y-95314000D03*
X184100000Y-95314000D03*
X184600000Y-95314000D03*
X185100000Y-95314000D03*
X185600000Y-95314000D03*
X186100000Y-95314000D03*
X186600000Y-95314000D03*
X187100000Y-95314000D03*
X187600000Y-95314000D03*
X188100000Y-95314000D03*
X188600000Y-95314000D03*
X189100000Y-95314000D03*
D51*
X190590000Y-89154000D03*
X190230000Y-95104000D03*
X181970000Y-95104000D03*
X181610000Y-89154000D03*
D52*
X151916500Y-111224000D03*
X151916500Y-110724000D03*
X151916500Y-110224000D03*
X151916500Y-109724000D03*
X151916500Y-109224000D03*
X151916500Y-108724000D03*
X151916500Y-108224000D03*
X151916500Y-107724000D03*
D53*
X151229000Y-107036500D03*
X150729000Y-107036500D03*
X150229000Y-107036500D03*
X149729000Y-107036500D03*
X149229000Y-107036500D03*
X148729000Y-107036500D03*
X148229000Y-107036500D03*
X147729000Y-107036500D03*
D52*
X147041500Y-107724000D03*
X147041500Y-108224000D03*
X147041500Y-108724000D03*
X147041500Y-109224000D03*
X147041500Y-109724000D03*
X147041500Y-110224000D03*
X147041500Y-110724000D03*
X147041500Y-111224000D03*
D53*
X147729000Y-111911500D03*
X148229000Y-111911500D03*
X148729000Y-111911500D03*
X149229000Y-111911500D03*
X149729000Y-111911500D03*
X150229000Y-111911500D03*
X150729000Y-111911500D03*
X151229000Y-111911500D03*
D54*
X149479000Y-109474000D03*
D38*
X148524000Y-144272000D03*
X146624000Y-144272000D03*
D17*
X155900000Y-109220000D03*
X157450000Y-109220000D03*
D21*
X141692500Y-94772000D03*
X143267500Y-94772000D03*
D31*
X191766000Y-101096000D03*
X191766000Y-102746000D03*
D25*
X155722000Y-105664000D03*
X154072000Y-105664000D03*
D31*
X165094500Y-87633000D03*
X165094500Y-89283000D03*
D20*
X178943000Y-115557000D03*
X178943000Y-117107000D03*
D24*
X182118000Y-115633000D03*
X182118000Y-113983000D03*
D18*
X183579000Y-121920000D03*
X185229000Y-121920000D03*
D14*
X177686000Y-102489000D03*
X176136000Y-102489000D03*
X186068000Y-127000000D03*
X184518000Y-127000000D03*
D25*
X140017000Y-94772000D03*
X138367000Y-94772000D03*
D16*
X160655000Y-119253000D03*
X158115000Y-119253000D03*
X155575000Y-119253000D03*
X153035000Y-119253000D03*
X150495000Y-119253000D03*
X147955000Y-119253000D03*
D15*
X145415000Y-119253000D03*
D21*
X141706500Y-100323000D03*
X143281500Y-100323000D03*
D36*
X180848000Y-147828000D03*
X185928000Y-147828000D03*
D18*
X171006000Y-106934000D03*
X172656000Y-106934000D03*
D15*
X146188500Y-102519000D03*
D16*
X146188500Y-99979000D03*
X146188500Y-97439000D03*
X146188500Y-94899000D03*
X146188500Y-92359000D03*
D24*
X139700000Y-140525000D03*
X139700000Y-138875000D03*
D17*
X176009000Y-93726000D03*
X177559000Y-93726000D03*
D15*
X145566000Y-151130000D03*
D16*
X148106000Y-151130000D03*
X150646000Y-151130000D03*
D22*
X163962500Y-101552000D03*
X163962500Y-100002000D03*
D25*
X140017000Y-100346000D03*
X138367000Y-100346000D03*
D15*
X151130000Y-102616000D03*
D16*
X151130000Y-100076000D03*
X151130000Y-97536000D03*
D14*
X185179000Y-117094000D03*
X183629000Y-117094000D03*
D15*
X151124500Y-93792000D03*
D16*
X151124500Y-91252000D03*
X151124500Y-88712000D03*
D18*
X189675000Y-121920000D03*
X191325000Y-121920000D03*
D20*
X177419000Y-115557000D03*
X177419000Y-117107000D03*
D17*
X168008000Y-119507000D03*
X169558000Y-119507000D03*
D14*
X162854500Y-138607500D03*
X161304500Y-138607500D03*
%LPD*%
M02*
