M48
; DRILL file {KiCad 7.0.5} date Thu Aug 10 16:58:00 2023
; FORMAT={-:-/ absolute / metric / decimal}
; #@! TF.CreationDate,2023-08-10T16:58:00+02:00
; #@! TF.GenerationSoftware,Kicad,Pcbnew,7.0.5
; #@! TF.FileFunction,Plated,1,4,PTH
FMAT,2
METRIC
; #@! TA.AperFunction,Plated,PTH,ViaDrill
T1C0.250
; #@! TA.AperFunction,Plated,PTH,ComponentDrill
T2C0.500
; #@! TA.AperFunction,Plated,PTH,ComponentDrill
T3C1.000
; #@! TA.AperFunction,Plated,PTH,ViaDrill
T4C2.200
; #@! TA.AperFunction,Plated,PTH,ComponentDrill
T5C2.200
%
G90
G05
T1
X138.303Y-104.394
X138.303Y-124.206
X138.303Y-129.794
X138.43Y-93.345
X138.43Y-96.012
X138.43Y-98.806
X138.43Y-101.6
X142.113Y-136.779
X142.875Y-108.331
X142.875Y-141.986
X143.002Y-144.018
X144.145Y-131.572
X145.161Y-144.272
X145.288Y-141.986
X146.05Y-135.255
X146.05Y-136.779
X152.781Y-103.886
X153.162Y-110.617
X155.702Y-87.63
X156.464Y-89.916
X156.591Y-96.52
X156.845Y-106.426
X156.972Y-103.886
X157.607Y-98.806
X158.75Y-107.442
X159.639Y-91.694
X160.147Y-138.557
X160.147Y-140.589
X160.782Y-100.457
X162.814Y-137.414
X163.195Y-89.662
X165.608Y-117.348
X166.624Y-122.428
X166.624Y-123.952
X166.751Y-119.507
X166.751Y-126.873
X168.148Y-139.573
X169.926Y-112.776
X170.18Y-110.363
X170.688Y-119.507
X170.879Y-126.555
X174.117Y-139.446
X174.752Y-93.726
X175.895Y-125.095
X176.149Y-103.886
X177.419Y-114.046
X177.927Y-118.237
X178.054Y-127.381
X178.181Y-122.936
X178.562Y-98.933
X178.816Y-129.794
X179.07Y-122.682
X179.197Y-136.144
X179.578Y-127.635
X179.578Y-133.985
X179.705Y-101.346
X179.832Y-98.044
X179.959Y-117.094
X180.34Y-127.508
X180.467Y-125.095
X180.594Y-125.73
X181.483Y-131.445
X181.61Y-128.397
X181.991Y-106.553
X182.372Y-128.143
X183.134Y-109.347
X183.388Y-123.063
X183.515Y-126.746
X184.658Y-97.917
X184.785Y-94.488
X186.309Y-101.346
X186.436Y-118.872
X187.198Y-127.508
X187.452Y-123.444
X187.579Y-98.044
X187.706Y-94.488
X188.849Y-94.488
X189.484Y-97.409
X189.738Y-140.462
X189.992Y-102.997
X190.119Y-100.584
X191.325Y-120.015
X191.77Y-100.203
X193.294Y-123.19
X193.675Y-125.603
X193.675Y-126.873
X193.802Y-107.823
X195.072Y-120.396
X195.707Y-124.079
X195.707Y-134.112
X195.834Y-99.822
X197.358Y-116.078
T3
X145.415Y-119.253
X145.566Y-151.13
X146.189Y-92.359
X146.189Y-94.899
X146.189Y-97.439
X146.189Y-99.979
X146.189Y-102.519
X147.955Y-119.253
X148.106Y-151.13
X150.495Y-119.253
X150.646Y-151.13
X151.124Y-88.712
X151.124Y-91.252
X151.124Y-93.792
X151.13Y-97.536
X151.13Y-100.076
X151.13Y-102.616
X153.035Y-119.253
X155.067Y-127.752
X155.067Y-130.292
X155.067Y-132.832
X155.067Y-135.372
X155.575Y-119.253
X158.115Y-119.253
X160.655Y-119.253
X161.544Y-134.874
X164.084Y-134.874
X166.624Y-134.874
X168.021Y-88.773
X168.021Y-91.313
X168.021Y-93.853
X168.021Y-97.663
X168.021Y-100.203
X168.021Y-102.743
X169.164Y-134.874
X171.704Y-134.874
X184.404Y-132.583
X184.404Y-135.123
X190.627Y-124.704
X190.627Y-127.244
X190.627Y-129.784
X190.627Y-132.324
X193.934Y-112.649
X196.474Y-112.649
T4
X139.978Y-89.027
X139.978Y-150.495
X195.858Y-89.027
X195.858Y-150.495
T5
X158.242Y-147.828
X163.322Y-147.828
X169.418Y-147.828
X174.498Y-147.828
X180.848Y-147.828
X185.928Y-147.828
T2
G00X181.61Y-89.454
M15
G01X181.61Y-88.854
M16
G05
G00X181.97Y-95.404
M15
G01X181.97Y-94.804
M16
G05
G00X190.23Y-95.404
M15
G01X190.23Y-94.804
M16
G05
G00X190.59Y-89.454
M15
G01X190.59Y-88.854
M16
G05
T0
M30
